<?xml version="1.0" encoding="utf-8"?>
<!-- Generator: Adobe Illustrator 24.1.2, SVG Export Plug-In . SVG Version: 6.00 Build 0)  -->
<svg version="1.1" xmlns="http://www.w3.org/2000/svg" xmlns:xlink="http://www.w3.org/1999/xlink" x="0px" y="0px"
	 viewBox="0 0 500 500" style="enable-background:new 0 0 500 500;" xml:space="preserve">
<style type="text/css">
	.st0{opacity:0.8;clip-path:url(#SVGID_2_);}
	.st1{fill:#F9F0C2;}
	.st2{fill:none;stroke:#F70000;stroke-width:0.2625;stroke-miterlimit:10;}
	.st3{fill:none;stroke:#19120F;stroke-width:0.2785;stroke-miterlimit:10;}
	.st4{fill-rule:evenodd;clip-rule:evenodd;fill:none;}
	.st5{fill:#1E1E1E;}
	.st6{font-family:'Amatic-Bold';}
	.st7{font-size:39px;}
	.st8{fill:none;}
	.st9{font-family:'AmaticSC-Regular';}
	.st10{font-size:12px;}
	.st11{font-size:23px;}
	.st12{font-size:15px;}
	.st13{fill-rule:evenodd;clip-rule:evenodd;fill:#1D1D1D;}
	.st14{fill:#1F2223;}
</style>
<g id="Background">
	<g>
		<defs>
			<rect id="SVGID_1_" width="500" height="500"/>
		</defs>
		<clipPath id="SVGID_2_">
			<use xlink:href="#SVGID_1_"  style="overflow:visible;"/>
		</clipPath>
		<g class="st0">
			<rect x="-40.01" y="-13.87" class="st1" width="543.4" height="735"/>
			<line class="st2" x1="20.78" y1="721.13" x2="20.78" y2="-13.87"/>
			<line class="st3" x1="503.39" y1="690.51" x2="-40.01" y2="690.51"/>
			<g>
				<line class="st3" x1="-40.01" y1="38.63" x2="503.39" y2="38.63"/>
				<line class="st3" x1="-40.01" y1="64.88" x2="503.39" y2="64.88"/>
				<line class="st3" x1="503.39" y1="91.13" x2="-40.01" y2="91.13"/>
				<line class="st3" x1="-40.01" y1="117.38" x2="503.39" y2="117.38"/>
				<line class="st3" x1="-40.01" y1="143.63" x2="503.39" y2="143.63"/>
				<line class="st3" x1="503.39" y1="169.88" x2="-40.01" y2="169.88"/>
				<line class="st3" x1="-40.01" y1="196.13" x2="503.39" y2="196.13"/>
				<line class="st3" x1="-40.01" y1="222.38" x2="503.39" y2="222.38"/>
				<line class="st3" x1="503.39" y1="248.63" x2="-40.01" y2="248.63"/>
				<line class="st3" x1="-40.01" y1="274.88" x2="503.39" y2="274.88"/>
				<line class="st3" x1="-40.01" y1="301.13" x2="503.39" y2="301.13"/>
				<line class="st3" x1="503.39" y1="327.38" x2="-40.01" y2="327.38"/>
				<line class="st3" x1="-40.01" y1="353.63" x2="503.39" y2="353.63"/>
				<line class="st3" x1="-40.01" y1="379.88" x2="503.39" y2="379.88"/>
				<line class="st3" x1="503.39" y1="406.13" x2="-40.01" y2="406.13"/>
				<line class="st3" x1="-40.01" y1="432.38" x2="503.39" y2="432.38"/>
				<line class="st3" x1="-40.01" y1="458.63" x2="503.39" y2="458.63"/>
				<line class="st3" x1="503.39" y1="484.88" x2="-40.01" y2="484.88"/>
				<line class="st3" x1="-40.01" y1="511.13" x2="503.39" y2="511.13"/>
				<line class="st3" x1="-40.01" y1="537.38" x2="503.39" y2="537.38"/>
				<line class="st3" x1="503.39" y1="563.63" x2="-40.01" y2="563.63"/>
				<line class="st3" x1="-40.01" y1="589.88" x2="503.39" y2="589.88"/>
				<line class="st3" x1="-40.01" y1="616.13" x2="503.39" y2="616.13"/>
				<line class="st3" x1="503.39" y1="642.38" x2="-40.01" y2="642.38"/>
				<line class="st3" x1="503.39" y1="668.63" x2="-40.01" y2="668.63"/>
			</g>
		</g>
	</g>
</g>
<g id="Objects">
	<rect x="172.81" y="210.56" class="st4" width="161.15" height="35.78"/>
	<text transform="matrix(1 0 0 1 200.8521 238.2461)" class="st5 st6 st7">#TITLE</text>
	<g>
		<rect x="29.44" y="169.32" class="st8" width="86.95" height="73.56"/>
		<text transform="matrix(1 0 0 1 50.3828 177.8408)" class="st5 st9 st10">#TEXTO5</text>
	</g>
	<rect x="70.48" y="392.14" class="st4" width="106.93" height="74.11"/>
	<text transform="matrix(1 0 0 1 101.4087 400.6587)" class="st5 st9 st10">#TEXTO4</text>
	<rect x="403.76" y="113.24" class="st4" width="77.18" height="72.15"/>
	<text transform="matrix(1 0 0 1 419.8159 121.7568)" class="st5 st9 st10">#TEXTO2</text>
	<rect x="403.76" y="325.33" class="st4" width="77.18" height="72.15"/>
	<text transform="matrix(1 0 0 1 419.8154 333.854)" class="st5 st9 st10">#TEXTO3</text>
	<text transform="matrix(1 0 0 1 75.1616 116.8843)" class="st5 st9 st11">#KEYWORD5</text>
	<text transform="matrix(1 0 0 1 212.502 56.2217)" class="st5 st9 st12">#KEYWORD6</text>
	<text transform="matrix(1 0 0 1 222.0625 429.1914)" class="st5 st9 st12">#KEYWORD4</text>
	<text transform="matrix(1 0 0 1 388.7085 214.1426)" class="st5 st9 st11">#KEYWORD2</text>
	<path class="st13" d="M377.23,135.49c-0.64-1.24-1.56-2.03-2.5-2.79c-0.26-0.21-0.57-0.35-0.84-0.56
		c-0.94-0.74-0.85-1.57,0.25-2.02c1.63-0.67,3.34-0.85,5.1-0.76c3.85,0.22,7.69,0.43,11.54,0.56c2.5,0.09,4.87,0.65,7.18,1.53
		c0.4,0.15,0.74,0.48,1.11,0.74c-0.18,1.43-0.36,2.8-0.51,4.17c-0.06,0.6,0,1.23-0.08,1.83c-0.12,0.89-0.41,1.68-1.28,2.19
		c-2.85,1.66-5.66,3.37-8.48,5.08c-1.34,0.81-2.65,1.67-3.98,2.48c-0.36,0.22-0.78,0.36-1.22,0.55c-1-1.73,0.04-3.8-1.23-5.35
		c-2.56,1.08-5.23,1.98-7.67,3.3c-2.89,1.56-5.69,3.34-8.34,5.29c-3.64,2.68-7.15,5.54-10.63,8.44c-2.45,2.04-4.63,4.36-6.53,6.95
		c-2.21,3.02-4.67,5.86-6.81,8.93c-1.68,2.41-3.06,5.04-4.54,7.6c-1.17,2.03-2.29,4.09-3.44,6.13c-0.12,0.22-0.32,0.39-0.79,0.44
		c0.22-0.89,0.31-1.84,0.69-2.66c0.47-1.03,0.51-2,0.21-3.05c-0.17-0.61-0.25-1.25-0.43-2.14c-0.56,1.33-1.1,2.37-1.41,3.47
		c-0.15,0.54,0,1.24,0.22,1.78c0.47,1.18-0.17,2.18-0.38,3.24c-0.1,0.48-0.59,0.65-1.08,0.34c-0.23-0.15-0.46-0.31-0.66-0.5
		c-2.29-2.13-4.64-4.21-6.84-6.43c-0.85-0.86-1.47-1.92-2.62-2.51c-0.3-0.15-0.49-0.74-0.54-1.16c-0.18-1.38-0.41-2.78-0.39-4.17
		c0.03-1.91,1.11-3.48,2.1-5.03c1.02-1.6,2.06-3.21,3.25-4.68c2.07-2.56,4.17-5.11,6.43-7.5c4.34-4.58,9.37-8.29,14.84-11.43
		c1.06-0.61,2.03-1.4,3.07-2.05c6.03-3.75,12.67-6.12,19.34-8.4c2.31-0.79,4.78-1.1,7.18-1.64
		C376.71,135.65,376.91,135.58,377.23,135.49z M395.13,133.37c-0.01-0.17-0.02-0.34-0.03-0.51c-1.36-0.21-2.72-0.6-4.08-0.58
		c-4.03,0.04-8.04-0.25-12.04-0.63c-0.46-0.04-0.94,0.06-1.53,0.1c0.74,1.26,1.44,2.33,2,3.47c0.5,1.03,0.29,1.57-0.8,1.89
		c-1.39,0.41-2.83,0.63-4.24,0.94c-6.65,1.47-12.91,4.07-19,6.99c-3.81,1.82-7.28,4.35-10.9,6.56c-6.92,4.22-12.51,9.89-17.51,16.19
		c-1.35,1.7-2.58,3.5-3.85,5.26c-0.51,0.7-0.99,1.42-1.49,2.13c3.38,2.42,6.88,4.43,9.53,7.64c0.19-0.37,0.28-0.52,0.34-0.67
		c1.91-4.84,4.2-9.48,7-13.88c2.19-3.44,4.8-6.49,7.79-9.19c5.56-5.02,11.25-9.9,17.66-13.85c4.83-2.98,9.93-5.34,15.4-6.89
		c0.9-0.25,1.81-0.44,2.91-0.71c0.88,1.28,1.79,2.62,2.82,4.12C388.49,138.94,391.81,136.16,395.13,133.37z M341.87,173.61
		c1.09-1.51,1.97-2.71,2.83-3.92c0.09-0.13,0.2-0.32,0.17-0.45c-0.32-1.36-0.67-2.71-1.09-4.41c-1.03,1.34-1.81,2.35-2.56,3.38
		c-0.15,0.21-0.28,0.52-0.24,0.76C341.22,170.36,341.51,171.76,341.87,173.61z M345.81,168.02c2.71-2.3,3.32-4.74,1.92-7.17
		c-0.88,0.87-1.77,1.7-2.58,2.6c-0.22,0.25-0.35,0.73-0.29,1.05C345.11,165.62,345.45,166.73,345.81,168.02z M358.5,155.33
		c1.05-0.78,1.97-1.48,2.91-2.16c1.58-1.15,1.58-0.71,1.15-2.99c-0.06-0.3-0.23-0.59-0.41-1.04c-1.49,1.06-2.87,2.04-4.1,2.91
		C358.2,153.23,358.33,154.15,358.5,155.33z M396.84,135.23c-1.6,0.34-2.33,1.57-3.32,2.54c0.32,0.71,0.62,1.35,0.95,2.07
		c0.53-0.27,1.06-0.47,1.49-0.8c0.27-0.2,0.49-0.58,0.55-0.92C396.66,137.25,396.72,136.36,396.84,135.23z M351.17,157.71
		c-0.91,0.81-1.56,1.4-2.17,1.95c0.23,1.29,0.43,2.46,0.65,3.67c1.54-0.81,2.23-1.9,1.75-3.58
		C351.24,159.22,351.26,158.64,351.17,157.71z M338.63,172.82c-2.33,2.25-1.25,4.47-0.72,7.02c0.49-0.91,1.1-1.53,1.11-2.16
		C339.05,176.15,338.8,174.62,338.63,172.82z M363.4,148.29c0.38,0.88,0.71,1.67,1.05,2.48c2.61-1.64,2.69-1.83,1.64-4.21
		C365.25,147.1,364.41,147.64,363.4,148.29z M336.13,177.58c-0.5,0.83-0.91,1.42-1.22,2.06c-0.16,0.32-0.24,0.76-0.16,1.1
		c0.23,0.99,0.55,1.97,0.85,2.99C337.02,181.8,337.08,181.26,336.13,177.58z M389.43,141.45c-0.11-0.06-0.21-0.12-0.32-0.18
		c-1.41,1.28-2.82,2.56-4.21,3.86c-0.1,0.1-0.01,0.4-0.01,0.79c1.63-1.04,3.1-1.98,4.55-2.91
		C389.43,142.43,389.43,141.94,389.43,141.45z M373.94,144.77c-0.17-0.7-0.31-1.27-0.49-1.99c-1.06,0.49-1.95,0.9-2.92,1.35
		c0.28,0.7,0.52,1.3,0.79,1.99C372.2,145.67,372.98,145.27,373.94,144.77z M392.77,138.2c-0.99,0.79-1.87,1.48-2.78,2.21
		c0.28,0.64,0.49,1.13,0.76,1.74c0.93-0.57,1.76-1.08,2.57-1.58C393.12,139.74,392.97,139.09,392.77,138.2z M380.91,141.92
		c-0.23-0.86-0.4-1.52-0.59-2.25c-0.92,0.41-1.71,0.75-2.56,1.13c0.16,0.79,0.29,1.45,0.44,2.2
		C379.16,142.62,379.97,142.3,380.91,141.92z M324.47,179.7c-0.47,1.96-0.04,3.44,1.9,4.32
		C326.74,182.14,326.71,180.52,324.47,179.7z M328.09,182.98c-0.6,2.41-0.08,3.49,1.8,4.03
		C330.14,185.33,329.83,183.9,328.09,182.98z M370.1,146.88c-0.17-0.76-0.32-1.44-0.52-2.36c-0.87,0.52-1.55,0.92-2.22,1.31
		c0.37,0.83,0.66,1.51,1.01,2.3C369,147.68,369.52,147.3,370.1,146.88z M356.89,156.73c-0.15-1.19-0.28-2.14-0.43-3.35
		c-0.62,0.52-1.06,0.89-1.39,1.17c0.12,1.18,0.22,2.15,0.34,3.37C355.99,157.46,356.44,157.1,356.89,156.73z M376.87,143.34
		c0-0.77,0-1.46,0-2.36c-0.92,0.48-1.67,0.88-2.49,1.32c0.17,0.73,0.31,1.34,0.47,2.03c0.46-0.2,0.77-0.32,1.06-0.47
		C376.25,143.7,376.58,143.5,376.87,143.34z M353.82,155.69c-1.56,1.2-1.67,2.1-0.62,4.51c0.38-0.59,0.91-1.06,0.94-1.56
		C354.2,157.72,353.96,156.79,353.82,155.69z M339.99,170.5c-0.56,0.25-0.85,0.58-0.74,1.17c0.26,1.35,0.54,2.69,0.81,4.01
		c0.78-0.66,0.81-0.67,0.71-1.19C340.54,173.18,340.27,171.89,339.99,170.5z M322.02,177.72c0,0.95,0,1.82,0,2.69
		c0,0.74,0.38,0.95,1.22,0.82C322.91,180.02,324.2,178.43,322.02,177.72z M381.47,139.55c-0.12,0-0.24,0-0.37,0.01
		c0.05,0.64,0.1,1.28,0.17,2.24C382.27,140.76,381.59,140.17,381.47,139.55z"/>
	<path class="st13" d="M127.88,385.91c-1.37-0.67-1.56-1.47-1.76-2.21c-0.83-3.14-1.97-6.17-3.32-9.12
		c-0.42-0.91-0.02-1.62,0.99-1.88c0.37-0.09,0.78-0.1,1.16-0.09c0.38,0.01,0.77,0.1,1.29,0.18c0.16-0.69,0.29-1.38,0.48-2.05
		c1.22-4.37,2.78-8.61,5.01-12.58c2.03-3.61,4.21-7.12,7.26-9.99c3.38-3.19,6.99-6.05,11.03-8.42c4.61-2.72,9.55-4.6,14.58-6.31
		c0.63-0.21,1.3-0.34,1.95-0.46c1.18-0.22,2.11,0.07,2.97,1.04c1.17,1.34,2.55,2.5,3.83,3.74c0.32,0.31,0.66,0.61,0.94,0.96
		c0.73,0.9,0.46,1.92-0.66,2.17c-1.14,0.26-2.32,0.32-3.48,0.49c-3.71,0.54-7.06,2.08-10.36,3.75c-8.19,4.14-15.26,9.74-21.28,16.63
		c-1.16,1.33-2.01,2.95-2.9,4.5c-1.12,1.93-2.15,3.92-3.19,5.9c-0.45,0.85-0.29,1.17,0.61,1.49c0.84,0.29,1.73,0.48,2.51,0.88
		c0.94,0.49,1,1.13,0.23,1.87c-0.64,0.62-1.37,1.16-2.13,1.61c-1.37,0.79-2.25,1.98-3,3.3c-0.64,1.11-1.32,2.2-1.98,3.3
		C128.4,385.04,128.14,385.48,127.88,385.91z M149.65,348.69c1.14-0.77,2.26-1.54,3.53-2.39c-1.15-1.44-2.2-2.76-3.31-4.15
		c-0.84,0.61-1.54,1.11-2.05,1.49C148.45,345.41,149.02,346.96,149.65,348.69z M154.79,339.54c-1.3,0.73-2.52,1.42-3.66,2.05
		c1.12,1.4,2.12,2.65,3.21,4.01c0.56-0.37,1.14-0.74,1.71-1.12C155.66,342.81,155.97,341.12,154.79,339.54z M143.64,353.47
		c0.6-0.5,1.08-0.86,1.5-1.28c0.21-0.21,0.47-0.58,0.42-0.83c-0.31-1.61-0.85-3.15-1.61-4.82c-0.95,0.82-1.73,1.49-2.45,2.12
		C142.25,350.33,142.91,351.83,143.64,353.47z M156.04,338.88c0.54,1.84,0.99,3.35,1.47,4.98c0.8-0.42,1.57-0.83,2.39-1.26
		c-0.29-1.61-0.55-3.13-0.86-4.89C157.87,338.16,156.87,338.55,156.04,338.88z M171.43,338.93c-1.14-1.52-2.12-2.84-3.15-4.22
		c-0.78,0.2-1.52,0.4-2.12,0.55c0.43,1.47,0.84,2.84,1.28,4.35C168.64,339.41,169.94,339.19,171.43,338.93z M138.88,358.47
		c0.5-0.71,0.82-1.1,1.08-1.53c0.15-0.26,0.35-0.64,0.27-0.88c-0.45-1.4-0.97-2.78-1.62-4.57c-0.83,1.13-1.4,1.91-1.91,2.61
		C137.4,355.5,138.01,356.74,138.88,358.47z M125.47,375.17c0.39,2.2,2.47,2.79,3.62,4.44c0.49-0.62,0.85-1.08,1.24-1.57
		C129.12,376.35,128,374.81,125.47,375.17z M144.98,345.77c0.66,1.69,1.25,3.23,1.91,4.91c0.45-0.31,0.88-0.6,1.29-0.88
		c-0.23-0.99-0.4-1.85-0.63-2.7c-0.23-0.84-0.51-1.66-0.85-2.75C145.96,344.96,145.43,345.39,144.98,345.77z M133.02,375.88
		c-1.03-0.29-1.67-0.45-2.29-0.64c-1.56-0.47-1.93-1.37-1.14-2.74c0.33-0.57,0.7-1.11,1.11-1.76c-0.47-0.47-0.87-0.86-1.33-1.31
		c-0.79,1.67-0.88,3.21-0.82,4.77c0.01,0.3,0.15,0.65,0.36,0.86c0.69,0.71,1.43,1.36,2.19,2.06
		C131.64,376.77,132.15,376.44,133.02,375.88z M162.92,341.11c-0.4-1.47-0.78-2.89-1.21-4.46c-0.8,0.31-1.44,0.56-2.09,0.81
		c0.58,1.61,1.09,3.03,1.62,4.53C161.83,341.68,162.32,341.43,162.92,341.11z M164.36,340.64c0.52-0.21,1.01-0.4,1.55-0.61
		c-0.3-1.53-0.57-2.92-0.85-4.38c-0.86,0.28-1.54,0.5-2.23,0.72C163.35,337.83,163.84,339.18,164.36,340.64z M138.09,359.13
		c-0.7-1.44-1.27-2.62-1.94-4.01c-0.61,0.84-1.07,1.45-1.53,2.08c0.65,1.12,1.25,2.16,1.87,3.24
		C137.08,359.96,137.53,359.58,138.09,359.13z M141.35,355.55c0.52-0.38,0.95-0.7,1.27-0.94c-0.73-1.84-1.32-3.32-2.01-5.05
		c-0.57,0.61-0.99,1.06-1.29,1.39C140.04,352.58,140.67,354,141.35,355.55z M134.15,364.46c-0.6-1.07-1.12-2-1.77-3.16
		c-0.48,1.13-0.83,1.93-1.17,2.74c0.57,0.79,1.08,1.49,1.7,2.35C133.41,365.63,133.76,365.08,134.15,364.46z M133,360.22
		c0.57,1.06,1.09,2.03,1.71,3.18c0.48-0.79,0.87-1.44,1.26-2.09c-0.62-0.98-1.2-1.9-1.88-2.97
		C133.64,359.12,133.31,359.69,133,360.22z M131.2,369.64c0.48-0.91,0.88-1.67,1.29-2.44c-0.54-0.64-1.02-1.22-1.52-1.82
		C129.43,367.85,129.43,367.97,131.2,369.64z M127.78,381.83c0.97-1.4,0.97-1.4-0.73-2.66C127.3,380.09,127.5,380.81,127.78,381.83z
		"/>
	<path class="st13" d="M241.53,107.47c-2.22-0.34-4.55,0.25-6.66-1.04c-0.3-1.47,0.37-2.9,0.66-4.35c0.72-3.6,2.11-6.95,4.09-10.05
		c0.36-0.56,0.66-1.17,0.96-1.77c1.81-3.51,4.4-6.01,8.49-6.6c0.43-0.06,0.86-0.2,1.46-0.35c0.27,0.57,0.64,1.13,0.81,1.74
		c1.58,5.6,3.12,11.2,4.67,16.81c0.02,0.05,0.03,0.11,0.05,0.16c0.63,1.97,0.57,2.13-1.5,2.3c-1.38,0.11-2.77,0.02-4.31,0.02
		c-0.06,0.58-0.2,1.29-0.2,2c0.02,4.14-0.1,8.29,0.15,12.42c0.29,4.74,0.78,9.47,1.43,14.17c0.63,4.55,2.09,8.92,3.62,13.24
		c0.81,2.32,1.64,4.63,2.54,6.91c0.51,1.3,1.18,2.53,1.72,3.81c0.44,1.02,0.82,2.07,1.19,3.12c0.24,0.67-0.04,1.03-0.77,1.13
		c-3.54,0.5-7.04,1.35-10.65,1.08c-0.17-0.01-0.37-0.08-0.5-0.01c-1.21,0.66-2.02-0.04-2.96-0.71c-2.2-1.56-3.7-3.48-4.13-6.23
		c-0.57-3.59-1.22-7.16-1.94-10.72c-1.82-9.05-1.83-18.11-0.42-27.22c0.48-3.11,1.15-6.15,2.07-9.15
		C241.46,108.02,241.47,107.8,241.53,107.47z M259.4,159.61c-1.07-2.12-2.09-3.98-2.95-5.91c-0.55-1.22-0.83-2.55-1.33-3.79
		c-1.66-4.21-3.05-8.49-4.12-12.9c-1.24-5.09-1.64-10.27-2.03-15.44c-0.37-4.96-0.33-9.94-0.41-14.92c-0.02-1.16,0.18-2.32,0.28-3.4
		c1.93-1.16,4.05-0.24,5.81-0.78c-1.77-5.73-3.5-11.3-5.25-16.96c-0.52,0.72-1.02,1.38-1.49,2.05c-1.64,2.33-3.39,4.59-4.86,7.02
		c-1.35,2.24-2.39,4.67-3.53,7.03c-0.17,0.35-0.14,0.79-0.22,1.32c1.28,0,2.35-0.07,3.4,0.02c1.1,0.1,2.18,0.35,3.27,0.53
		c-2.31,19.39-2.48,38.61,2.53,57.71C252.15,161.08,255.71,160.14,259.4,159.61z M246.45,160.06c-0.13-0.57-0.27-1.13-0.38-1.7
		c-0.79-4.17-1.78-8.31-2.3-12.52c-0.57-4.71-0.86-9.46-0.98-14.21c-0.12-4.86-0.01-9.73,0.22-14.58c0.15-3.23,0.67-6.44,1-9.66
		c0.05-0.52,0.01-1.04,0.01-1.63c-1.44,0.77-1.5,0.75-1.73,2.12c-0.72,4.29-1.42,8.58-2.07,12.88c-0.76,5.05-0.83,10.14-0.33,15.22
		c0.35,3.55,0.93,7.08,1.54,10.6c0.58,3.35,1.33,6.67,2.02,10C243.78,158.22,245.04,159.15,246.45,160.06z M248.1,85
		c-2.46,0.48-4.03,1.56-5.11,3.29c-0.83,1.32-1.56,2.71-2.38,4.04c-1.51,2.45-2.57,5.08-3.37,7.83c-0.38,1.3-0.63,2.65-0.97,4.08
		c1.05-0.19,1.31-0.73,1.48-1.45c1.23-5.05,4.14-9.24,6.99-13.45C245.69,87.91,246.83,86.61,248.1,85z M242,106.07
		c0.33-0.4,0.74-0.89,1.34-1.61c-1.46,0-2.62,0.1-3.77-0.03c-1.3-0.14-2.03,0.51-2.94,1.63C238.53,106.07,240.13,106.07,242,106.07z
		"/>
	<path class="st13" d="M418.97,376.79c-0.6,0.14-0.86,0.13-1.01,0.25c-3.78,3.18-8.3,4.75-12.95,6.08c-3.15,0.9-6.38,1.4-9.61,1.35
		c-3.29-0.05-6.59-0.44-9.83-0.98c-2.46-0.4-4.89-1.16-7.27-1.96c-1.35-0.46-2.6-1.28-3.84-2.03c-1.58-0.95-3.17-1.91-4.64-3.01
		c-4.26-3.2-6.99-7.34-7.46-12.77c-0.14-1.59-0.15-1.52-1.67-2.01c-2.34-0.75-4.74-1.42-6.93-2.49c-1.67-0.81-3.21-2.05-4.56-3.35
		c-1.96-1.89-3.13-4.38-4.12-6.87c-0.95-2.38-0.65-4.96-0.42-7.47c0.01-0.14,0.2-0.26,0.44-0.56c0.17,0.6,0.33,1.05,0.42,1.51
		c0.18,0.93,0.33,1.87,0.49,2.81c0.81,4.64,3.25,8.28,6.98,11.06c1.96,1.46,4.33,2.05,6.6,2.84c0.78,0.27,1.61,0.43,2.62,0.7
		c0.17-0.66,0.3-1.23,0.46-1.8c0.95-3.36,2.72-5.97,6.24-7.09c2.67-0.85,5.71,0.04,7.39,2.24c0.54,0.72,0.69,1.5,0.54,2.37
		c-0.45,2.7-2.11,4.44-4.57,5.33c-2.36,0.84-4.8,1.55-7.37,1.46c-0.15-0.01-0.31,0.09-0.56,0.16c-0.09,2.66,0.65,5.06,2.03,7.29
		c1.46,2.37,3.26,4.4,5.72,5.79c2.53,1.43,4.98,3.01,7.57,4.29c3.56,1.75,7.49,2.16,11.37,2.72c7.22,1.04,14-0.63,20.58-3.4
		c0.87-0.37,1.68-0.88,2.51-1.35c0.12-0.07,0.19-0.23,0.45-0.57c-1.68-0.05-3.27,0.22-4.7-0.75c0.4-0.77,1.13-0.76,1.72-0.86
		c2.59-0.46,5.18-0.84,7.78-1.26c1.4-0.22,2.11,0.44,1.9,1.88c-0.26,1.77-0.58,3.53-0.89,5.29c-0.06,0.32-0.15,0.71-0.37,0.91
		c-0.3,0.27-0.77,0.56-1.1,0.5c-0.29-0.05-0.69-0.56-0.71-0.88c-0.05-0.71,0.1-1.43,0.21-2.14
		C418.55,379.03,418.74,378.06,418.97,376.79z M364.45,360.07c0.21,0.04,0.42,0.11,0.63,0.12c2.45,0.12,4.76-0.57,6.98-1.47
		c1.14-0.46,2.02-1.39,2.52-2.57c0.46-1.09,0.33-1.58-0.56-2.35c-1.4-1.21-2.97-1.37-4.7-0.88
		C366.97,353.6,364.56,356.31,364.45,360.07z"/>
	<path class="st13" d="M75.21,257.7c0.07,1.25,0.08,2.53,0.24,3.78c0.16,1.27,0.56,2.51,0.72,3.79c0.15,1.22,1.15,2.3,0.65,3.81
		c-1.01-0.6-1.63-1.36-1.98-2.3c-0.88-2.3-1.67-4.63-1.72-7.14c-0.04-2-0.14-4.01-0.19-6.01c-0.01-0.33,0.06-0.68,0.18-0.99
		c0.21-0.56,0.64-0.79,1.2-0.53c0.45,0.21,0.91,0.45,1.27,0.79c2.56,2.41,5.59,2.53,8.78,1.8c1.25-0.29,2.49-0.66,3.73-0.98
		c0.19-0.05,0.41,0.01,0.84,0.03c-1.26,2.05-2.99,3.12-5.11,3.34c-1.95,0.2-3.94,0.04-6.04,0.04c1.63,1.23,3.24,2.4,5.08,3.18
		c3.19,1.34,6.34,2.86,9.64,3.87c3.24,1,6.63,1.56,9.99,2.12c4.64,0.78,9.34,1.07,14.05,0.71c4.07-0.31,8.14-0.63,11.96-2.29
		c0.35-0.15,0.76-0.32,1.12-0.29c0.4,0.04,0.98,0.2,1.11,0.48c0.21,0.45,0.38,1.1-0.22,1.51c-0.46,0.31-0.91,0.65-1.4,0.89
		c-2.49,1.24-5.19,1.67-7.92,2.02c-6.89,0.89-13.74,0.67-20.55-0.61c-4.9-0.91-9.73-2.12-14.29-4.19c-3.68-1.67-7.13-3.74-10.2-6.39
		c-0.21-0.18-0.44-0.34-0.66-0.5C75.43,257.64,75.36,257.67,75.21,257.7z"/>
	<path class="st13" d="M265.97,402.13c1.1-0.94,2.18-1.89,3.29-2.8c0.42-0.34,0.89-0.75,1.39-0.84c0.39-0.07,0.99,0.18,1.27,0.5
		c0.2,0.23,0.2,0.94,0,1.18c-1.06,1.21-2.17,2.4-3.36,3.48c-1.03,0.94-2.18,1.74-3.31,2.57c-0.45,0.33-0.94,0.63-1.46,0.82
		c-0.91,0.34-1.81,0.22-2.44-0.57c-1.69-2.14-3.71-4.04-4.85-6.6c-0.32-0.72-0.61-1.43-0.29-2.41c2.83,0.93,3.78,3.92,6.29,5.42
		c0.37-2.03,0.75-3.97,1.07-5.92c1.19-7.2,1.62-14.45,1.23-21.74c-0.2-3.68-0.29-7.38-1.22-10.98c-0.32-1.24-0.65-2.49-1.1-3.69
		c-0.95-2.56-1.73-5.17-2.39-8.12c1.27,0.75,1.93,1.71,2.44,2.69c1.85,3.52,3.57,7.13,4.21,11.09c0.46,2.81,0.72,5.67,0.79,8.51
		c0.11,4.36,0.21,8.74-0.1,13.08c-0.31,4.39-1.11,8.75-1.7,13.13c-0.04,0.32-0.08,0.65-0.12,0.97
		C265.74,401.99,265.85,402.06,265.97,402.13z"/>
	<path class="st13" d="M422.88,247.29c-1.58-0.67-3.42,0.01-4.82-1.65c1.23-0.03,2.2-0.03,3.16-0.09c2-0.12,4.01-0.3,6.01-0.4
		c1.49-0.07,1.76,0.34,1.06,1.64c-0.96,1.76-1.99,3.49-3,5.23c-0.08,0.14-0.17,0.33-0.3,0.39c-0.32,0.15-0.75,0.41-0.99,0.3
		c-0.25-0.11-0.55-0.65-0.48-0.91c0.24-0.9,0.63-1.76,1.01-2.75c-0.32,0.08-0.67,0.12-0.98,0.26c-5.32,2.53-10.89,4.33-16.61,5.71
		c-5.6,1.36-11.21,2.61-17.03,2.5c-1.56-0.03-3.13,0.06-4.69,0.1c-2.06,0.04-3.96-0.62-5.85-1.31c-0.19-0.07-0.36-0.23-0.52-0.48
		c7.58,0.62,15.07,0.07,22.44-1.56C408.65,252.66,416,250.98,422.88,247.29z"/>
	<g>
		<g>
			<path class="st13" d="M157.78,149.87c-1.77,1.06-3.4,2.03-4.88,2.92c-1.04-0.37-1.27-1.05-1.34-1.8
				c-0.45-5.35-1.61-10.6-2.46-15.89c-0.16-0.98-0.16-1.98-0.25-3.22c0.73,0.1,1.28,0.1,1.77,0.26c2.5,0.81,5.02,1.58,7.46,2.53
				c3.4,1.32,6.93,2.17,10.46,2.98c1.14,0.26,2.29,0.45,3.27,1.37c-1.2,2.42-3.83,3.36-5.52,5.44c2.19,1.84,4.28,3.68,6.47,5.4
				c3.3,2.59,6.67,5.08,10,7.63c2.97,2.28,5.92,4.58,8.88,6.87c0.22,0.17,0.46,0.32,0.66,0.52c0.69,0.69,0.54,1.42-0.32,1.86
				c-2.93,1.51-5.87,3-8.77,4.57c-1.97,1.06-3.88,2.23-5.81,3.36c-0.38,0.23-0.71,0.53-1.07,0.81c-1.54,1.2-3.07,2.42-4.64,3.58
				c-0.82,0.6-1.44,0.43-1.84-0.51c-0.64-1.49-1.16-3.02-1.77-4.53c-2.65-6.53-5.28-13.06-7.98-19.56
				C159.45,152.92,158.59,151.47,157.78,149.87z M150.73,133.6c0.9,5.75,1.74,11.14,2.6,16.61c1.73-0.53,3.16-2.29,5.24-2.12
				c5.08,9.35,8.68,19.19,12.57,28.92c6.27-3.96,12.33-7.79,18.46-11.67c-0.44-0.42-0.86-0.87-1.33-1.25
				c-2.51-2.05-5.03-4.09-7.55-6.12c-1.57-1.26-3.15-2.51-4.73-3.75c-3.12-2.45-6.24-4.9-9.39-7.31c-1.17-0.89-1.88-2.01-2.22-3.54
				c1.29-1.21,2.62-2.44,4.16-3.89C162.28,138.37,156.64,135.95,150.73,133.6z"/>
			<path class="st13" d="M145.93,151.91c0.21,2.85,2.86,3.72,4.33,5.62c-2.24,0.04-4.65-1.59-5.11-3.42
				C144.94,153.31,145.07,152.57,145.93,151.91z"/>
			<path class="st13" d="M176.87,140.77c-0.29-1.25-0.3-2.42-0.83-3.24c-0.52-0.8-1.57-1.25-2.63-2.03
				c1.81-0.25,3.04,0.19,3.92,1.39C177.98,137.76,177.78,139.52,176.87,140.77z"/>
			<path class="st13" d="M180.91,139.81c-0.28-0.94-0.44-1.95-0.87-2.81c-0.41-0.81-1.1-1.47-1.71-2.24
				c1.25-0.52,2.17,0.12,2.8,1.03c0.89,1.27,0.88,2.67,0.25,4.03C181.22,139.81,181.06,139.81,180.91,139.81z"/>
			<path class="st13" d="M143.47,154.63c0.85,2.44,2.63,3.6,4.5,4.7c-1.13,0.57-2.12,0.33-3.4-0.75
				C143.24,157.47,142.88,156.42,143.47,154.63z"/>
		</g>
	</g>
	<g>
		<g>
			<path class="st13" d="M188.6,307.65c-2.35-0.24-4.51-0.43-6.66-0.68c-1.5-0.17-2.98-0.08-4.48-0.04c-2.6,0.08-5.21-0.4-7.81-0.47
				c-1.49-0.04-2.98,0.32-4.48,0.39c-1.9,0.09-3.82,0.29-5.69,0.05c-2.61-0.34-4.22-2.36-5.85-4.21c-0.63-0.71-1.21-1.46-1.78-2.22
				c-0.53-0.71-0.96-1.5-1.5-2.19c-1.2-1.51-1.9-3.4-3.54-4.59c-0.39-0.29-0.71-0.72-0.99-1.13c-1.41-2.09-2.47-4.35-3.26-6.76
				c-0.6-1.85-1.47-3.61-2.22-5.41c-0.23-0.56-0.63-0.86-1.24-1c-1.14-0.27-1.99-0.98-2.66-1.93c-2.37-3.35-3.5-7.01-2.49-11.1
				c0.68-2.77,1.52-5.49,2.26-8.24c0.98-3.66,2.13-7.24,2.2-11.13c0.07-4.64,1.52-9.02,3.96-13.03c1.75-2.87,3.27-5.85,4.37-9.02
				c0.31-0.89,0.44-1.85,0.61-2.78c0.81-4.38,3.38-7.61,6.82-10.22c1.11-0.84,2.38-1.46,3.56-2.22c1.55-0.99,3.19-1.9,4.6-3.07
				c1.19-0.99,2.17-2.25,3.13-3.48c1.47-1.9,3.44-3.11,5.44-4.35c2.22-1.38,4.6-2.65,6.45-4.44c1.77-1.71,3.82-2.69,5.96-3.6
				c1.12-0.48,2.32-0.86,3.52-1.02c2.96-0.4,5.47-1.77,7.55-3.73c1.76-1.65,3.7-2.87,5.86-3.81c3.23-1.4,6.41-2.98,9.99-3.32
				c1.61-0.15,3.23-0.21,4.85-0.2c2.92,0.03,5.82-0.06,8.67-0.76c3.2-0.78,6.41-1.56,9.59-2.42c2.31-0.62,4.65-0.67,6.99-0.44
				c0.79,0.08,1.65,0.44,2.27,0.93c2.88,2.27,6.04,2.33,9.39,1.43c0.76-0.21,1.31-0.6,1.68-1.27c0.74-1.31,1.91-1.71,3.35-1.84
				c3.36-0.32,6.67-0.1,10,0.4c3.01,0.45,6.05,0.67,9.07,1c0.5,0.05,1.03,0.07,1.48,0.26c3,1.26,6.24,1.2,9.38,1.7
				c1.71,0.27,3.45,0.36,5.16,0.63c0.75,0.12,1.56,0.34,2.19,0.76c3.57,2.37,7.42,4.07,11.46,5.5c2.51,0.89,4.54,2.72,5.46,5.37
				c0.45,1.31,1.26,1.89,2.53,2.07c2.22,0.31,4.34,0.96,6.43,1.8c2.33,0.93,4.8,1.5,7.12,2.43c1.79,0.71,3.57,1.5,4.71,3.3
				c0.78,1.23,2,2.06,3.44,2.55c3.22,1.1,6.09,2.77,8.24,5.49c0.41,0.51,0.73,1.13,0.95,1.76c0.81,2.31,2.27,4.03,4.31,5.4
				c1.43,0.95,2.7,2.16,3.98,3.32c1.3,1.17,1.99,2.74,2.27,4.4c0.42,2.45,1.67,4.32,3.4,5.99c1.98,1.9,3.8,3.96,5.84,5.79
				c2.74,2.45,4.06,5.5,3.84,9.05c-0.23,3.53,1.01,6.45,2.87,9.25c0.8,1.21,1.52,2.49,2.42,3.63c2.25,2.86,2.75,6.28,3.24,9.7
				c0.28,1.98,0.49,3.99,0.59,5.99c0.05,1.1-0.17,2.22-0.28,3.33c-0.25,2.5-0.48,5-0.76,7.5c-0.16,1.44-0.63,2.88-0.57,4.3
				c0.11,2.56,0.37,5.13,0.84,7.64c0.55,2.95,0.73,5.9,0.26,8.83c-0.31,1.92-1.19,3.71-2.34,5.33c-1.27,1.77-2.72,3.46-3.67,5.39
				c-0.95,1.92-2.5,3-4.17,4c-1.68,1.01-3.45,1.78-5.46,2c-2.38,0.26-4.74,0.71-7.1,1.13c-1.81,0.32-3.02,1.24-3.82,3.06
				c-0.98,2.23-2.03,4.43-2.92,6.71c-0.16,0.41-0.38,0.83-0.67,1.15c-1.19,1.34-2.4,2.64-3.62,3.95c-0.76,0.82-1.57,1.59-2.31,2.43
				c-1.1,1.26-2.51,2.05-4,2.71c-3.83,1.7-7.71,3.27-11.78,4.34c-1.83,0.48-3.55,1.33-5.36,1.88c-2.71,0.83-5.43,1.69-8.21,2.26
				c-1.68,0.35-2.57,1.51-3.45,2.64c-2.24,2.87-5.22,3.91-8.74,2.84c-0.16-0.05-0.32-0.16-0.47-0.16c-3.85-0.05-6.5-2.42-9.09-4.81
				c-1.34-1.23-2.81-2.44-3.19-4.41c-0.12-0.63-0.68-0.7-1.18-0.73c-2.39-0.1-4.79-0.27-7.18-0.24c-2.21,0.03-4.06-0.85-5.7-2.12
				c-1.2-0.92-1.72-2.22-1.35-3.88c0.3-1.33,0.56-2.74-0.25-4.06c-0.42-0.69-0.89-1.06-1.77-0.85c-1.08,0.26-2.21,0.36-3.3,0.59
				c-2.36,0.51-4.11,1.89-5.48,3.86c-1.24,1.78-2.41,3.7-4.54,4.57c-1.07,0.43-2.22,0.83-3.35,0.92c-2.11,0.15-4.25,0.13-6.37,0.03
				c-1.58-0.08-3,0.28-4.32,1.06c-2.03,1.21-4.24,1.67-6.57,1.67c-2.52,0-5.04-0.01-7.56,0c-3.8,0-7.57-0.37-11.29-1.16
				c-0.32-0.07-0.66-0.15-0.96-0.29c-2-0.96-4-1.95-6-2.92c-0.25-0.12-0.5-0.3-0.77-0.33c-2.28-0.25-3.96-1.73-5.81-2.86
				c-0.51-0.32-1-0.75-1.36-1.23c-1.33-1.8-3.11-3.07-5.03-4.11c-1.96-1.06-2.68-2.68-2.74-4.81c-0.05-1.5-0.14-3.03-0.51-4.47
				c-0.48-1.89-1.76-3.39-3.25-4.59c-3.19-2.57-3.67-6.12-2.17-10.01C187.99,309.19,188.27,308.48,188.6,307.65z M215.48,180.38
				c-2.58-0.17-5.1,0.04-7.65,0.63c-3.72,0.87-6.87,2.91-10.19,4.6c-0.24,0.12-0.44,0.35-0.66,0.52c-1.22,0.98-2.39,2.02-3.67,2.91
				c-3.2,2.23-6.68,3.8-10.63,4.09c-1.26,0.09-2.29,0.56-3.1,1.46c-1.96,2.15-4.43,3.52-6.94,4.9c-2.39,1.32-4.68,2.77-6.13,5.31
				c-0.79,1.38-1.95,2.62-3.18,3.64c-1.54,1.27-3.33,2.25-5.02,3.34c-0.99,0.63-2.07,1.14-2.99,1.86c-3.16,2.49-5.49,5.47-6.1,9.66
				c-0.41,2.81-1.36,5.52-3.11,7.86c-0.3,0.4-0.56,0.84-0.76,1.3c-1.27,2.96-3.08,5.64-3.84,8.89c-0.44,1.9-1,3.77-1.09,5.71
				c-0.19,4-1.17,7.83-2.25,11.65c-0.73,2.58-1.47,5.16-2.16,7.75c-0.91,3.41-0.15,6.52,1.77,9.41c0.58,0.87,1.25,1.55,2.35,1.73
				c1.1,0.18,1.5,1.04,1.77,1.99c0.13,0.45,0.22,0.92,0.4,1.35c0.34,0.82,0.76,1.62,1.09,2.45c0.75,1.86,1.36,3.79,2.21,5.6
				c1.82,3.88,4.69,6.57,9.02,7.52c0.89,0.2,1.73,0.73,2.55,1.18c1.12,0.62,2.13,1.66,3.31,1.91c2.66,0.57,5.41,1.09,8.11,1.03
				c2.57-0.06,5.12,0.1,7.67,0.08c2.62-0.02,5.24-0.16,7.85-0.39c1.27-0.11,2.49-0.63,3.75-0.84c1.76-0.29,3.46-0.09,4.91,1.13
				c0.56,0.47,1.01,1.15,0.6,1.72c-1,1.38-1.47,2.98-2.19,4.48c-0.55,1.15-1.28,2.22-1.78,3.38c-1.66,3.85-0.91,6.52,1.9,8.84
				c2.07,1.7,3.46,3.96,3.86,6.69c0.17,1.16,0.11,2.34,0.15,3.52c0.04,1.4,0.59,2.46,1.89,3.11c2.6,1.31,5.14,2.73,7.79,3.93
				c1.62,0.73,3.37,1.16,5.09,1.66c2.38,0.69,5.01,0.33,7.25,1.66c0.14,0.08,0.33,0.07,0.49,0.1c1.98,0.34,3.96,0.67,5.94,1.02
				c1.69,0.29,3.37,0.7,5.08,0.87c3,0.3,5.93,0.16,8.35-2.07c0.47-0.43,1.15-0.71,1.78-0.88c1.18-0.31,2.4-0.51,3.61-0.7
				c1.88-0.3,3.75-0.6,5.64-0.81c2.47-0.28,4.48-1.17,5.72-3.51c0.47-0.9,1.35-1.32,2.5-1.38c2.45-0.13,4.89-0.4,6.89-2.12
				c0.58-0.5,1.37-0.76,2.02-1.19c1.1-0.73,2.45-1.14,3.14-2.43c0.1-0.19,0.48-0.21,0.71-0.34c1.55-0.85,3.02-0.27,4.51,0.21
				c1.11,0.36,2.23,0.78,3.38,0.93c2.68,0.37,5.32-0.23,7.99-0.5c3.85-0.39,6.93-2.22,9.92-4.47c2.07-1.56,4.48-2.44,7.15-2.53
				c1.78-0.06,3.56-0.28,5.32-0.54c1.26-0.19,2.5-0.58,3.75-0.82c0.35-0.07,0.77-0.04,1.09,0.09c2.38,0.97,4.79,1.66,7.35,2.14
				c4.68,0.88,9.26,0.39,13.83-0.34c2.69-0.43,5.3-1.36,7.97-1.92c1.74-0.36,3.54-0.68,5.3-0.64c2.36,0.05,4.5-0.08,6.71-1.28
				c3.8-2.06,7.34-4.28,9.61-8.09c0.39-0.66,1-1.23,0.71-2.13c-0.04-0.13,0.12-0.35,0.23-0.5c0.25-0.32,0.61-0.57,0.78-0.92
				c1.61-3.16,2.08-6.6,2.28-10.07c0.14-2.51-0.04-5.04,0-7.55c0.02-0.94,0.03-1.98,0.43-2.78c1.73-3.52,1.38-7.3,1.62-11.01
				c0.01-0.21-0.12-0.42-0.16-0.64c-0.16-0.87-0.33-1.73-0.44-2.6c-0.08-0.64,0.01-1.31-0.09-1.94c-0.64-3.8-2.29-7.24-3.84-10.71
				c-0.68-1.52-1.63-2.92-2.4-4.4c-0.27-0.52-0.49-1.13-0.54-1.71c-0.15-1.67-0.13-3.35-0.29-5.01c-0.19-1.91-0.77-3.64-1.86-5.3
				c-2.18-3.32-4.9-6.09-7.89-8.65c-0.81-0.69-1.51-1.54-2.39-2.1c-1.09-0.69-1.71-1.5-1.92-2.8c-0.6-3.68-2.08-6.96-4.87-9.51
				c-1.15-1.05-2.39-2-3.63-2.96c-0.93-0.71-1.77-1.58-1.48-2.76c0.2-0.81,0.02-1.33-0.44-1.79c-0.94-0.95-1.91-1.89-2.96-2.7
				c-2.5-1.92-5.17-3.53-8.17-4.55c-1.1-0.37-1.82-1.16-1.89-2.33c-0.05-0.86-0.45-1.47-1.02-2.04c-0.75-0.75-1.59-1.43-2.23-2.26
				c-1.25-1.64-2.91-2.33-4.88-2.55c-1-0.11-1.98-0.36-2.97-0.54c-1.51-0.27-2.5-1.08-2.98-2.59c-0.83-2.61-2.78-4.16-5.26-5
				c-3.79-1.27-7.37-2.94-10.69-5.18c-0.41-0.28-0.87-0.58-1.34-0.68c-1.75-0.34-3.51-0.73-5.28-0.87
				c-3.51-0.28-7.05-0.34-10.38-1.69c-0.45-0.18-0.99-0.18-1.49-0.17c-2.84,0.09-5.56-0.46-8.25-1.32c-0.53-0.17-1.09-0.28-1.64-0.3
				c-1.61-0.05-3.23-0.04-4.84-0.06c-1.43-0.02-2.86,0.08-3.96,1.07c-1.77,1.61-3.81,2.35-6.17,2.71c-3.26,0.49-6.09-0.06-8.55-2.33
				c-0.42-0.39-1.06-0.76-1.6-0.77c-1.84-0.04-3.72-0.13-5.51,0.21c-2.79,0.53-5.58,1.24-8.27,2.17
				C222.92,179.97,219.27,180.55,215.48,180.38z M273.01,340.21c0.85,1.59,2.72,2.73,4.43,2.8c2.22,0.09,4.44-0.03,6.68,0.24
				c2.54,0.3,5.13,0.18,7.68,0.49c2.43,0.29,4.82,0.9,7.23,1.33c1.42,0.26,2.85,0.54,4.29,0.66c2.89,0.24,5.71-0.36,8.38-1.33
				c4.04-1.47,8-3.15,11.97-4.79c1.7-0.71,3.34-1.55,4.99-2.36c0.39-0.19,0.72-0.51,1.31-0.93c-1.78-0.1-3.24,0.19-4.87-0.67
				c2.09-0.4,3.88-0.83,5.7-1.07c3.3-0.43,5.1-2.63,6.75-5.46c-3.23,0.71-6.26,1.01-9.33,0.52c0.55-0.33,1.12-0.55,1.71-0.67
				c2.68-0.54,5.38-1.03,8.06-1.57c0.4-0.08,0.91-0.27,1.1-0.57c0.42-0.67,0.67-1.45,1.03-2.28c-5.23,1.31-7.56,1.35-9.93,0.08
				c1-0.19,1.79-0.36,2.59-0.5c2.09-0.38,4.17-0.78,6.26-1.11c1.8-0.29,2.49-1.55,3.05-3.22c-0.38,0.07-0.59,0.1-0.79,0.16
				c-2.31,0.63-4.6,1.4-6.94,1.88c-2.18,0.44-4.42,0.63-6.64,0.84c-5.02,0.46-9.92-0.17-14.64-1.97c-1.2-0.46-2.45-0.63-3.62-0.2
				c-2.48,0.91-5.04,0.87-7.61,1.02c-2.22,0.13-4.31,0.9-5.98,2.35c-1.86,1.61-4.06,2.56-6.18,3.67c-0.68,0.35-1.48,0.5-2.25,0.64
				c-1.48,0.27-2.98,0.48-4.47,0.69c-3.25,0.45-6.46,0.56-9.51-1.02c-0.64-0.33-1.35-0.56-2.06-0.68c-1.68-0.27-2.64,0.93-2.06,2.51
				c0.21,0.56,0.51,1.08,0.69,1.45c3.77,0.56,7.37,0.39,10.9,0.99c-3,1.56-6.12,1.2-9.31,0.58c0.91,2.24,2.28,3.29,4.59,2.72
				c0.48-0.12,1-0.09,1.5-0.07c0.67,0.03,1.31,0.18,2.21,0.62c-1.39,0.33-2.41,0.67-3.45,0.78c-1.08,0.12-2.18,0.03-3.43,0.03
				c0.09,0.74,0.16,1.38,0.23,1.95c1.99,0.97,4.24,0.11,6.31,1.44C277.31,340.6,275.36,341.25,273.01,340.21z M302.65,347.79
				c-4.92-0.85-9.64-2.72-15.06-2.28c0.55,0.75,0.85,1.28,1.27,1.69c0.92,0.9,1.9,1.74,2.86,2.6c1.38,1.24,2.95,2.19,4.65,2.96
				c0.95,0.43,1.66,0.35,2.44-0.34C300.32,351.09,301.64,349.61,302.65,347.79z M374.95,304.55c-2.63-0.75-5-1.44-7.42-2.13
				c-0.44,1.17-0.86,2.3-1.32,3.55c2.24,0.89,4.33,1.73,6.62,2.65C373.58,307.18,374.23,305.93,374.95,304.55z M375.09,278.63
				c0.21-2.32,0.41-4.55,0.63-6.88c-1.75,0.39-3.27,0.72-4.94,1.09c0,2.05,0,4.04,0,6.14C372.23,278.87,373.65,278.75,375.09,278.63
				z M368.8,291.2c1.97,0.13,3.71,0.25,5.57,0.37c-0.13-1.99-0.25-3.74-0.37-5.41c-1.77-0.12-3.45-0.22-5.2-0.34
				C368.8,287.68,368.8,289.38,368.8,291.2z M375.36,297.86c-1.18,0.96-2.3,0.54-3.44,0.27c-1.11-0.27-2.23-0.49-3.41-0.74
				c-0.18,1.26-0.35,2.4-0.54,3.69c2.5,0.42,4.86,0.82,7.39,1.24C375.36,300.79,375.36,299.48,375.36,297.86z M369.18,313.72
				c0.81-1.29,1.54-2.45,2.27-3.59c-2.03-1-3.89-1.92-5.79-2.85c-0.68,1.08-1.35,2.16-2.14,3.42
				C365.38,311.69,367.17,312.65,369.18,313.72z M160.86,305.19c-0.83-1.54-1.63-3.05-2.44-4.55c-0.05-0.1-0.12-0.19-0.2-0.26
				c-1.92-1.49-3.91-2.83-6.49-2.8c0.01,0.11-0.02,0.25,0.04,0.33c1.89,2.47,3.78,4.95,6.39,6.73
				C158.9,305.15,159.82,305.53,160.86,305.19z M362.9,245.13c0.41,2.18-0.29,4.25,0.36,6.31c1.59-0.34,3.09-0.67,4.47-0.97
				c-0.44-2.07-0.88-4.15-1.34-6.35C365.33,244.42,364.22,244.74,362.9,245.13z M375.21,265.36c-1.98,0.55-3.67,1.02-5.39,1.49
				c0.33,1.45,0.63,2.79,0.94,4.15c1.63-0.26,3.13-0.5,4.8-0.77C375.44,268.61,375.33,267.07,375.21,265.36z M354.01,225.32
				c-1.43,0.77-2.87,1.56-4.56,2.47c0.91,0.97,1.7,1.88,2.57,2.7c0.22,0.21,0.73,0.32,1.04,0.23c1.35-0.4,2.68-0.89,4.03-1.36
				C356.06,228.02,355.06,226.71,354.01,225.32z M368.24,261.65c0.41,1.16,0.82,2.3,1.27,3.55c1.82-0.47,3.53-0.92,5.36-1.39
				c-0.39-1.43-0.76-2.8-1.13-4.14C371.85,260.35,370.13,260.97,368.24,261.65z M360.52,239.56c1.76-0.33,3.46-0.49,5.02-1.46
				c-1.05-1.61-2.2-2.92-3.64-3.93c-1.21,0.86-2.33,1.65-3.5,2.48C359.13,237.64,359.78,238.54,360.52,239.56z M362.78,312.01
				c-0.79,0.71-1.6,1.42-2.35,2.09c1.31,1.23,2.52,2.36,3.69,3.46c2.24-0.89,2.6-1.11,3.74-2.37
				C366.13,314.1,364.39,313.02,362.78,312.01z M340.17,328.67c1.41,1.5,2.66,2.83,4.1,4.36c0.77-1.16,1.42-2.14,2.03-3.07
				c-1.68-1.56-3.17-2.94-4.77-4.42C341.05,326.65,340.61,327.66,340.17,328.67z M160.04,301.34c0.86,1.57,1.85,2.68,2.92,3.73
				c0.17,0.17,0.52,0.26,0.77,0.23c1.59-0.16,3.17-0.37,4.91-0.58c-0.36-0.9-0.63-1.56-0.92-2.31
				C165.24,302.06,162.79,301.72,160.04,301.34z M347.89,223.01c0.36,1.09,0.71,2.17,1.08,3.3c1.69-0.8,3.24-1.53,4.96-2.33
				c-0.52-1.2-0.25-2.69-1.39-3.73C350.94,221.2,349.46,222.08,347.89,223.01z M343.69,320.22c-0.47,1.1-0.85,1.85-1.09,2.63
				c-0.12,0.38-0.13,1,0.1,1.23c1.39,1.4,2.86,2.71,4.33,4.07c1.21-1.91,1.2-1.9,0.06-3.52c-0.77-1.09-1.5-2.21-2.28-3.3
				C344.56,321.01,344.22,320.75,343.69,320.22z M359.27,314.96c-1.76,0.93-3.37,1.78-5.06,2.67c0.45,0.56,0.89,1.12,1.35,1.7
				c2.23-0.34,4.38-0.66,6.8-1.03C361.19,317.04,360.25,316.02,359.27,314.96z M352.03,219.15c-1.46-1.17-2.69-2.16-3.88-3.12
				c-0.98,0.9-1.84,1.69-2.79,2.56c0.63,1.03,1.28,2.08,1.91,3.09C348.86,220.84,350.27,220.09,352.03,219.15z M368.76,295.79
				c2.16,0.36,4.22,0.7,6.53,1.08c-0.22-1.32-0.42-2.43-0.59-3.45c-2.07-0.14-3.95-0.27-5.94-0.41
				C368.76,293.91,368.76,294.78,368.76,295.79z M357.18,235.24c1.41-0.63,2.66-1.19,4.12-1.83c-1.03-1.06-1.98-2.03-2.91-2.98
				c-1.56,0.6-2.94,1.14-4.49,1.74C355.06,233.26,356.08,234.21,357.18,235.24z M336.99,332.94c1.33,1.27,2.48,2.36,3.8,3.62
				c0.8-0.84,1.48-1.54,2.14-2.23c-1.26-1.54-2.41-2.94-3.65-4.46C338.48,330.93,337.76,331.91,336.99,332.94z M256.11,340.63
				c-0.89-1.28-1.7-2.46-2.48-3.6c-1.19,0.52-2.38,1.05-3.64,1.6c0.88,1.3,1.68,2.48,2.43,3.61
				C254.56,341.87,254.72,341.8,256.11,340.63z M332.65,336.64c1.21,1.15,2.22,2.09,3.26,3.08c1.12-0.58,2.12-1.11,3.16-1.65
				c-1.17-1.37-2.2-2.57-3.31-3.87C334.75,334.99,333.81,335.73,332.65,336.64z M257.53,339.33c0.87-1.26,1.55-2.24,2.23-3.22
				c-0.63-0.88-1.2-1.69-1.81-2.55c-0.76,0.04-1.53,0.07-2.32,0.11c-0.43,0.69-0.83,1.35-1.22,2
				C255.43,336.87,256.36,337.96,257.53,339.33z M369.56,284.11c1.64,0.21,3.16,0.41,4.8,0.62c0.21-1.47,0.41-2.81,0.61-4.23
				c-1.67,0.17-3.09,0.31-4.62,0.47C370.1,281.98,369.85,282.99,369.56,284.11z M364.19,252.8c0.58,1.12,1.1,2.12,1.69,3.25
				c1.59-0.4,3.07-0.77,4.73-1.18c-0.74-1.2-1.37-2.22-2.05-3.33C367.16,251.94,365.79,252.34,364.19,252.8z M221.7,344.66
				c-0.38-0.87-0.61-1.55-0.96-2.17c-0.17-0.3-0.53-0.61-0.86-0.7c-1.86-0.48-3.73-0.88-5.89-1.38c0.82,1.24,1.3,2.6,2.25,3.24
				C217.72,344.64,219.59,344.78,221.7,344.66z M182.74,302.36c-2.09,0-4.07,0-6.08,0c0.55,2.13,1.16,2.63,2.9,2.64
				c0.56,0,1.11,0.11,1.67,0.16c0.65,0.06,1.3,0.1,2.12,0.16C183.11,304.19,182.92,303.28,182.74,302.36z M201.96,336.82
				c1.35,1.79,3.23,2.79,5.23,3.55c2.03,0.77,4.11,1.42,6.27,2.15c-0.55-2.09-1.75-2.96-3.68-3.01c-0.7-0.02-1.42-0.29-2.1-0.53
				C205.77,338.29,203.87,337.55,201.96,336.82z M189.34,305.64c-0.79-1.43-1.55-2.82-2.41-4.37c-0.92,0.26-1.9,0.53-3.14,0.88
				c0.72,1.28,1.1,2.68,2.01,3.34C186.66,306.1,188.08,306.26,189.34,305.64z M366.7,242.98c-0.37-1.21,0.11-2.51-0.81-3.47
				c-1.55,0.41-3.02,0.79-4.54,1.19c0.48,0.99,0.95,1.97,1.45,2.99C364.11,243.45,365.35,243.22,366.7,242.98z M174.71,302.15
				c-1.72,0.28-3.46-0.34-5.3,0.15c0.39,0.79,0.64,1.41,0.99,1.97c0.19,0.3,0.54,0.67,0.84,0.69c1.51,0.1,3.03,0.14,4.65-0.05
				C175.46,303.93,175.14,303.17,174.71,302.15z M330.2,199.7c-1.99-1.81-4.47-2.3-6.87-3.08c0.99,1.42,2.24,2.61,2.42,4.45
				c0.06,0.61,0.68,0.53,1.2,0.24C327.91,200.79,328.91,200.33,330.2,199.7z M371.42,255.83c-0.95,0.47-1.68,0.9-2.46,1.21
				c-0.75,0.29-1.55,0.46-2.45,0.71c0.36,0.77,0.64,1.35,0.99,2.09c1.83-0.56,3.55-1.09,5.41-1.66
				C372.36,257.31,371.92,256.62,371.42,255.83z M260.94,334.67c1.98-0.82,3.76-1.55,5.56-2.29c-0.31-0.7-0.61-1.39-0.94-2.12
				c-1.96,0.99-3.79,1.9-5.66,2.84C260.27,333.65,260.64,334.21,260.94,334.67z M331.62,337.47c-0.57,0.36-1.08,0.7-1.6,1.01
				c-0.55,0.33-1.11,0.64-1.69,0.97c2.59,2.88,2.77,2.68,5.38,1.04C333.05,339.54,332.39,338.59,331.62,337.47z M345.75,319.13
				c-0.03,0.13-0.05,0.25-0.08,0.38c1.25,0.56,2.49,1.15,3.76,1.66c0.32,0.13,0.8,0.13,1.1-0.02c1.09-0.52,2.13-1.12,3.3-1.75
				c-0.23-0.33-0.5-0.71-0.81-1.14C350.67,319.66,348.16,318.97,345.75,319.13z M244.76,341.89c-0.53-0.93-0.94-1.64-1.42-2.48
				c-1.27,0.23-2.5,0.46-3.88,0.72c0.36,0.64,0.62,1.12,0.88,1.6c0.26,0.47,0.51,0.95,0.78,1.45
				C242.37,342.73,243.47,342.35,244.76,341.89z M339.3,211.48c-0.04,0.23-0.09,0.39-0.09,0.55c0.06,1.67,0.77,2.14,2.21,1.38
				c0.87-0.46,1.67-1.03,2.53-1.57c-0.33-0.82-0.62-1.52-0.91-2.24C341.76,210.25,340.59,210.84,339.3,211.48z M333.86,203.39
				c-0.68-0.57-1.45-1.06-2.01-1.72c-0.87-1.04-1.83-0.86-2.86-0.46c-0.44,0.18-0.83,0.48-1.41,0.81c1.11,0.57,2.14,0.93,2.96,1.56
				C331.76,204.51,332.77,204.32,333.86,203.39z M245.19,339.27c1.72,3.37,1.88,3.46,4.74,2.73c-0.52-1.05-1.04-2.08-1.61-3.22
				C247.28,338.95,246.26,339.11,245.19,339.27z M228.09,345.02c-0.41-1.91-0.41-1.9-2-2.16c-0.77-0.13-1.53-0.35-2.3-0.48
				c-0.41-0.07-0.83-0.01-1.28-0.01c1.13,2.69,1.13,2.69,3.8,2.65C226.86,345.01,227.41,345.02,228.09,345.02z M239.66,344.17
				c-0.45-1.19-0.86-2.29-1.28-3.43c-1.04,0.68-1.91,1.25-2.87,1.88c0.34,0.81,0.65,1.55,0.96,2.29
				C237.61,344.65,238.58,344.42,239.66,344.17z M342.25,214.69c0.58,0.81,1.19,1.65,1.81,2.5c0.91-0.78,1.66-1.42,2.45-2.1
				c-0.62-0.71-1.23-1.41-1.89-2.16C343.7,213.63,342.82,214.27,342.25,214.69z M339.15,205.65c-1.86-1.5-3.63-1.68-5.46-0.26
				C336.64,207.83,336.31,207.84,339.15,205.65z M323.13,341.7c2.46,2.4,2.51,2.41,4.99,0.91c-0.56-0.74-1.11-1.46-1.73-2.27
				C325.32,340.79,324.31,341.21,323.13,341.7z M230.03,345.01c1.55-0.12,3.06,0.19,4.67-0.23c-0.26-0.68-0.47-1.22-0.65-1.7
				c-1.63,0.12-3.08,0.23-4.66,0.34C229.64,344.03,229.82,344.48,230.03,345.01z M312.37,346.17c-1.64,0.4-3.23,0.79-5.2,1.26
				c0.73,0.56,1.22,1.25,1.62,1.19c1.5-0.19,2.97-0.63,4.59-1C312.98,347.04,312.71,346.64,312.37,346.17z M338.71,209.96
				c1.19-0.49,2.3-0.95,3.57-1.47c-0.68-0.75-1.22-1.35-1.73-1.92c-1.08,0.73-2.02,1.36-3.04,2.06
				C337.91,209.08,338.31,209.52,338.71,209.96z M306.43,351.42c0.42-0.53,0.75-0.94,1.13-1.41c-1.04-0.94-1.18-2.94-3.23-2.26
				c-0.49,0.81-0.39,1.46,0.35,2.04C305.24,350.24,305.73,350.77,306.43,351.42z M317.15,344.29c-1.09,0.46-2.14,0.9-3.35,1.41
				c0.45,0.53,0.78,0.93,1.13,1.34c1.24-0.31,2.39-0.59,3.71-0.91C318.05,345.39,317.64,344.89,317.15,344.29z M320.42,345.5
				c0.83-0.34,1.61-0.65,2.56-1.04c-0.62-0.68-1.13-1.24-1.65-1.82c-0.85,0.35-1.6,0.66-2.46,1.01
				C319.45,344.35,319.9,344.89,320.42,345.5z M301.88,352.13c0.53,0.63,0.98,1.16,1.48,1.75c0.66-0.41,1.19-0.74,1.83-1.14
				c-0.77-0.8-1.39-1.46-2.07-2.17C302.67,351.14,302.33,351.56,301.88,352.13z M188.63,301.1c0.84,0.84,1.46,1.45,2.34,2.33
				c0.15-0.83,0.46-1.42,0.28-1.69C190.73,301.01,189.89,300.93,188.63,301.1z M266.61,329.7c0.63,0.97,1.16,1.78,1.69,2.59
				c0.12-0.06,0.24-0.12,0.36-0.18c-0.36-0.95-0.71-1.91-1.1-2.94C267.21,329.37,266.97,329.5,266.61,329.7z M348.73,324.16
				c0.23-0.56,0.36-0.85,0.55-1.31c-0.57-0.17-1.05-0.32-1.53-0.47c-0.05,0.08-0.09,0.16-0.14,0.24
				C347.91,323.05,348.23,323.48,348.73,324.16z M300.14,353.7c0.06,0.14,0.12,0.28,0.18,0.42c0.45-0.03,0.89-0.06,1.61-0.1
				c-0.43-0.46-0.67-0.71-0.79-0.84C300.73,353.39,300.44,353.54,300.14,353.7z"/>
			<path class="st13" d="M158.2,198.57c-2.18,1.73-4.2,3.12-5.97,4.79c-1.76,1.66-3.27,3.58-5.02,5.52
				c-0.42-1.53-0.06-2.84,0.81-3.91c1.02-1.24,2.22-2.33,3.39-3.44c0.44-0.42,1.02-0.68,1.49-1.07
				C154.32,199.29,155.9,198.57,158.2,198.57z"/>
			<g>
				<path class="st13" d="M389.03,313.22c1.66,1.51,1.97,3.31,1.35,5.12c-1.04,3.07-3.29,5.03-6.68,6.32
					c0.36-0.87,0.53-1.44,0.8-1.95c0.42-0.79,0.86-1.57,1.37-2.3c1.31-1.84,2.2-3.85,2.66-6.07
					C388.6,313.99,388.82,313.67,389.03,313.22z"/>
				<path class="st13" d="M383.64,310.91c0.65,0.7,1.83,0.9,1.95,2.05c0.08,0.8,0.09,1.7-0.18,2.43c-1,2.71-2.75,4.81-5.47,5.98
					c-0.19,0.08-0.41,0.07-0.79,0.12c0.27-1.19,0.93-1.97,1.57-2.77c0.73-0.91,1.46-1.83,2.14-2.77c0.88-1.24,1.31-2.57,0.67-4.07
					c-0.1-0.24-0.12-0.52-0.18-0.78C383.45,311.04,383.55,310.97,383.64,310.91z"/>
			</g>
			<path class="st13" d="M185.78,328.32c0.06,0.09,0.16,0.17,0.17,0.26c0.09,2.74,2.06,4.45,3.55,6.41c0.56,0.74,1.18,1.43,2,2.41
				c-1.96-0.1-3.21-0.85-4.2-2.01c-0.86-1.01-1.61-2.13-2.35-3.24C184.22,331.05,184.6,329.45,185.78,328.32z"/>
			<path class="st13" d="M150.97,197.97c-1.26,1.33-2.57,2.63-3.78,4.01c-1.16,1.31-2.22,2.7-3.38,4.12
				c-0.34-0.85-0.23-1.61,0.14-2.3C145.49,200.93,148.01,199.18,150.97,197.97z"/>
			<path class="st13" d="M181.37,331.83c1.64,2.16,3.22,4.22,4.81,6.31C183.37,337.76,180.93,334.56,181.37,331.83z"/>
			<path class="st13" d="M146.99,236.1c0.75-0.96,1.39-1.94,2.18-2.78c1.84-1.95,3.21-4.09,3.57-6.84c0.23-1.76,0.71-2.45,1.65-3.31
				c0.07,0.06,0.22,0.14,0.21,0.18c-0.72,2.79-0.14,5.78-1.44,8.49c-0.89,1.86-2.27,3.3-3.67,4.73
				C148.62,237.47,148.06,237.34,146.99,236.1z"/>
			<path class="st13" d="M362.78,278.35c-0.82-0.42-0.5-1.03-0.44-1.54c0.19-1.44,0.46-2.86,0.62-4.3c0.25-2.32-0.25-4.55-0.9-6.75
				c-0.11-0.38-0.14-0.77-0.24-1.36C365.83,267.03,366.32,275.9,362.78,278.35z"/>
			<path class="st13" d="M360.49,268.07c1.16,1.35,1.33,2.98,1.14,4.67c-0.32,2.85-1.1,4.73-2.24,5.55
				c-0.66-0.47-0.53-1.21-0.46-1.81c0.23-2.05,0.56-4.09,0.85-6.13c0.11-0.75,0.21-1.49,0.31-2.24
				C360.22,268.1,360.35,268.08,360.49,268.07z"/>
			<path class="st13" d="M244.1,334.05c1.63-0.39,3.2-0.76,4.76-1.14c1.5-0.36,2.69-1.61,4.33-1.57c0.41,0.74,0.1,1.23-0.41,1.65
				c-2.14,1.77-4.58,2.52-7.34,2.11C244.89,335.03,244.24,334.89,244.1,334.05z"/>
			<path class="st13" d="M153.67,235.73c0.54-2.56,1.88-4.79,2.94-7.29C157.66,230.73,156.18,234.46,153.67,235.73z"/>
			<path class="st13" d="M244.8,331.04c2.24-0.68,4.19-1.28,6.31-1.92C249.91,331.37,246.93,332.34,244.8,331.04z"/>
		</g>
	</g>
	<g>
		<g>
			<path class="st13" d="M92.27,322.95c0.92-0.36,1.84-0.72,2.78-1.08c0.8,0.9,1.32,1.76,1.5,2.86c0.22,1.31,0.49,1.44,1.81,1.43
				c1.37-0.01,2.73,0,4.1,0c-0.49-1.61-0.98-3.23-1.54-5.07c-0.86,0.07-1.9,0.12-2.93,0.25c-1.34,0.17-1.81-0.13-1.72-1.48
				c0.2-2.95,0.49-5.9,0.75-8.84c0.08-0.9,0.66-1.27,1.47-1.6c2.31-0.92,4.6-0.69,6.97-0.03c0.87-1.34,1.71-2.64,2.66-4.11
				c-0.31-0.37-0.67-0.84-1.08-1.28c-0.5-0.55-0.58-1.04,0.04-1.57c2.46-2.12,5.3-3.52,8.35-4.52c0.85-0.28,1.46,0.04,1.77,0.8
				c0.37,0.92,0.62,1.9,0.96,2.96c1.79-0.42,3.6-0.84,5.58-1.3c0-0.66,0.01-1.38,0-2.09c-0.01-0.78,0.37-1.11,1.14-1.08
				c1.79,0.07,3.56,0.15,5.27,0.85c1.13,0.46,2.35,0.7,3.53,1.04c1.31,0.37,1.49,0.83,0.86,2.08c-0.41,0.8-0.78,1.61-1.2,2.4
				c-0.35,0.67-0.21,1.13,0.41,1.56c1.1,0.76,2.16,1.58,3.27,2.4c0.93-0.41,1.84-0.84,2.77-1.22c1.1-0.45,1.55-0.33,2.02,0.73
				c0.89,2.04,1.95,4.05,1.87,6.38c-0.01,0.28,0.02,0.56,0.05,0.84c0.06,0.53,0.34,1.14,0.15,1.54c-0.15,0.32-0.84,0.42-1.31,0.57
				c-1.64,0.51-1.73,0.65-1.44,2.4c0.04,0.22,0.09,0.43,0.17,0.83c0.66-0.11,1.3-0.22,1.93-0.34c1-0.19,1.41,0.06,1.37,1.07
				c-0.03,0.83-0.17,1.68-0.4,2.47c-0.45,1.55-0.96,3.09-1.5,4.61c-0.37,1.03-0.99,1.78-2.25,1.37c-0.75,1.05-1.57,1.99-2.1,3.07
				c-0.28,0.56-0.19,1.42-0.01,2.08c0.56,2.16,0.51,2.45-1.27,3.6c-1.17,0.75-2.37,1.46-3.56,2.2c-1.16-0.86-2.23-1.65-3.27-2.43
				c-1.81,0.4-3.59,0.8-5.46,1.21c0.05,0.68,0.12,1.39,0.14,2.11c0.03,1.13-0.23,1.48-1.27,1.57c-2.01,0.16-4.02,0.25-6.03,0.36
				c-0.11,0.01-0.24,0.04-0.33-0.01c-1.53-0.72-2.83,0.11-4.23,0.65c-0.45,2.18-0.18,4.59-1.84,6.44c0.58,0.59,1.03,1.08,1.52,1.54
				c0.69,0.64,0.74,1.35,0.24,2.11c-0.27,0.42-0.54,0.89-0.93,1.17c-1.8,1.32-3.61,2.63-5.48,3.86c-1.35,0.89-1.98,0.52-2.3-0.89
				c-0.08-0.36-0.31-0.69-0.52-1.14c-1.81,0.26-3.59,0.47-5.33,0.81c-0.39,0.08-0.75,0.59-1.01,0.98c-0.65,0.97-1.19,2.02-1.88,2.96
				c-0.19,0.26-0.82,0.46-1.12,0.34c-2.34-0.92-4.63-1.95-6.96-2.9c-0.8-0.33-1.07-0.83-1.03-1.68c0.04-0.89-0.09-1.78-0.15-2.72
				c0.73-0.69,1.49-1.41,2.3-2.17c-1.02-1.56-1.97-2.99-2.97-4.52c-1.15,0.52-2.26,1.02-3.48,1.58c-1.7-1.53-2.93-3.45-3.41-5.86
				c0.56,0.81,1.12,1.62,1.83,2.65c0.34-1.36-0.58-2.06-0.74-2.95c-2.17-0.25-4.12-1.02-6.01-1.92c-1.27-0.61-1.79-3.46-0.93-4.6
				c0.43-0.57,0.89-1.13,1.49-1.88c-0.4,0-0.58-0.02-0.75,0c-0.64,0.1-1.48,0.52-1.87,0.26c-0.83-0.56-1.84-1.11-1.97-2.35
				c-0.17-1.72-0.53-3.42-0.61-5.14c-0.07-1.4,0.28-1.64,1.65-1.77c0.5-0.05,1-0.08,1.5-0.14c0.97-0.11,0.97-0.12,1.29-1.35
				c-0.46-0.35-0.94-0.72-1.5-1.16c0.58-1.56,0.82-3.27,2.46-4.28c1.04-0.64,1.95-1.49,3.02-2.06c1.26-0.68,1.5-0.55,2.43,0.51
				c0.37,0.42,0.7,0.87,1.15,1.42c1.15-0.19,2.34-0.38,3.65-0.6c0.13-0.84,0.26-1.66,0.38-2.47c0.15-1.01,0.44-1.23,1.46-1.03
				c1.44,0.29,2.8,0.78,3.94,1.75c0.21,0.18,0.43,0.38,0.69,0.47c1.77,0.63,1.87,2.16,1.96,3.66c0.02,0.34-0.12,0.93-0.34,1.01
				c-1.06,0.41-0.53,1.21-0.57,1.86c-0.81-0.98-1.61-1.96-2.45-2.98c0.62-0.72,1.83-0.82,1.97-2.03c-1.74-1.12-3.22-2.76-5.63-2.78
				c-0.15,0.77-0.31,1.53-0.43,2.29c-0.18,1.21-0.17,1.2-1.44,1.32c-0.55,0.05-1.16,0.03-1.64,0.26c-1.5,0.72-2.41,0.11-3.11-1.17
				c-0.03-0.05-0.07-0.09-0.1-0.13c-0.48-0.75-1.08-0.83-1.86-0.44c-1.42,0.7-2.57,1.7-3.73,2.85c0.72,0.52,1.29,0.93,1.83,1.31
				c-0.61,1.44-1.12,2.79-1.75,4.09c-0.14,0.29-0.69,0.49-1.08,0.53c-0.92,0.11-1.85,0.1-2.72,0.13c-0.46,2.35-0.24,4.44,0.64,6.29
				c0.97-0.08,1.95-0.17,2.86-0.25c0.6,0.76,1.13,1.45,1.73,2.21c-0.66,0.91-1.33,1.84-2.02,2.79c1.25,1.39,2.56,2.35,4.4,2.64
				c0.34-0.61,0.61-1.23,1-1.76c0.23-0.31,0.63-0.68,0.98-0.7c1.05-0.06,2.11,0.04,3.17,0.08c0.73,0.03,1.13,0.39,1.17,1.14
				c0.03,0.6,0.09,1.19,0.16,1.97c1.76-0.36,3.19-1.03,4.53-1.58c0.25-1.2-0.87-2.19-0.05-3.1c0.66-0.74,1.51-1.32,2.27-1.98
				c1.02-0.87,1.87,0.28,2.98,0.33c0.61-1.14,1.23-2.29,1.88-3.51c-0.81-0.39-1.39-0.68-1.97-0.97c-0.06-0.44-0.11-0.82-0.16-1.21
				c-0.05-0.43-0.1-0.85-0.16-1.31c0.95-0.28,1.78-0.52,2.75-0.81c-0.82-1.21-0.42-2.73-1.66-3.57c-0.61,0.16-1.2,0.34-1.8,0.46
				C92.56,323.48,92.16,323.5,92.27,322.95z M123.59,336.05c1.47-0.32,2.79-0.56,4.08-0.91c0.92-0.25,1.62-0.03,2.27,0.64
				c0.49,0.5,1.06,0.93,1.63,1.43c1.44-1.19,3.11-1.78,4.25-3.16c-0.26-0.34-0.46-0.6-0.66-0.87c-0.85-1.17-0.88-1.19-0.02-2.47
				c0.75-1.11,1.59-2.15,2.37-3.24c0.42-0.59,0.89-0.55,1.46-0.26c0.8,0.4,1.61,0.76,2.53,0.57c1.1-2.33,1.81-4.69,2.04-7.39
				c-0.68,0.1-1.22,0.2-1.75,0.23c-0.57,0.04-1.15,0.01-1.82,0.01c0-0.59-0.01-0.97,0-1.36c0.03-0.93-0.24-2.05,0.19-2.75
				c0.43-0.7,1.54-0.97,2.42-1.46c0.35-2.78-0.56-5.29-2.03-7.91c-1.29,0.6-2.54,1.17-3.72,1.71c-1.3-1-2.56-2-3.87-2.94
				c-1.14-0.82-1.29-1.07-0.77-2.34c0.44-1.07,0.97-2.11,1.59-3.45c-3.12-0.38-5.73-2.46-8.97-1.69c-0.04,0.96-0.08,1.82-0.11,2.43
				c-2.63,0.71-5.03,1.36-7.56,2.05c-0.25-1.4,0.02-2.95-1.21-4.18c-3.03,0.94-5.85,2.24-8.3,4.45c0.7,0.81,1.27,1.47,1.85,2.15
				c-0.76,1-1.56,1.86-2.14,2.85c-1.17,2-1.23,2.08-3.58,1.78c-0.81-0.1-1.62-0.17-2.4-0.25c-1.25,2.99-1.98,5.86-1.76,9.02
				c1.38,0,2.64,0,3.93,0c0.1,0.27,0.19,0.47,0.24,0.68c0.4,1.79,0.72,3.61,1.23,5.37c0.26,0.88,0.13,1.33-0.66,1.76
				c-0.86,0.46-1.85,0.77-2.51,1.74c1.84,2.16,2.82,4.86,4.93,6.88c1.16-0.64,2.21-1.27,3.31-1.8c0.47-0.22,1.25-0.49,1.56-0.27
				c1.61,1.14,3.49,1.44,5.3,2c1.14,0.36,1.26,0.63,0.98,1.88c-0.18,0.8-0.38,1.6-0.57,2.39c1.67,0.5,5.21,0.6,6.23,0.23
				C123.59,338.43,123.59,337.27,123.59,336.05z M91.21,340.53c-0.88,0.36-1.49,0.61-2.11,0.86c-0.88,0.35-1.74,0.76-2.65,1.01
				c-1.47,0.41-2.29,0.03-3.03-1.31c-0.18-0.33-0.27-0.72-0.39-1.07c-0.58-0.13-1.11-0.25-1.66-0.37c-0.3,0.42-0.57,0.78-0.81,1.15
				c-0.27,0.41-0.5,0.84-0.72,1.21c0.41,0.63,0.74,1.15,1.09,1.65c1.12,1.64,1.39,1.74,3.28,1.31c0.32-0.07,0.64-0.16,0.97-0.24
				c0.19,0.18,0.39,0.31,0.51,0.49c1.19,1.89,2.34,3.8,3.54,5.68c0.38,0.6,0.38,1.16-0.05,1.7c-0.47,0.59-0.98,1.15-1.49,1.76
				c1.75,1.69,3.79,2.6,6.07,3.2c0.34-0.81,0.55-1.51,0.93-2.11c0.24-0.37,0.7-0.75,1.13-0.83c1.69-0.34,3.43-0.46,5.1-0.85
				c1.65-0.39,3.07-0.32,4.25,1.05c0.13,0.16,0.38,0.22,0.55,0.31c1.71-1.2,3.41-2.33,4.74-4.1c-0.3-0.41-0.52-0.9-0.9-1.17
				c-0.8-0.57-0.72-1.19-0.54-2.04c0.36-1.75,0.6-3.53,0.71-5.3c0.06-1.01,0.4-1.55,1.36-1.79c0.64-0.16,1.25-0.42,1.83-0.63
				c0.09-0.97,0.17-1.79,0.25-2.64c-0.78-0.49-1.52-0.97-2.18-1.39c-1.29,0.63-2.46,1.17-3.6,1.77c-0.87,0.46-1.72,0.76-2.57,0.04
				c-0.15,1.14-0.13,2.24-0.46,3.21c-1.08,3.19-3.54,5.14-6.49,6.4c-4.19,1.8-7.9-2.48-6.83-5.79
				C91.1,341.43,91.11,341.15,91.21,340.53z M103.21,337.64c-1.66,0.59-3.28,1.15-4.9,1.72c-2.64,0.93-4.21,2.95-5.54,5.21
				c1.56,2.07,3.3,2.49,5.43,1.37c1.66-0.87,3.08-2.07,4.19-3.55C103.41,341.05,104.05,339.49,103.21,337.64z M100.79,327.29
				c-2.12-0.35-4.05-0.33-5.94,0.79c1.27,0.88,2.49,1.73,3.81,2.65c-0.49,1.34-0.96,2.63-1.46,3.99c1.55-0.1,2.96-0.19,4.61-0.3
				c-0.55-0.71-0.97-1.35-1.48-1.91c-0.63-0.7-0.79-1.39-0.43-2.29C100.26,329.29,100.48,328.32,100.79,327.29z M91.7,338.63
				c1.16-1.08,2.26-2.1,3.37-3.14c-0.64-0.04-1.33-0.08-1.79-0.11c-0.78,0.74-1.45,1.38-2.15,2.05
				C91.35,337.87,91.58,338.36,91.7,338.63z M97.27,320.45c1.64-0.44,0.97-1.67,1.31-2.48c-0.3-0.12-0.53-0.21-0.83-0.33
				c0.63-0.75,1.25-1.47,0.98-2.52c-1.31,0.68-1.4,0.67-1.44,1.39C97.22,317.76,97.27,319.02,97.27,320.45z M97.01,335.74
				c-0.77,0.44-1.35,0.77-1.96,1.13c0.52,0.83,0.93,1.47,1.39,2.2c0.47-0.32,0.85-0.58,1.24-0.84
				C97.46,337.42,97.27,336.73,97.01,335.74z M94.77,360.07c1.79-1.26,1.65-2.33,0.78-4.46C95.23,357.31,93.78,358.4,94.77,360.07z
				 M100.45,337.3c0.87-0.14,1.62-0.27,2.6-0.43c-1.01-0.96-1.86-1.54-3.12-1.22C100.09,336.18,100.24,336.64,100.45,337.3z
				 M93.3,338.85c0.37,0.55,0.66,1,1.03,1.54c0.44-0.37,0.81-0.67,1.17-0.96c-0.28-0.73-0.52-1.34-0.85-2.19
				C94.13,337.85,93.73,338.33,93.3,338.85z M99.72,337.51c-0.19-0.76-0.33-1.34-0.5-2.03c-0.59,0.08-1.08,0.15-1.68,0.24
				c0.36,0.86,0.64,1.55,0.96,2.3C98.92,337.84,99.25,337.7,99.72,337.51z M115.05,338.07c0.45,1.28-0.44,2.4,0.44,3.47
				c0.53-0.87,0.9-2.38,0.63-2.89C116,338.44,115.61,338.36,115.05,338.07z M97.96,312.06c1.94-1.4,1.94-1.4,2.08-2.27
				C97.9,310.24,97.87,310.27,97.96,312.06z M138.46,330.65c0.38-0.72,0.7-1.33,1.07-2.02c-0.44-0.18-0.78-0.32-1.16-0.48
				c-0.31,0.47-0.57,0.87-0.87,1.32C137.81,329.85,138.08,330.18,138.46,330.65z M104.2,355.84c0.5,0.86,0.84,1.44,1.17,2.01
				c0.93-0.33,0.95-0.85,0.77-1.5C105.56,356.2,105.05,356.06,104.2,355.84z M110.56,354.5c-0.13-0.63-0.24-1.12-0.36-1.7
				c-0.99,0.68-1.39,1.43-1.04,2.59C109.61,355.11,110.01,354.85,110.56,354.5z M137.52,336.19c-0.54-0.53-0.92-1.14-1.62-0.62
				c-0.65,0.49-0.41,1.09-0.03,1.78C136.47,336.93,136.95,336.59,137.52,336.19z M91.37,358.88c0.09-1.46-0.88-1.51-1.82-1.79
				C89.78,358.62,89.78,358.62,91.37,358.88z M111.48,346.93c0.57-1.5,0.5-1.74-0.79-2.84C109.83,345.36,111.24,345.9,111.48,346.93
				z M92.99,340.19c-0.83,1.64-0.83,1.68-0.52,3.17C92.98,342.32,93.94,341.52,92.99,340.19z M99.38,311.64
				c-0.73,1.15-2.15,1.41-1.77,2.95C98.81,314.11,99.43,313.33,99.38,311.64z M88.44,357.78c0.35-1.3-0.33-1.82-1.25-2.29
				C87.08,357.15,87.08,357.15,88.44,357.78z M108.03,354.84c-0.98,0.47-1.25,1.07-0.84,1.97
				C108.18,356.47,108.61,355.94,108.03,354.84z M110.41,346.78c-0.44,0.8-0.62,1.59,0.12,2.44
				C111.58,348.29,110.69,347.55,110.41,346.78z M111.65,343.95c0.15-0.04,0.3-0.07,0.46-0.11c-0.05-0.58-0.04-1.17-0.19-1.73
				c-0.05-0.19-0.54-0.44-0.74-0.38c-0.21,0.06-0.48,0.55-0.41,0.73C110.97,343,111.34,343.46,111.65,343.95z M111.1,333.79
				c-0.15,0.47-0.26,0.82-0.39,1.24c0.41,0.22,0.77,0.42,1.14,0.61C112.46,334.48,112.46,334.48,111.1,333.79z M110.01,334.47
				c-1.92,0.77-1.92,0.77-1.79,1.83C108.99,335.92,109.92,335.77,110.01,334.47z M92.04,334.76c-0.94,0.34-1.74,0.84-2.02,1.93
				C90.91,336.29,91.89,336,92.04,334.76z M104.05,325.64c-0.25-1.02-0.44-1.81-0.71-2.91
				C102.68,324.41,102.74,324.63,104.05,325.64z M111.42,353.72c1.2-1.55,1.17-1.71-0.39-2.33
				C111.17,352.18,111.28,352.83,111.42,353.72z M102.39,331.35c-0.04,0.75-0.9,1.5,0.08,2.2
				C103.19,332.36,103.19,332.36,102.39,331.35z M117.68,341.48c1.97,0.22,1.97,0.22,2.65-0.5
				C119.54,341.27,118.62,340.48,117.68,341.48z M79.41,340.15c-0.13-0.03-0.26-0.06-0.4-0.08c-1.02,1.34-1.02,1.34,0.12,1.9
				C79.23,341.32,79.32,340.74,79.41,340.15z M115.47,337.23c0.35-0.89,0.29-1.45-0.69-1.62
				C114.36,336.74,114.36,336.74,115.47,337.23z M96.15,333.06c-0.14,0.01-0.28,0.02-0.42,0.04c-0.2,0.46-0.41,0.91-0.61,1.37
				c0.08,0.08,0.15,0.17,0.23,0.25c0.4-0.18,0.91-0.28,1.15-0.59C96.62,333.96,96.28,333.43,96.15,333.06z M93.7,359.85
				c0-1.07-0.36-1.53-1.36-1.37C92.58,359.6,92.58,359.6,93.7,359.85z M101.29,332.06c-0.1-1.14,0.66-1.97-0.36-3.08
				C100.93,330.14,100.11,330.94,101.29,332.06z M74.65,340.56c0.26-1.25-0.87-1.27-1.39-1.79
				C73.21,339.77,73.6,340.39,74.65,340.56z M113.58,336.46c0.44-0.87,0.39-1.4-0.64-1.54
				C112.41,335.72,112.61,336.18,113.58,336.46z M114.3,337.86c-0.58,1.29-0.58,1.29,0,2.55C114.3,339.61,114.3,338.88,114.3,337.86
				z M134.8,336.54c-1.19,0.24-1.1,0.88-0.7,1.69C135.27,337.98,134.96,337.26,134.8,336.54z M102.35,322.63
				c0.39-0.67,0.65-1.11,0.95-1.62C101.85,320.97,101.85,320.97,102.35,322.63z M81.17,345.55c-0.4,1.07,0.06,1.49,0.84,1.84
				C82.4,346.48,81.89,346.08,81.17,345.55z M113.96,341.82c-0.46-0.92-0.98-0.85-1.61-0.38
				C112.73,342.21,113.18,342.53,113.96,341.82z M105.06,335.3c-0.52,1.05,0.07,1.38,0.77,1.72
				C106.21,336.16,105.9,335.67,105.06,335.3z M137.17,329.93c-0.11,0.01-0.22,0.03-0.33,0.04c-0.07,0.32-0.31,0.79-0.18,0.94
				c0.25,0.3,0.52,0.98,1.28,0.38C137.69,330.83,137.43,330.38,137.17,329.93z M100.46,355.22c-0.57-0.07-1.21-0.48-1.76,0.79
				C99.5,355.86,100.09,356.04,100.46,355.22z M75.88,340.55c-0.04,0.12-0.07,0.25-0.11,0.37c0.49,0.21,0.98,0.42,1.47,0.64
				c0.05-0.11,0.1-0.23,0.16-0.34C77.02,340.74,76.52,340.5,75.88,340.55z M96.78,356.68c0.44-0.37,0.77-0.65,1.09-0.93
				c0.02-0.02-0.01-0.11-0.02-0.33c-0.51,0.11-1,0.22-1.57,0.34C96.48,356.12,96.58,356.31,96.78,356.68z M127.53,336.3
				c-0.83,0-1.14,0.37-1.2,1.14C127.06,337.39,127.62,337.31,127.53,336.3z M104.12,333.48c-0.85,0.67-0.93,1.24,0.24,1.8
				C104.25,334.52,104.18,334,104.12,333.48z M135.79,332.25c0.75,0.69,1.21,1.1,1.73,1.58
				C137.41,332.5,137.37,332.46,135.79,332.25z M128.89,335.52c-0.29,0.58-0.46,0.92-0.77,1.53c0.67-0.25,1.04-0.39,1.53-0.57
				C129.39,336.16,129.23,335.96,128.89,335.52z M79.69,339.96c0.79-0.28,1.07-0.63,0.74-1.19c-0.07-0.12-0.37-0.11-0.57-0.16
				C79.81,339.02,79.75,339.43,79.69,339.96z M102.63,355.55c-0.4-0.86-0.76-1.04-1.22-0.7c-0.1,0.07-0.06,0.55,0,0.56
				C101.72,355.49,102.05,355.49,102.63,355.55z M116.18,337.38c0.83-0.83,0.83-0.83,0-1.16
				C116.18,336.59,116.18,336.94,116.18,337.38z M90.93,338.64c-0.26-0.33-0.53-0.67-0.94-1.18
				C89.76,338.43,90.05,338.75,90.93,338.64z M89.48,340.41c-0.66-0.34-1.04-0.18-1.41,0.78C88.76,340.8,89.12,340.61,89.48,340.41z
				 M81.71,338.53c0.43,0.85,0.83,0.89,1.37,0.24C82.69,338.7,82.3,338.63,81.71,338.53z M125.63,337.19
				c-0.1-0.17-0.19-0.33-0.29-0.49c-0.23,0.2-0.46,0.39-0.67,0.61c-0.02,0.02,0.13,0.24,0.15,0.23
				C125.1,337.44,125.36,337.31,125.63,337.19z M83.64,346.24c-0.72,0.15-0.76,0.55-0.61,1.16
				C83.75,347.19,83.87,346.83,83.64,346.24z M123.18,341.18c0-0.03,0-0.07,0-0.1c-0.48,0-0.96,0-1.45,0c0,0.06,0,0.12,0,0.18
				C122.22,341.23,122.7,341.21,123.18,341.18z M87.58,341.3c-0.18-0.21-0.31-0.42-0.36-0.4c-0.23,0.08-0.43,0.22-0.65,0.34
				c0.11,0.14,0.24,0.41,0.32,0.39C87.11,341.61,87.3,341.45,87.58,341.3z M107.34,335.78c-0.13-0.01-0.27-0.02-0.4-0.03
				c-0.07,0.35-0.13,0.69-0.2,1.04c0.12,0.02,0.24,0.05,0.35,0.07C107.17,336.5,107.25,336.14,107.34,335.78z M96.3,331.76
				c0.29,0.51,0.44,0.78,0.68,1.21C97.38,332.26,97.37,331.93,96.3,331.76z"/>
			<path class="st13" d="M65.56,321.73c-0.36-2.66,0.31-4.02,2.05-4.61C66.9,318.72,66.23,320.23,65.56,321.73z"/>
			<path class="st13" d="M148.37,321.11c0.69,1.59-0.01,3.98-1.53,5.24C147.35,324.6,147.86,322.86,148.37,321.11z"/>
			<path class="st13" d="M70.48,316.92c-1.14,1.36-2.21,2.65-3.35,4.03C67.12,318.91,68.51,317.24,70.48,316.92z"/>
			<path class="st13" d="M96.48,364.78c-2.37,0.81-4.08,0.5-5.18-0.76C92.9,364.25,94.52,364.49,96.48,364.78z"/>
			<path class="st13" d="M120.3,346.23c-0.94-0.06-1.86-0.18-2.75-1.1c1.5,0,2.79,0,4.08,0c0.03,0.09,0.05,0.18,0.08,0.27
				c-0.49,0.28-0.97,0.57-1.46,0.85L120.3,346.23z"/>
			<path class="st13" d="M148.57,326.26c0.49-1.25,0.99-2.5,1.54-3.88C150.93,323.95,150.54,325.04,148.57,326.26z"/>
			<path class="st13" d="M107.47,299.38c-1.05,1.17-1.98,2.21-2.98,3.32C104.44,301.04,105.48,299.87,107.47,299.38z"/>
			<path class="st13" d="M92.02,366.46c1.54,0.1,2.81,0.18,4.4,0.28C94.4,367.76,93.42,367.7,92.02,366.46z"/>
			<path class="st13" d="M120.25,346.26c0.45,0.1,0.9,0.2,1.47,0.33c-1.62,1.13-1.88,1.15-3.17,0.3c0.6-0.23,1.17-0.45,1.75-0.66
				C120.3,346.23,120.25,346.26,120.25,346.26z"/>
			<path class="st13" d="M103.09,300.78c0.24-1.09,1.01-1.66,1.9-2.1C104.36,299.37,103.73,300.08,103.09,300.78z"/>
			<path class="st13" d="M121.57,310.42c2.46,0.03,4.74,0.64,6.81,2.02c2.26,1.5,3.54,4.46,2.96,7.14
				c-0.78,3.62-3.14,5.68-6.65,6.53c-1.83,0.45-3.67,0.34-5.49-0.08c-1.58-0.36-2.98-1.12-3.86-2.49c-2.78-4.3-2.7-7.54,0.13-10.92
				c1.27-1.52,3.07-1.96,4.93-2.2C120.78,310.38,121.17,310.42,121.57,310.42z M129.93,318.66c-1.38-0.73-2.55-1.38-3.75-1.97
				c-3.44-1.68-6.81-1.3-10.06,0.5c-1.61,0.89-1.58,0.98-1.02,2.8c0.57,1.87,1.43,3.59,3.39,4.31c2.67,0.98,5.39,1,7.95-0.33
				C128.53,322.88,129.82,321.15,129.93,318.66z M120.81,311.72c-0.17,1-0.31,1.77-0.45,2.58c1.62-0.04,1.66-0.08,2.04-2.4
				C121.93,311.85,121.47,311.8,120.81,311.72z M116.88,312.66c-1.12,1.35-1.96,2.45-2.12,3.97
				C116.6,316,116.91,314.6,116.88,312.66z M118.17,312.19c-0.09,0.95-0.17,1.73-0.25,2.51c1.18,0.16,1.39-0.51,1.54-1.26
				c0.09-0.46,0.19-0.91,0.32-1.52C119.16,312.03,118.75,312.1,118.17,312.19z M123.47,311.92c-0.18,0.92-0.32,1.59-0.48,2.37
				c0.62,0,1.03,0,1.47,0c0.23-0.63,0.43-1.18,0.67-1.84C124.58,312.28,124.12,312.13,123.47,311.92z M126.1,312.84
				c-0.64,1.74-0.64,1.74,0.33,2.21c0.23-0.53,0.46-1.06,0.71-1.66C126.73,313.18,126.42,313.01,126.1,312.84z M127.91,315.86
				c0.34-0.48,1.01-0.91,0.42-1.72C127.78,314.68,127.61,315.21,127.91,315.86z"/>
			<path class="st13" d="M83.72,323.13c2.49-0.3,4.46,1.39,4.77,3.01c0.34,1.75-0.4,3.43-2.2,4.7c-1.43,1.01-3.04,1.04-4.53,0.1
				c-0.24-0.15-0.46-0.32-0.69-0.48c-2.02-1.44-2.32-2.16-1.75-4.17c0.64-2.27,1.6-3.04,3.91-3.16
				C83.45,323.12,83.67,323.13,83.72,323.13z M87.32,327.83c-0.98-0.37-1.78-0.82-2.63-0.96c-1.31-0.21-2.68-0.38-3.94,0.3
				c-0.74,0.39-0.96,0.97-0.46,1.47c1.06,1.07,2.18,2.17,3.88,1.97C85.71,330.43,86.63,329.44,87.32,327.83z M83.62,324.33
				c-1.51-0.03-1.51-0.03-1.35,1.5c0.36,0,0.72,0,1.13,0C83.47,325.32,83.53,324.89,83.62,324.33z M81.36,324.79
				c-0.88,0.41-1.22,1-1.19,2.01c0.58-0.3,1.05-0.53,1.52-0.77C81.57,325.58,81.47,325.22,81.36,324.79z M84.59,325.87
				c0.31-0.07,0.75-0.05,0.83-0.21c0.22-0.47,0.34-1.02-0.35-1.55C84.64,324.63,84.44,325.11,84.59,325.87z M86.59,326.24
				c0.15,0,0.3-0.01,0.45-0.01c-0.06-0.31-0.12-0.61-0.17-0.92c-0.09,0.01-0.18,0.03-0.27,0.04
				C86.59,325.64,86.59,325.94,86.59,326.24z"/>
		</g>
	</g>
	<g>
		<g>
			<path class="st13" d="M106.39,84.06c-4.46,1.63-8.98,2.34-13.6,2.13c-3.74-0.17-7.52-0.47-11.01-1.92
				c-4.77-1.98-9.26-4.47-12.78-8.41c-2.19-2.44-3.48-5.28-4.19-8.45c-1.35-5.99-0.85-11.9,0.59-17.77c0.59-2.4,1.76-4.57,2.93-6.74
				c1.78-3.28,3.94-6.22,6.69-8.73c3.06-2.8,6.5-4.9,10.54-5.95c1.89-0.49,3.75-1.06,5.65-1.48c1.19-0.26,2.43-0.31,3.65-0.45
				c4.86-0.56,9.71-0.53,14.54,0.24c4.71,0.75,9,2.59,13.06,5.02c0.66,0.39,1.17,1.03,1.76,1.54c3.11,2.71,5.54,5.97,7.71,9.44
				c1.61,2.57,3.05,5.21,3.81,8.17c1.07,4.19,0.73,8.31-0.63,12.37c-0.48,1.43-1,2.85-1.62,4.22c-0.41,0.91-0.91,1.83-1.58,2.56
				c-2.46,2.67-4.91,5.34-7.69,7.72c-2.47,2.11-5.18,3.68-8.19,4.77c-1.01,0.37-1.38,1.01-1.45,2c-0.11,1.77,0.25,3.44,0.95,5.05
				c0.24,0.56,0.53,1.13,0.63,1.72c0.15,0.93-0.58,1.48-1.47,1.16c-0.36-0.13-0.72-0.33-1.02-0.56c-2.67-2.04-5.3-4.13-6.89-7.21
				C106.72,84.35,106.57,84.25,106.39,84.06z M106.64,82.45c2.05,2.47,3.78,5.28,6.87,6.86c-0.11-1.62-0.28-3.1-0.3-4.58
				c-0.04-2.52,0.33-2.9,2.65-3.81c2.29-0.9,4.51-1.96,6.41-3.57c0.94-0.8,1.92-1.55,2.77-2.43c2.06-2.13,4.07-4.3,6.05-6.5
				c0.44-0.48,0.75-1.12,0.99-1.74c0.54-1.34,1.06-2.7,1.5-4.09c1.77-5.57,1.61-11.01-1.31-16.2c-1.98-3.51-4.21-6.8-6.87-9.87
				c-3.03-3.5-6.83-5.52-10.99-7.06c-4.03-1.49-8.27-1.96-12.53-1.93c-4.98,0.03-9.92,0.42-14.76,1.76
				c-4.4,1.21-8.22,3.39-11.53,6.53c-2.47,2.34-4.22,5.16-5.98,8.03c-2.84,4.64-3.76,9.8-4,15.06c-0.13,2.75,0.37,5.56,0.81,8.31
				c0.48,2.98,1.79,5.65,3.97,7.79c1.31,1.29,2.66,2.58,4.18,3.6c3.53,2.37,7.18,4.57,11.51,5.22c0.72,0.11,1.43,0.3,2.14,0.34
				c2.73,0.17,5.47,0.49,8.18,0.37C99.86,84.38,103.25,83.59,106.64,82.45z"/>
			<path class="st13" d="M156.28,82.8c-1.2-0.18-2.28-0.35-3.37-0.52c-2.06-0.33-4-0.97-5.76-2.13c-2.87-1.9-5.47-4.02-7.34-7
				c-1.76-2.82-2.11-5.73-1.21-8.84c1.18-4.12,3.22-7.57,6.76-10.29c3.01-2.32,6.14-4.05,9.84-4.74c5.97-1.12,11.54-0.07,16.69,3.2
				c1.75,1.11,3.35,2.37,4.78,3.91c2.71,2.92,3.92,6.47,4.67,10.23c0.58,2.9-0.35,5.54-1.8,8c-0.91,1.54-1.96,2.99-2.99,4.46
				c-0.35,0.5-0.76,0.98-1.23,1.37c-3.85,3.22-8.05,5.87-12.76,7.61c-3.53,1.31-7.24,1.87-10.97,2.31c-0.33,0.04-0.68,0.08-0.99,0
				c-0.62-0.15-0.84-0.85-0.4-1.31c0.38-0.4,0.84-0.76,1.32-1.03c1.9-1.08,3.1-2.87,4.5-4.45C156.16,83.4,156.18,83.09,156.28,82.8z
				 M153.35,88.64c0.34,0,0.67,0.04,0.99-0.01c7.43-1.14,13.94-4.28,19.68-9.08c0.42-0.36,0.85-0.74,1.16-1.2
				c1.12-1.61,2.29-3.19,3.24-4.89c1.25-2.22,1.98-4.61,1.34-7.22c-0.63-2.56-1.36-5.11-2.92-7.26c-2.31-3.19-5.38-5.49-9.05-6.95
				c-6.72-2.67-13.22-2.32-19.41,1.53c-0.84,0.52-1.52,1.31-2.35,1.87c-3.53,2.37-5.2,5.91-6.14,9.85c-0.45,1.9-0.55,3.89,0.45,5.73
				c2.76,5.07,6.85,8.45,12.53,9.74c1.19,0.27,2.42,0.33,3.64,0.47c0.53,0.06,1.15-0.09,1.4,0.81
				C156.44,84.19,154.91,86.4,153.35,88.64z"/>
			<path class="st13" d="M179.81,57.25c2.14,1.02,3.68,3.84,3.26,5.74C182.3,62.41,180.43,59.17,179.81,57.25z"/>
			<path class="st13" d="M142.82,80.58c-2.17-0.31-3.91-2.37-3.79-5.11c0.71,1.06,1.26,1.96,1.89,2.8
				C141.57,79.14,142.3,79.95,142.82,80.58z"/>
			<path class="st13" d="M64.74,42.14c-0.12-2.92,1.74-4.28,3.32-5.94C67.99,37.07,66.19,40.3,64.74,42.14z"/>
			<path class="st13" d="M138.56,78.75c0.93,0.93,1.96,1.97,2.87,2.88C140.25,81.7,138.84,80.33,138.56,78.75z"/>
			<path class="st13" d="M66.88,35.64c-0.76,1.14-1.53,2.29-2.4,3.59C64.39,37.6,65.11,36.48,66.88,35.64z"/>
			<path class="st13" d="M109.01,93.69c-2.25-0.47-2.87-0.8-3.91-1.98C106.01,91.76,107.58,92.53,109.01,93.69z"/>
			<path class="st13" d="M107.59,89.75c0.76,0.65,1.53,1.3,2.29,1.94c-1.35,0.14-2.08-0.58-2.62-1.57
				C107.37,90,107.48,89.87,107.59,89.75z"/>
			<path class="st13" d="M68.48,67.49c-0.22-0.36-0.53-0.69-0.63-1.08c-0.37-1.4-0.75-2.8-0.95-4.23c-0.13-0.88,0.18-1.74,1.12-2.48
				c0.07,1.46,0.08,2.75,0.22,4.02c0.13,1.23,0.39,2.45,0.6,3.67C68.71,67.42,68.59,67.46,68.48,67.49z"/>
			<path class="st13" d="M130.43,64.34c0.64-2.68,1.21-5.08,1.81-7.47c0.04-0.16,0.28-0.27,0.69-0.65
				C133.01,59.35,132.65,61.96,130.43,64.34z"/>
			<path class="st13" d="M70.49,61.23c0.42,2.37,0.78,4.35,1.19,6.65C70.2,66.04,69.65,63.11,70.49,61.23z"/>
			<path class="st13" d="M129.15,62.29c0.42-1.87,0.85-3.74,1.27-5.6c0.89,2.16-0.14,3.91-0.88,5.73
				C129.41,62.37,129.28,62.33,129.15,62.29z"/>
		</g>
	</g>
	<g>
		<g>
			<path class="st13" d="M444.91,86.03c2.67,1.06,2.96,3.33,0.82,5.17c-0.45,0.38-0.64,1.06-0.96,1.61c0.44,0.33,0.73,0.5,0.96,0.73
				c0.98,1.01,0.75,2.27-0.51,2.87c-0.2,0.1-0.42,0.15-0.64,0.2c-1.19,0.25-2.15,0.65-2.59,2c-0.19,0.59-0.93,1.15-1.55,1.41
				c-2.26,0.95-4.67,1.13-7.09,0.88c-0.48-0.05-0.98-0.48-1.34-0.85c-0.33-0.35-0.48-0.87-0.72-1.33c-0.91-0.22-1.87-0.34-2.73-0.68
				c-1.9-0.76-2.22-2.03-1.05-3.68c0.58-0.82,0.43-1.79-0.38-2.43c-0.22-0.17-0.46-0.32-0.68-0.48c-2.02-1.46-1.89-3.67,0.44-5.03
				c-0.74-1.82-1.53-3.62-2.66-5.3c-2.18-3.25-4.37-6.51-6.38-9.86c-3.15-5.26-3.34-10.79-1.07-16.44c0.98-2.44,2.49-4.51,4.57-6.12
				c3.49-2.69,7.36-4.45,11.86-4.52c0.61-0.01,1.22-0.16,1.83-0.2c1.67-0.09,3.34-0.27,4.94,0.52c0.53,0.26,1.2,0.25,1.79,0.42
				c3.8,1.14,7.27,2.9,10.16,5.64c0.82,0.78,1.44,1.87,1.88,2.94c1.02,2.45,1.55,5.04,1.23,7.71c-0.22,1.83-0.53,3.65-0.93,5.45
				c-0.6,2.68-2.14,4.9-3.81,7.02c-1.7,2.16-3.35,4.34-4.4,6.91C445.19,82.28,444.68,84.03,444.91,86.03z M443.72,86.45
				c-0.42-3.3,0.73-6.15,2.28-8.83c0.97-1.68,2.29-3.16,3.38-4.79c1.05-1.57,2.23-3.11,2.96-4.83c1.23-2.9,1.79-6.04,1.55-9.18
				c-0.28-3.65-1.4-7.03-4.72-9.18c-0.7-0.45-1.5-0.77-2.16-1.27c-1.68-1.31-3.7-1.82-5.65-2.47c-1.21-0.4-2.47-0.77-3.73-0.86
				c-4.35-0.31-8.39,0.8-12.27,2.75c-8.56,4.31-10.53,14.86-6.59,21.92c1.93,3.46,4.17,6.75,6.39,10.04
				c1.51,2.24,2.74,4.58,3.51,7.45C433.63,87.57,438.66,87.94,443.72,86.45z M427.03,87.11c-1.41,1.53-1.28,2.7,0.35,3.56
				c0.43,0.23,0.92,0.4,1.41,0.47c3.33,0.53,6.66,0.61,9.99,0c1.86-0.34,3.75-0.59,5.57-1.06c1.45-0.37,1.65-1.4,0.65-2.59
				c-0.74,0.22-1.48,0.44-2.22,0.66c-3.73,1.11-7.53,0.69-11.31,0.52C429.9,88.6,428.42,88.12,427.03,87.11z M428.42,94.49
				c-0.85,1.38-0.71,2.16,0.65,2.57c0.99,0.3,2.08,0.29,3.12,0.35c0.49,0.03,1-0.16,1.49-0.14c3.63,0.22,7.08-0.63,10.47-1.77
				c1.16-0.39,1.19-0.59,0.26-1.78c-2.5,1.29-5.24,1.76-8.04,1.78C433.69,95.53,430.91,96.02,428.42,94.49z M444.2,91.9
				c-2.98,0.37-5.45,0.82-7.94,0.96c-2.51,0.14-5.04-0.02-7.53-0.05c0.61,1.09,0.87,1.25,2.09,1.46c2.78,0.49,5.57,0.25,8.33-0.13
				c1.41-0.19,2.78-0.74,4.14-1.2C443.57,92.85,443.75,92.44,444.2,91.9z M440.74,97.95c-2.74,0.25-5.46,0.51-8.22,0.76
				c0.71,1.14,0.71,1.14,1.83,1.15C437.47,99.9,439.92,99.18,440.74,97.95z"/>
			<path class="st13" d="M407.95,43.3c2.01,1.12,4.02,2.24,5.77,3.97C411.63,47.68,408.69,45.67,407.95,43.3z"/>
			<path class="st13" d="M456.53,74.15c2.15-0.03,4.33-0.2,6.14,1.48c-1.64,0.41-3.2-0.3-4.79-0.41c-0.52-0.03-1.01-0.46-1.51-0.71
				C456.43,74.39,456.48,74.27,456.53,74.15z"/>
			<path class="st13" d="M435.52,41.24c-0.85-2.22-1.16-4.28-0.71-6.49c0.88,0.7,0.89,0.69,0.96,1.88c0.04,0.72,0.06,1.44,0.07,2.16
				C435.86,39.52,436.41,40.28,435.52,41.24z"/>
			<path class="st13" d="M409.76,68.17c-2.1,1.05-3.97,0.81-6,0.72C404.92,67.59,407.25,67.29,409.76,68.17z"/>
			<path class="st13" d="M454,45.07c1.58-1.34,2.36-3.01,4.21-3.89c0.07,1.57-1.14,2.21-1.79,3.12
				C455.98,44.91,455.35,45.44,454,45.07z"/>
			<path class="st13" d="M465.24,59.19c-1.33,1.19-3,0.98-4.54,1.27c-0.28,0.05-0.64-0.26-1.3-0.55
				C461.54,59.2,463.33,58.82,465.24,59.19z"/>
			<path class="st13" d="M412.03,86.68c1.2-1.59,2.77-2.5,4.75-2.62C415.44,85.36,413.71,85.97,412.03,86.68z"/>
			<path class="st13" d="M427.81,69.27c0.88,0.13,1.14,0.81,1.5,1.32c0.98,1.38,1.8,1.66,3.67,1.12c-0.27-0.54-0.59-1.05-0.8-1.6
				c-0.21-0.57-0.42-1.17-0.44-1.76c-0.03-0.91,0.58-1.28,1.46-1.02c1.13,0.33,2.05,1.52,2.12,2.75c0.02,0.37-0.04,0.75-0.08,1.27
				c0.37-0.08,0.63-0.11,0.86-0.21c0.25-0.1,0.48-0.27,0.78-0.45c-0.43-1.55,0.21-2.86,0.94-4.11c0.21-0.37,0.75-0.77,1.13-0.76
				c0.61,0.02,0.95,0.62,0.88,1.22c-0.11,1.08-0.34,2.14-0.52,3.19c1.22-0.03,1.53-0.28,1.98-1.49c0.27-0.72,0.18-1.71,1.31-2.01
				c0.56,0.79,0.4,1.66,0.18,2.41c-1.26,4.31-1.59,8.79-2.31,13.19c-0.17,1.01-0.36,2.02-0.73,3.01c-0.97-4.66,0.17-9.22,0.77-13.87
				c-0.86,0-1.61,0-2.36,0c-0.16,0-0.38-0.06-0.48,0.02c-1.27,1.09-2.98,0.73-4.42,1.35c-0.72,0.31-1.63,0.19-2.58,0.28
				c0.04,0.82,0.58,1.47,0.87,2.21c0.81,2.08,1.64,4.14,2.4,6.24c0.24,0.67,0.36,1.42,0.39,2.14c0.03,0.61-0.13,1.22-0.21,1.84
				c-0.11,0-0.22,0-0.33,0c-0.09-0.25-0.21-0.48-0.28-0.74c-0.72-3.06-1.79-5.98-3.24-8.77c-0.85-1.63-1.56-3.34-2.33-5.01
				C427.72,70.48,427.46,69.92,427.81,69.27z M432.78,68.32c0.08,1.12,0.31,1.87,1.15,2.4C434.26,69.34,434.26,69.34,432.78,68.32z
				 M437.74,69.42c0.97-0.4,1.19-1.07,0.75-1.99C438.24,68.1,437.99,68.76,437.74,69.42z"/>
			<path class="st13" d="M424.42,51.92c-0.43-0.06-0.8-0.11-1.23-0.17c0.08-0.14,0.11-0.32,0.22-0.38c0.28-0.17,0.58-0.35,0.9-0.43
				c0.83-0.2,1.3,0.14,1.37,1c0.1,1.27-0.27,2.47-0.99,3.49c-1.39,1.96-1.84,4.16-1.87,6.5c-0.03,1.68-0.54,2.45-1.83,2.82
				c-1.15,0.33-1.85,0.07-2.29-1.04c-0.3-0.77-0.63-1.64-0.54-2.42c0.16-1.48,0.59-2.94,0.94-4.4c0.06-0.23,0.32-0.4,0.78-0.52
				c-0.13,0.94-0.33,1.88-0.36,2.82c-0.04,1.16,0,2.33,0.13,3.48c0.04,0.33,0.63,0.9,0.79,0.84c0.41-0.13,0.81-0.51,1.04-0.9
				c0.18-0.3,0.13-0.76,0.13-1.15c0.01-2.35,0.52-4.54,1.87-6.5C424.07,54.07,424.52,53.12,424.42,51.92z"/>
		</g>
	</g>
	<g>
		<g>
			<path class="st13" d="M379.79,409.55c0.46-0.58,0.82-1.14,1.29-1.58c2.69-2.52,5.39-5.02,8.12-7.49c0.44-0.4,1.06-0.61,1.62-0.86
				c7.92-3.53,15.83-7.07,23.77-10.57c4.5-1.99,9.03-3.93,13.56-5.84c1.27-0.53,2.61-0.89,3.91-1.35c0.89-0.32,1.75-0.77,2.66-1.01
				c1.23-0.32,2.49-0.54,3.76-0.68c0.36-0.04,0.86,0.26,1.16,0.55c1.7,1.65,2.77,3.64,3.13,5.99c0.2,1.32-0.23,2.05-1.43,2.72
				c-0.29,0.16-0.58,0.33-0.89,0.48c-2.06,0.95-4.1,1.94-6.18,2.84c-4.71,2.05-9.43,4.05-14.15,6.07
				c-6.38,2.73-12.84,5.28-19.11,8.24c-4.49,2.12-9.1,3.24-14.01,3.39c-1.45,0.04-2.91,0.16-4.36,0.18
				C381.68,410.65,380.74,410.51,379.79,409.55z M428.86,386.79c-11.78,5.13-23.36,10.17-35.22,15.33c1.61,0.6,1.93,1.62,1.56,2.89
				c11.71-5.09,23.32-10.13,34.99-15.2C429.76,388.83,429.37,387.93,428.86,386.79z M430.52,390.57
				c-11.57,5.08-22.97,10.09-34.35,15.1c0.21,0.72,0.44,1.47,0.68,2.29c11.43-5.06,22.82-10.11,34.35-15.22
				C430.96,391.97,430.75,391.31,430.52,390.57z M427.33,384.73c-11.62,5.06-23.08,10.05-34.59,15.06c0.3,0.6,0.57,1.12,0.88,1.72
				c11.6-5.08,23.13-10.12,34.79-15.22C427.99,385.68,427.71,385.28,427.33,384.73z M390.75,403.62c-0.07-0.13-0.14-0.26-0.21-0.4
				c0.48-0.35,1.01-0.65,1.43-1.07c0.23-0.23,0.47-0.73,0.37-0.96c-0.11-0.25-0.63-0.48-0.94-0.44c-0.59,0.08-1.24,0.25-1.72,0.59
				c-1.37,0.97-2.69,2.01-3.97,3.08c-0.58,0.48-1.03,1.11-1.35,1.46c0.56,1.42,1.02,2.57,1.54,3.89c2.39-0.21,5.01-0.37,7.61-0.71
				c0.63-0.08,1.29-0.63,1.75-1.13c0.55-0.61,0.19-1.37-0.66-1.41c-0.59-0.04-1.2,0.18-1.8,0.26c-0.3,0.04-0.6,0.04-1.31,0.08
				c0.5-0.59,0.73-0.94,1.03-1.19c0.38-0.32,0.89-0.5,1.23-0.85c0.27-0.28,0.58-0.84,0.46-1.09c-0.14-0.29-0.7-0.5-1.09-0.54
				c-0.42-0.04-0.86,0.18-1.3,0.27C391.47,403.53,391.11,403.57,390.75,403.62z M433.03,382.69c1.33,2.75,2.56,5.29,3.83,7.94
				c1.22-0.69,2.46-1.42,3.73-2.11c0.83-0.45,1-1.11,0.83-1.98c-0.32-1.63-1.12-3.03-2.04-4.38c-0.42-0.62-1.02-0.9-1.74-0.73
				C436.1,381.83,434.57,382.27,433.03,382.69z M432.04,392.67c1.41-0.38,1.49-0.44,1.41-1.46c-0.05-0.6-0.1-1.27-0.37-1.78
				c-0.91-1.72-1.88-3.4-2.9-5.05c-0.49-0.8-1.14-0.58-1.8-0.06C430.22,386.87,431.58,389.5,432.04,392.67z M430.68,383.24
				c1.68,2.86,3.85,5.37,3.87,8.91c1.36-0.92,1.5-1.08,1.11-2.11c-0.87-2.3-1.85-4.56-3.31-6.57
				C431.9,382.86,431.45,382.7,430.68,383.24z"/>
			<path class="st13" d="M443.22,392.05c1.05-0.78,0.92-1.22-0.65-2.04c0.09-0.68,0.49-0.81,1.06-0.57
				c0.78,0.33,1.35,1.54,1.08,2.24C444.51,392.18,444.22,392.26,443.22,392.05z"/>
			<path class="st13" d="M441.51,392.87c-0.41-0.65-0.74-1.18-1.15-1.83c0.97-0.27,1.39,0.24,1.69,0.91
				C442.29,392.48,442.07,392.8,441.51,392.87z"/>
			<path class="st13" d="M446.17,394.1c-0.48-0.62-0.89-1.16-1.3-1.69c0.44-0.56,0.83-0.3,1.16,0
				C446.56,392.89,446.56,393.44,446.17,394.1z"/>
			<path class="st13" d="M440.76,387.62c-2.43-0.85-3.85-3.72-2.81-5.8c0.4,1.12,0.68,2.11,1.12,3.02
				C439.49,385.74,440.09,386.55,440.76,387.62z"/>
		</g>
	</g>
	<g>
		<rect x="187.68" y="251.4" class="st8" width="129.5" height="73.56"/>
		<text transform="matrix(1 0 0 1 229.8945 259.9155)" class="st5 st9 st10">#TEXTO1</text>
	</g>
</g>
<g id="Designed_by_Freepik">
	<g>
		<g>
			<g>
				<path class="st14" d="M180.29,482.97v-0.16c-0.22,0.25-0.43,0.45-0.64,0.61c-0.21,0.16-0.44,0.28-0.69,0.36
					c-0.25,0.08-0.52,0.12-0.81,0.12c-0.39,0-0.75-0.08-1.08-0.25c-0.33-0.16-0.62-0.4-0.86-0.7c-0.24-0.31-0.42-0.66-0.55-1.07
					c-0.12-0.41-0.19-0.86-0.19-1.33c0-1.01,0.25-1.8,0.74-2.37c0.5-0.57,1.15-0.85,1.95-0.85c0.47,0,0.86,0.08,1.18,0.24
					c0.32,0.16,0.63,0.41,0.94,0.74v-2.39c0-0.33,0.07-0.58,0.2-0.75c0.13-0.17,0.32-0.26,0.57-0.26c0.25,0,0.43,0.08,0.57,0.23
					c0.13,0.16,0.2,0.39,0.2,0.69v7.15c0,0.31-0.07,0.54-0.21,0.69c-0.14,0.15-0.33,0.23-0.55,0.23c-0.22,0-0.41-0.08-0.55-0.24
					C180.36,483.49,180.29,483.27,180.29,482.97z M177.1,480.59c0,0.44,0.07,0.81,0.21,1.12s0.32,0.54,0.56,0.7
					c0.24,0.16,0.5,0.24,0.78,0.24c0.29,0,0.54-0.07,0.78-0.22c0.24-0.15,0.42-0.38,0.56-0.68c0.14-0.31,0.21-0.69,0.21-1.15
					c0-0.43-0.07-0.8-0.21-1.11c-0.14-0.31-0.33-0.55-0.57-0.71c-0.24-0.16-0.5-0.25-0.79-0.25c-0.3,0-0.56,0.08-0.8,0.25
					c-0.23,0.17-0.42,0.41-0.54,0.72C177.17,479.81,177.1,480.17,177.1,480.59z"/>
				<path class="st14" d="M187.44,481h-3.17c0,0.37,0.08,0.69,0.22,0.97c0.14,0.28,0.34,0.49,0.58,0.64
					c0.24,0.14,0.5,0.21,0.79,0.21c0.19,0,0.37-0.02,0.53-0.07c0.16-0.05,0.32-0.12,0.47-0.21c0.15-0.1,0.29-0.2,0.42-0.31
					c0.13-0.11,0.29-0.26,0.49-0.45c0.08-0.07,0.2-0.11,0.36-0.11c0.17,0,0.3,0.05,0.4,0.14c0.1,0.09,0.16,0.22,0.16,0.38
					c0,0.15-0.06,0.32-0.17,0.51c-0.12,0.2-0.29,0.38-0.52,0.56c-0.23,0.18-0.52,0.33-0.87,0.45c-0.35,0.12-0.75,0.18-1.21,0.18
					c-1.04,0-1.85-0.3-2.43-0.89c-0.58-0.59-0.87-1.4-0.87-2.42c0-0.48,0.07-0.92,0.21-1.33c0.14-0.41,0.35-0.76,0.62-1.05
					c0.27-0.29,0.61-0.52,1.01-0.67c0.4-0.16,0.84-0.23,1.33-0.23c0.63,0,1.18,0.13,1.63,0.4c0.45,0.27,0.79,0.61,1.02,1.04
					c0.22,0.42,0.34,0.86,0.34,1.29c0,0.41-0.12,0.67-0.35,0.79C188.19,480.94,187.86,481,187.44,481z M184.27,480.08h2.94
					c-0.04-0.55-0.19-0.97-0.45-1.24c-0.26-0.27-0.6-0.41-1.02-0.41c-0.4,0-0.74,0.14-0.99,0.42
					C184.48,479.12,184.33,479.53,184.27,480.08z"/>
				<path class="st14" d="M194.83,481.78c0,0.45-0.11,0.83-0.33,1.15c-0.22,0.32-0.54,0.56-0.96,0.72
					c-0.43,0.17-0.94,0.25-1.55,0.25c-0.58,0-1.08-0.09-1.5-0.27c-0.42-0.18-0.72-0.4-0.92-0.67c-0.2-0.27-0.3-0.54-0.3-0.8
					c0-0.18,0.06-0.33,0.19-0.46c0.13-0.13,0.29-0.19,0.48-0.19c0.17,0,0.3,0.04,0.39,0.13c0.09,0.08,0.18,0.2,0.26,0.35
					c0.17,0.29,0.37,0.5,0.6,0.65c0.23,0.14,0.55,0.21,0.95,0.21c0.33,0,0.59-0.07,0.8-0.22c0.21-0.14,0.31-0.31,0.31-0.5
					c0-0.29-0.11-0.49-0.32-0.62c-0.22-0.13-0.57-0.26-1.07-0.38c-0.56-0.14-1.01-0.28-1.36-0.44c-0.35-0.15-0.63-0.35-0.84-0.6
					c-0.21-0.25-0.31-0.56-0.31-0.92c0-0.33,0.1-0.63,0.29-0.92c0.19-0.29,0.48-0.52,0.86-0.69c0.38-0.17,0.83-0.26,1.37-0.26
					c0.42,0,0.8,0.04,1.13,0.13c0.33,0.09,0.61,0.2,0.84,0.35c0.22,0.15,0.39,0.31,0.51,0.49c0.12,0.18,0.17,0.35,0.17,0.52
					c0,0.19-0.06,0.34-0.19,0.46c-0.13,0.12-0.3,0.18-0.53,0.18c-0.17,0-0.31-0.05-0.42-0.14c-0.12-0.1-0.25-0.24-0.4-0.43
					c-0.12-0.16-0.27-0.28-0.43-0.38c-0.17-0.1-0.39-0.14-0.68-0.14c-0.29,0-0.54,0.06-0.73,0.19c-0.19,0.12-0.29,0.28-0.29,0.46
					c0,0.17,0.07,0.31,0.21,0.42c0.14,0.11,0.33,0.2,0.58,0.27c0.24,0.07,0.57,0.16,1,0.26c0.5,0.12,0.91,0.27,1.23,0.44
					c0.32,0.17,0.56,0.37,0.72,0.6C194.74,481.21,194.83,481.48,194.83,481.78z"/>
				<path class="st14" d="M196.48,476.55c-0.23,0-0.42-0.07-0.58-0.21c-0.16-0.14-0.24-0.33-0.24-0.59c0-0.23,0.08-0.42,0.25-0.57
					c0.16-0.15,0.36-0.22,0.57-0.22c0.21,0,0.4,0.07,0.56,0.2c0.16,0.13,0.24,0.33,0.24,0.59c0,0.25-0.08,0.44-0.24,0.58
					C196.89,476.48,196.7,476.55,196.48,476.55z M197.28,478.23v4.68c0,0.32-0.08,0.57-0.23,0.74c-0.16,0.17-0.35,0.25-0.59,0.25
					c-0.24,0-0.43-0.09-0.58-0.26c-0.15-0.17-0.22-0.41-0.22-0.73v-4.64c0-0.32,0.07-0.56,0.22-0.72c0.15-0.16,0.34-0.24,0.58-0.24
					c0.24,0,0.43,0.08,0.59,0.24C197.21,477.71,197.28,477.94,197.28,478.23z"/>
				<path class="st14" d="M204.38,478.49v4.71c0,0.54-0.06,1-0.17,1.39c-0.11,0.39-0.3,0.71-0.55,0.96c-0.25,0.25-0.58,0.44-1,0.56
					c-0.41,0.12-0.92,0.18-1.53,0.18c-0.56,0-1.06-0.08-1.5-0.23c-0.44-0.16-0.78-0.36-1.01-0.61c-0.24-0.25-0.36-0.5-0.36-0.76
					c0-0.2,0.07-0.36,0.2-0.48c0.13-0.12,0.3-0.19,0.49-0.19c0.24,0,0.45,0.1,0.62,0.31c0.09,0.11,0.18,0.22,0.27,0.33
					c0.09,0.11,0.2,0.2,0.31,0.28c0.11,0.08,0.25,0.13,0.41,0.17c0.16,0.04,0.34,0.06,0.55,0.06c0.42,0,0.75-0.06,0.98-0.17
					c0.23-0.12,0.39-0.28,0.49-0.49c0.09-0.21,0.15-0.43,0.16-0.67c0.02-0.24,0.03-0.63,0.04-1.16c-0.25,0.35-0.54,0.62-0.86,0.8
					c-0.33,0.18-0.72,0.27-1.17,0.27c-0.54,0-1.02-0.14-1.42-0.42c-0.41-0.28-0.72-0.67-0.93-1.16c-0.22-0.5-0.33-1.07-0.33-1.73
					c0-0.49,0.07-0.93,0.2-1.32c0.13-0.39,0.32-0.72,0.57-0.99c0.25-0.27,0.53-0.47,0.85-0.61c0.32-0.14,0.67-0.21,1.06-0.21
					c0.46,0,0.86,0.09,1.19,0.26c0.33,0.18,0.65,0.45,0.94,0.83v-0.22c0-0.28,0.07-0.5,0.21-0.65c0.14-0.15,0.32-0.23,0.53-0.23
					c0.31,0,0.52,0.1,0.62,0.3C204.33,477.82,204.38,478.11,204.38,478.49z M199.69,480.55c0,0.66,0.14,1.15,0.43,1.49
					c0.29,0.34,0.66,0.5,1.11,0.5c0.27,0,0.52-0.07,0.76-0.22c0.24-0.14,0.44-0.36,0.59-0.65c0.15-0.29,0.22-0.64,0.22-1.06
					c0-0.66-0.15-1.18-0.44-1.54c-0.29-0.37-0.67-0.55-1.15-0.55c-0.46,0-0.83,0.18-1.11,0.53
					C199.83,479.4,199.69,479.9,199.69,480.55z"/>
				<path class="st14" d="M206.96,478.2v0.2c0.28-0.38,0.6-0.65,0.93-0.83c0.34-0.18,0.73-0.26,1.17-0.26
					c0.43,0,0.81,0.09,1.15,0.28c0.34,0.19,0.59,0.45,0.75,0.79c0.11,0.2,0.18,0.41,0.21,0.64c0.03,0.23,0.05,0.52,0.05,0.88v3.02
					c0,0.32-0.07,0.57-0.22,0.74c-0.15,0.17-0.34,0.25-0.58,0.25c-0.24,0-0.44-0.09-0.59-0.26c-0.15-0.17-0.23-0.41-0.23-0.73v-2.7
					c0-0.53-0.07-0.94-0.22-1.22c-0.15-0.28-0.44-0.43-0.89-0.43c-0.29,0-0.55,0.09-0.79,0.26c-0.24,0.17-0.41,0.41-0.52,0.71
					c-0.08,0.24-0.12,0.69-0.12,1.35v2.03c0,0.33-0.08,0.58-0.23,0.74c-0.15,0.17-0.35,0.25-0.59,0.25c-0.24,0-0.43-0.09-0.58-0.26
					c-0.15-0.17-0.23-0.41-0.23-0.73v-4.68c0-0.31,0.07-0.54,0.2-0.69c0.14-0.15,0.32-0.23,0.55-0.23c0.14,0,0.27,0.03,0.39,0.1
					c0.11,0.07,0.21,0.17,0.28,0.3C206.93,477.85,206.96,478.01,206.96,478.2z"/>
				<path class="st14" d="M216.82,481h-3.17c0,0.37,0.08,0.69,0.22,0.97c0.14,0.28,0.34,0.49,0.58,0.64
					c0.24,0.14,0.5,0.21,0.79,0.21c0.19,0,0.37-0.02,0.53-0.07c0.16-0.05,0.32-0.12,0.47-0.21c0.15-0.1,0.29-0.2,0.42-0.31
					c0.13-0.11,0.29-0.26,0.49-0.45c0.08-0.07,0.2-0.11,0.36-0.11c0.17,0,0.3,0.05,0.4,0.14c0.1,0.09,0.15,0.22,0.15,0.38
					c0,0.15-0.06,0.32-0.17,0.51c-0.11,0.2-0.29,0.38-0.52,0.56c-0.23,0.18-0.52,0.33-0.87,0.45c-0.35,0.12-0.75,0.18-1.21,0.18
					c-1.04,0-1.85-0.3-2.43-0.89c-0.58-0.59-0.87-1.4-0.87-2.42c0-0.48,0.07-0.92,0.21-1.33c0.14-0.41,0.35-0.76,0.62-1.05
					c0.27-0.29,0.61-0.52,1.01-0.67c0.4-0.16,0.84-0.23,1.33-0.23c0.63,0,1.18,0.13,1.63,0.4c0.45,0.27,0.79,0.61,1.02,1.04
					c0.22,0.42,0.34,0.86,0.34,1.29c0,0.41-0.12,0.67-0.35,0.79C217.57,480.94,217.25,481,216.82,481z M213.65,480.08h2.94
					c-0.04-0.55-0.19-0.97-0.45-1.24c-0.26-0.27-0.6-0.41-1.02-0.41c-0.4,0-0.74,0.14-1,0.42
					C213.86,479.12,213.71,479.53,213.65,480.08z"/>
				<path class="st14" d="M223.43,482.97v-0.16c-0.22,0.25-0.43,0.45-0.64,0.61c-0.21,0.16-0.44,0.28-0.69,0.36
					c-0.25,0.08-0.52,0.12-0.81,0.12c-0.39,0-0.75-0.08-1.08-0.25c-0.33-0.16-0.62-0.4-0.86-0.7c-0.24-0.31-0.42-0.66-0.55-1.07
					c-0.13-0.41-0.19-0.86-0.19-1.33c0-1.01,0.25-1.8,0.74-2.37c0.5-0.57,1.15-0.85,1.95-0.85c0.47,0,0.86,0.08,1.18,0.24
					c0.32,0.16,0.63,0.41,0.94,0.74v-2.39c0-0.33,0.07-0.58,0.2-0.75c0.13-0.17,0.32-0.26,0.57-0.26c0.25,0,0.43,0.08,0.57,0.23
					c0.13,0.16,0.2,0.39,0.2,0.69v7.15c0,0.31-0.07,0.54-0.21,0.69c-0.14,0.15-0.33,0.23-0.55,0.23c-0.22,0-0.41-0.08-0.55-0.24
					C223.5,483.49,223.43,483.27,223.43,482.97z M220.24,480.59c0,0.44,0.07,0.81,0.21,1.12s0.32,0.54,0.56,0.7
					c0.24,0.16,0.5,0.24,0.78,0.24c0.29,0,0.55-0.07,0.78-0.22c0.24-0.15,0.42-0.38,0.56-0.68c0.14-0.31,0.21-0.69,0.21-1.15
					c0-0.43-0.07-0.8-0.21-1.11c-0.14-0.31-0.33-0.55-0.57-0.71c-0.24-0.16-0.5-0.25-0.79-0.25c-0.3,0-0.56,0.08-0.79,0.25
					c-0.23,0.17-0.41,0.41-0.54,0.72C220.31,479.81,220.24,480.17,220.24,480.59z"/>
				<path class="st14" d="M230.05,475.82v2.48c0.3-0.32,0.62-0.56,0.93-0.73c0.32-0.17,0.71-0.25,1.18-0.25
					c0.54,0,1.01,0.13,1.42,0.38c0.41,0.26,0.72,0.63,0.94,1.11c0.22,0.48,0.34,1.06,0.34,1.72c0,0.49-0.06,0.94-0.19,1.35
					c-0.13,0.41-0.31,0.76-0.54,1.06c-0.24,0.3-0.53,0.54-0.87,0.7c-0.34,0.17-0.71,0.25-1.12,0.25c-0.25,0-0.48-0.03-0.7-0.09
					c-0.22-0.06-0.41-0.14-0.56-0.23c-0.15-0.1-0.29-0.2-0.39-0.3c-0.11-0.1-0.25-0.26-0.43-0.46v0.16c0,0.31-0.07,0.54-0.22,0.69
					c-0.15,0.16-0.33,0.23-0.56,0.23c-0.23,0-0.41-0.08-0.55-0.23c-0.14-0.16-0.21-0.39-0.21-0.69v-7.08c0-0.33,0.07-0.58,0.2-0.74
					c0.13-0.17,0.32-0.25,0.56-0.25c0.25,0,0.44,0.08,0.58,0.24C229.99,475.3,230.05,475.53,230.05,475.82z M230.13,480.64
					c0,0.65,0.15,1.14,0.44,1.49c0.29,0.35,0.68,0.52,1.16,0.52c0.41,0,0.76-0.18,1.05-0.53c0.29-0.36,0.44-0.86,0.44-1.52
					c0-0.43-0.06-0.8-0.18-1.1c-0.12-0.31-0.3-0.55-0.52-0.72c-0.23-0.17-0.49-0.25-0.79-0.25c-0.31,0-0.59,0.08-0.83,0.25
					c-0.24,0.17-0.43,0.41-0.57,0.73C230.2,479.82,230.13,480.2,230.13,480.64z"/>
				<path class="st14" d="M236.96,484.1l0.15-0.36l-2-5.02c-0.12-0.29-0.18-0.5-0.18-0.63c0-0.14,0.04-0.27,0.11-0.38
					c0.07-0.12,0.17-0.21,0.29-0.29c0.12-0.07,0.25-0.11,0.39-0.11c0.23,0,0.41,0.07,0.53,0.22c0.12,0.15,0.22,0.36,0.31,0.64
					l1.37,3.99l1.3-3.71c0.1-0.3,0.2-0.54,0.28-0.71c0.08-0.17,0.17-0.29,0.26-0.34c0.09-0.06,0.22-0.09,0.4-0.09
					c0.12,0,0.24,0.03,0.35,0.1s0.2,0.15,0.26,0.27c0.06,0.11,0.09,0.23,0.09,0.35c-0.02,0.08-0.04,0.18-0.08,0.32
					c-0.04,0.14-0.08,0.28-0.13,0.42l-2.11,5.53c-0.18,0.49-0.36,0.87-0.53,1.15c-0.17,0.28-0.4,0.49-0.69,0.64
					c-0.29,0.15-0.67,0.22-1.16,0.22c-0.48,0-0.83-0.05-1.07-0.15c-0.24-0.1-0.36-0.29-0.36-0.56c0-0.19,0.06-0.33,0.17-0.43
					c0.11-0.1,0.28-0.15,0.5-0.15c0.09,0,0.17,0.01,0.26,0.04c0.1,0.02,0.19,0.04,0.27,0.04c0.19,0,0.33-0.03,0.44-0.08
					c0.11-0.05,0.2-0.15,0.29-0.29C236.75,484.56,236.85,484.36,236.96,484.1z"/>
			</g>
			<g>
				<path class="st14" d="M260.44,477.45h0.39v-0.49c0-0.51,0.06-0.91,0.19-1.21c0.13-0.3,0.35-0.52,0.65-0.65
					c0.31-0.13,0.73-0.2,1.26-0.2c0.95,0,1.42,0.23,1.42,0.7c0,0.15-0.05,0.28-0.15,0.38c-0.1,0.1-0.21,0.16-0.35,0.16
					c-0.06,0-0.17-0.01-0.33-0.04c-0.15-0.02-0.28-0.03-0.39-0.03c-0.29,0-0.48,0.09-0.57,0.26c-0.08,0.17-0.12,0.42-0.12,0.74v0.39
					h0.4c0.62,0,0.93,0.19,0.93,0.56c0,0.26-0.08,0.43-0.25,0.5c-0.16,0.07-0.39,0.11-0.68,0.11h-0.4v4.29
					c0,0.32-0.08,0.56-0.23,0.73c-0.15,0.17-0.35,0.25-0.59,0.25c-0.23,0-0.42-0.08-0.57-0.25c-0.15-0.17-0.23-0.41-0.23-0.73v-4.29
					h-0.45c-0.24,0-0.43-0.05-0.56-0.16c-0.13-0.11-0.2-0.25-0.2-0.42C259.63,477.64,259.9,477.45,260.44,477.45L260.44,477.45z"/>
				<path class="st14" d="M265.75,481.56v1.35c0,0.33-0.08,0.57-0.23,0.74c-0.15,0.17-0.35,0.25-0.59,0.25s-0.43-0.08-0.58-0.25
					c-0.15-0.16-0.23-0.41-0.23-0.73v-4.51c0-0.73,0.26-1.09,0.79-1.09c0.27,0,0.46,0.08,0.58,0.26c0.12,0.17,0.18,0.42,0.2,0.76
					c0.19-0.34,0.39-0.59,0.59-0.76c0.21-0.17,0.48-0.26,0.82-0.26c0.34,0,0.67,0.08,0.99,0.26c0.32,0.17,0.48,0.4,0.48,0.68
					c0,0.2-0.07,0.36-0.2,0.49c-0.14,0.13-0.29,0.2-0.44,0.2c-0.06,0-0.21-0.04-0.43-0.11c-0.23-0.07-0.43-0.11-0.6-0.11
					c-0.24,0-0.43,0.06-0.58,0.19c-0.15,0.13-0.27,0.31-0.35,0.55c-0.08,0.25-0.14,0.54-0.17,0.88
					C265.76,480.66,265.75,481.07,265.75,481.56L265.75,481.56z"/>
				<path class="st14" d="M273.2,481h-3.17c0.01,0.37,0.08,0.69,0.22,0.97c0.15,0.28,0.34,0.49,0.58,0.63
					c0.24,0.14,0.5,0.21,0.79,0.21c0.19,0,0.37-0.02,0.53-0.07c0.16-0.04,0.32-0.12,0.46-0.21c0.15-0.09,0.29-0.2,0.42-0.31
					c0.13-0.11,0.29-0.26,0.49-0.45c0.08-0.07,0.2-0.11,0.36-0.11c0.17,0,0.3,0.05,0.41,0.14c0.1,0.09,0.15,0.22,0.15,0.39
					c0,0.15-0.06,0.32-0.17,0.51c-0.12,0.2-0.29,0.38-0.52,0.57c-0.23,0.18-0.53,0.33-0.87,0.45c-0.35,0.12-0.75,0.18-1.21,0.18
					c-1.04,0-1.85-0.29-2.43-0.89c-0.58-0.6-0.87-1.4-0.87-2.42c0-0.48,0.07-0.92,0.22-1.33c0.14-0.41,0.35-0.76,0.62-1.05
					c0.27-0.29,0.61-0.52,1.01-0.67c0.4-0.16,0.84-0.23,1.33-0.23c0.63,0,1.18,0.13,1.63,0.4c0.45,0.26,0.8,0.61,1.02,1.03
					c0.23,0.43,0.34,0.86,0.34,1.3c0,0.41-0.12,0.67-0.35,0.79C273.95,480.94,273.63,481,273.2,481L273.2,481z M270.03,480.08h2.94
					c-0.04-0.55-0.19-0.97-0.45-1.24c-0.26-0.28-0.6-0.41-1.03-0.41c-0.4,0-0.74,0.14-0.99,0.42
					C270.24,479.12,270.08,479.53,270.03,480.08L270.03,480.08z"/>
				<path class="st14" d="M279.94,481h-3.17c0,0.37,0.08,0.69,0.22,0.97c0.15,0.28,0.34,0.49,0.58,0.63
					c0.24,0.14,0.5,0.21,0.79,0.21c0.19,0,0.37-0.02,0.53-0.07c0.16-0.04,0.32-0.12,0.47-0.21c0.15-0.09,0.29-0.2,0.42-0.31
					c0.12-0.11,0.29-0.26,0.49-0.45c0.08-0.07,0.2-0.11,0.36-0.11c0.17,0,0.3,0.05,0.41,0.14c0.1,0.09,0.15,0.22,0.15,0.39
					c0,0.15-0.05,0.32-0.17,0.51c-0.11,0.2-0.29,0.38-0.52,0.57c-0.23,0.18-0.52,0.33-0.87,0.45c-0.35,0.12-0.75,0.18-1.21,0.18
					c-1.04,0-1.85-0.29-2.43-0.89c-0.58-0.6-0.87-1.4-0.87-2.42c0-0.48,0.07-0.92,0.22-1.33c0.14-0.41,0.35-0.76,0.62-1.05
					c0.27-0.29,0.61-0.52,1.01-0.67c0.4-0.16,0.85-0.23,1.33-0.23c0.63,0,1.17,0.13,1.63,0.4c0.45,0.26,0.79,0.61,1.01,1.03
					c0.22,0.43,0.34,0.86,0.34,1.3c0,0.41-0.12,0.67-0.35,0.79C280.7,480.94,280.37,481,279.94,481L279.94,481z M276.77,480.08h2.94
					c-0.04-0.55-0.19-0.97-0.45-1.24c-0.26-0.28-0.6-0.41-1.03-0.41c-0.4,0-0.73,0.14-1,0.42
					C276.98,479.12,276.83,479.53,276.77,480.08L276.77,480.08z"/>
				<path class="st14" d="M283.5,478.21v0.19c0.3-0.38,0.62-0.65,0.95-0.83c0.32-0.18,0.7-0.27,1.11-0.27c0.5,0,0.96,0.13,1.38,0.39
					c0.42,0.26,0.75,0.63,0.99,1.13c0.24,0.5,0.37,1.08,0.37,1.76c0,0.5-0.07,0.96-0.21,1.38c-0.14,0.42-0.34,0.77-0.58,1.05
					c-0.25,0.28-0.54,0.5-0.87,0.65c-0.34,0.15-0.7,0.23-1.08,0.23c-0.46,0-0.85-0.09-1.17-0.28c-0.31-0.18-0.61-0.46-0.9-0.82v2.43
					c0,0.71-0.26,1.07-0.78,1.07c-0.31,0-0.5-0.09-0.61-0.27c-0.09-0.19-0.15-0.45-0.15-0.81v-7c0-0.31,0.07-0.54,0.2-0.69
					c0.13-0.15,0.32-0.23,0.55-0.23c0.23,0,0.42,0.08,0.56,0.23C283.42,477.7,283.5,477.92,283.5,478.21L283.5,478.21z
					 M286.67,480.57c0-0.43-0.07-0.8-0.2-1.1c-0.13-0.31-0.31-0.54-0.54-0.71c-0.23-0.16-0.49-0.25-0.77-0.25
					c-0.45,0-0.82,0.18-1.13,0.53c-0.31,0.35-0.46,0.87-0.46,1.56c0,0.64,0.15,1.14,0.46,1.5c0.3,0.36,0.68,0.54,1.13,0.54
					c0.27,0,0.52-0.08,0.75-0.23c0.23-0.16,0.42-0.39,0.55-0.7C286.6,481.39,286.67,481.01,286.67,480.57L286.67,480.57z"/>
				<path class="st14" d="M289.93,476.55c-0.23,0-0.42-0.07-0.58-0.21c-0.16-0.14-0.24-0.33-0.24-0.59c0-0.23,0.08-0.42,0.25-0.57
					c0.16-0.15,0.35-0.22,0.57-0.22c0.21,0,0.4,0.07,0.56,0.2c0.16,0.14,0.24,0.33,0.24,0.59c0,0.25-0.08,0.44-0.24,0.58
					C290.34,476.48,290.15,476.55,289.93,476.55L289.93,476.55z M290.74,478.22v4.69c0,0.32-0.08,0.57-0.23,0.73
					c-0.16,0.17-0.35,0.25-0.59,0.25c-0.24,0-0.43-0.08-0.58-0.25c-0.15-0.17-0.22-0.42-0.22-0.73v-4.64c0-0.32,0.08-0.56,0.22-0.72
					c0.15-0.17,0.34-0.25,0.58-0.25c0.24,0,0.43,0.08,0.59,0.25C290.66,477.71,290.74,477.94,290.74,478.22L290.74,478.22z"/>
				<path class="st14" d="M295.96,483.16l-1.43-2.35l-0.88,0.83v1.29c0,0.31-0.08,0.55-0.25,0.72c-0.16,0.17-0.35,0.25-0.57,0.25
					c-0.25,0-0.45-0.08-0.59-0.25c-0.14-0.16-0.21-0.41-0.21-0.73V476c0-0.36,0.07-0.63,0.21-0.82c0.14-0.19,0.34-0.28,0.6-0.28
					c0.25,0,0.45,0.08,0.59,0.26c0.15,0.17,0.22,0.42,0.22,0.75v3.93l1.82-1.91c0.23-0.23,0.4-0.4,0.52-0.49
					c0.12-0.09,0.26-0.13,0.43-0.13c0.2,0,0.37,0.06,0.51,0.19c0.13,0.13,0.2,0.29,0.2,0.48c0,0.24-0.22,0.56-0.66,0.95l-0.86,0.79
					l1.66,2.61c0.12,0.2,0.21,0.34,0.26,0.44c0.05,0.1,0.08,0.2,0.08,0.29c0,0.26-0.07,0.46-0.21,0.61
					c-0.14,0.15-0.33,0.22-0.55,0.22c-0.2,0-0.35-0.05-0.46-0.16C296.29,483.63,296.14,483.43,295.96,483.16L295.96,483.16z"/>
				<path class="st14" d="M299.49,483.89c-0.25,0-0.46-0.08-0.63-0.24c-0.18-0.16-0.27-0.38-0.27-0.66c0-0.24,0.09-0.45,0.26-0.62
					c0.17-0.17,0.38-0.26,0.63-0.26c0.25,0,0.46,0.09,0.64,0.26c0.17,0.17,0.26,0.38,0.26,0.63c0,0.28-0.09,0.5-0.26,0.66
					C299.93,483.82,299.72,483.89,299.49,483.89L299.49,483.89z"/>
				<path class="st14" d="M307.55,481.89c0,0.2-0.06,0.42-0.18,0.65c-0.12,0.23-0.3,0.45-0.55,0.66c-0.25,0.21-0.56,0.38-0.93,0.5
					c-0.38,0.13-0.8,0.19-1.27,0.19c-1,0-1.79-0.29-2.35-0.88c-0.56-0.58-0.84-1.37-0.84-2.35c0-0.67,0.13-1.25,0.39-1.76
					c0.25-0.51,0.63-0.9,1.11-1.18c0.49-0.28,1.07-0.42,1.75-0.42c0.42,0,0.8,0.06,1.16,0.18c0.35,0.12,0.65,0.28,0.89,0.47
					c0.24,0.2,0.43,0.4,0.55,0.62c0.13,0.22,0.19,0.43,0.19,0.62s-0.07,0.36-0.21,0.49c-0.15,0.13-0.32,0.2-0.52,0.2
					c-0.14,0-0.25-0.04-0.34-0.1c-0.09-0.07-0.19-0.18-0.3-0.34c-0.2-0.3-0.4-0.53-0.62-0.67c-0.21-0.15-0.49-0.23-0.82-0.23
					c-0.48,0-0.86,0.19-1.16,0.56c-0.29,0.37-0.44,0.89-0.44,1.53c0,0.31,0.04,0.59,0.12,0.84c0.07,0.25,0.18,0.47,0.32,0.65
					c0.14,0.18,0.32,0.31,0.52,0.41c0.2,0.1,0.43,0.14,0.66,0.14c0.33,0,0.6-0.07,0.84-0.22c0.24-0.15,0.44-0.38,0.62-0.69
					c0.1-0.18,0.2-0.32,0.32-0.43c0.11-0.1,0.25-0.15,0.42-0.15c0.2,0,0.36,0.08,0.49,0.23
					C307.48,481.56,307.55,481.72,307.55,481.89L307.55,481.89z"/>
				<path class="st14" d="M314.54,480.6c0,0.48-0.08,0.93-0.22,1.34c-0.15,0.41-0.37,0.76-0.66,1.05c-0.28,0.29-0.63,0.52-1.02,0.68
					c-0.4,0.15-0.84,0.23-1.34,0.23c-0.49,0-0.93-0.08-1.33-0.24c-0.39-0.16-0.73-0.38-1.02-0.68c-0.29-0.3-0.51-0.65-0.66-1.05
					c-0.14-0.4-0.22-0.85-0.22-1.33c0-0.49,0.08-0.94,0.22-1.35c0.15-0.41,0.37-0.76,0.65-1.05c0.28-0.29,0.62-0.51,1.02-0.67
					c0.4-0.16,0.84-0.23,1.33-0.23c0.49,0,0.94,0.08,1.34,0.24c0.4,0.16,0.74,0.38,1.03,0.67c0.29,0.3,0.5,0.64,0.65,1.04
					C314.47,479.67,314.54,480.11,314.54,480.6L314.54,480.6z M312.92,480.6c0-0.66-0.15-1.17-0.44-1.54
					c-0.29-0.37-0.68-0.55-1.17-0.55c-0.32,0-0.6,0.08-0.84,0.25c-0.24,0.16-0.43,0.41-0.56,0.73c-0.13,0.32-0.2,0.7-0.2,1.12
					c0,0.43,0.06,0.79,0.19,1.11c0.13,0.32,0.31,0.56,0.55,0.73c0.24,0.17,0.52,0.25,0.84,0.25c0.49,0,0.88-0.18,1.17-0.56
					C312.77,481.76,312.92,481.25,312.92,480.6L312.92,480.6z"/>
				<path class="st14" d="M320.73,480.72v2.15c0,0.34-0.08,0.59-0.23,0.77c-0.16,0.17-0.36,0.26-0.61,0.26
					c-0.25,0-0.45-0.09-0.59-0.26c-0.15-0.17-0.23-0.43-0.23-0.77v-2.58c0-0.41-0.01-0.73-0.04-0.95c-0.03-0.22-0.1-0.41-0.22-0.55
					c-0.12-0.15-0.32-0.22-0.58-0.22c-0.53,0-0.88,0.18-1.05,0.55c-0.17,0.36-0.25,0.88-0.25,1.57v2.19c0,0.34-0.08,0.59-0.23,0.77
					c-0.16,0.17-0.36,0.26-0.6,0.26c-0.25,0-0.45-0.09-0.6-0.26c-0.16-0.17-0.24-0.43-0.24-0.77v-4.64c0-0.31,0.07-0.54,0.21-0.69
					c0.14-0.16,0.33-0.24,0.56-0.24c0.22,0,0.41,0.08,0.56,0.22c0.15,0.15,0.22,0.35,0.22,0.62v0.15c0.28-0.33,0.58-0.58,0.9-0.74
					c0.32-0.16,0.68-0.24,1.07-0.24c0.41,0,0.76,0.08,1.05,0.24c0.29,0.16,0.53,0.41,0.73,0.74c0.27-0.33,0.57-0.58,0.88-0.74
					c0.31-0.16,0.66-0.24,1.04-0.24c0.44,0,0.83,0.09,1.15,0.26c0.32,0.17,0.56,0.43,0.72,0.75c0.14,0.29,0.21,0.76,0.21,1.38v3.16
					c0,0.34-0.08,0.59-0.23,0.77c-0.15,0.17-0.36,0.26-0.61,0.26c-0.25,0-0.45-0.09-0.6-0.26c-0.16-0.17-0.24-0.43-0.24-0.77v-2.73
					c0-0.35-0.01-0.63-0.04-0.84c-0.03-0.21-0.11-0.39-0.24-0.53c-0.13-0.14-0.33-0.21-0.6-0.21c-0.21,0-0.42,0.07-0.61,0.19
					c-0.19,0.12-0.34,0.3-0.45,0.51C320.79,479.54,320.73,480.03,320.73,480.72L320.73,480.72z"/>
			</g>
			<g>
				<path class="st14" d="M245.27,480.21c0,0,0-0.01,0-0.01C245.27,480.2,245.27,480.21,245.27,480.21z"/>
				<path class="st14" d="M245.35,480.73C245.35,480.73,245.35,480.73,245.35,480.73c-0.03-0.15-0.05-0.29-0.07-0.44
					C245.3,480.43,245.32,480.58,245.35,480.73z"/>
				<path class="st14" d="M245.89,482.23c0-0.01-0.01-0.01-0.01-0.02C245.88,482.22,245.89,482.22,245.89,482.23z"/>
				<path class="st14" d="M245.84,482.13c-0.01-0.03-0.03-0.06-0.04-0.08C245.81,482.08,245.82,482.1,245.84,482.13z"/>
				<path class="st14" d="M245.5,481.31c0.08,0.25,0.17,0.49,0.29,0.72C245.68,481.79,245.58,481.55,245.5,481.31L245.5,481.31z"/>
				<path class="st14" d="M251.55,474c0.31,0,0.54,0.03,0.81,0.07l0.08-0.48c0,0-0.73-0.23-1.69-0.15l-0.08-0.26
					c0.3-0.06,0.52-0.33,0.52-0.65c0-0.36-0.3-0.66-0.66-0.66c-0.37,0-0.66,0.3-0.66,0.66c0,0.32,0.22,0.58,0.52,0.65l0.08,0.29
					c-1.02,0.14-1.83,0.54-1.83,0.54l0.14,0.44c0.62-0.21,1.15-0.33,1.64-0.38C250.9,474.02,251.25,474,251.55,474z"/>
				<path class="st14" d="M245.88,476.41L245.88,476.41c0.03-0.04,0.05-0.07,0.07-0.09l-0.2-0.14l-0.3-0.22
					c-0.02,0.02-0.5,0.47-0.88,1.28c-0.02-0.03-0.04-0.05-0.06-0.07c-0.11-0.12-0.27-0.19-0.47-0.18c0,0-0.01,0-0.01,0
					c-0.13,0-0.21-0.04-0.27-0.09c0.06-0.07,0.09-0.16,0.09-0.26c0-0.23-0.19-0.42-0.42-0.42c-0.23,0-0.42,0.19-0.42,0.42
					c0,0.23,0.19,0.42,0.42,0.42c0.04,0,0.07-0.01,0.11-0.01c0.1,0.11,0.26,0.21,0.5,0.21c0.12,0,0.21,0.03,0.27,0.1
					c0.07,0.08,0.09,0.19,0.1,0.27c0,0,0,0,0,0c-0.27,0.74-0.2,1.67-0.2,1.67l0.66,0.03c0.01-0.34,0.06-0.93,0.23-1.39
					C245.45,477,245.86,476.43,245.88,476.41z"/>
				<path class="st14" d="M257.3,474.55c-0.23,0-0.42,0.19-0.42,0.42c0,0.04,0,0.07,0.01,0.1c-0.11,0.1-0.21,0.27-0.21,0.51
					c0,0.12-0.03,0.21-0.1,0.27c-0.05,0.05-0.12,0.07-0.18,0.09c-0.49-0.69-1.1-1.11-1.1-1.11l-0.47,0.51
					c0.36,0.33,0.73,0.73,1.08,1.24c0.25,0.35,0.5,0.8,0.71,1.26l0.64-0.3c0,0-0.29-0.72-0.7-1.37c0.07-0.02,0.14-0.06,0.21-0.12
					c0.13-0.11,0.19-0.27,0.18-0.47c0-0.13,0.04-0.22,0.09-0.28c0.07,0.05,0.16,0.09,0.26,0.09c0.23,0,0.42-0.19,0.42-0.42
					C257.71,474.74,257.53,474.55,257.3,474.55z"/>
				<path class="st14" d="M255.64,480.3c-0.88,0.43-2.33,1-4.24,1.26c-0.75,0.1-1.47,0.14-2.14,0.14c-0.87,0-1.64-0.06-2.23-0.14
					c-0.67-0.08-1.2-0.19-1.52-0.26c0.08,0.24,0.17,0.49,0.28,0.72c0,0.01,0,0.01,0.01,0.02c0.01,0.03,0.03,0.06,0.04,0.08
					c0.01,0.03,0.03,0.05,0.04,0.08c0,0.01,0.01,0.01,0.01,0.02c0.19,0.36,0.42,0.68,0.68,0.97c0.9,0.99,1.82,1.14,1.83,1.14l0.01,0
					l0.01,0c0.01,0,0.82,0.26,2.06,0.26c1.22,0,2.41-0.25,3.55-0.73c0.84-0.43,1.64-1.09,2.03-1.67c0.3-0.45,0.53-0.93,0.66-1.43
					c0.07-0.27,0.13-0.69,0.09-1.14C256.56,479.81,256.17,480.04,255.64,480.3z"/>
				<path class="st14" d="M246.16,476.62c-0.03,0.04-0.41,0.58-0.71,1.41c-0.23,0.62-0.22,1.53-0.22,1.54l0,0
					c0,0.21,0.01,0.42,0.04,0.63c0,0,0,0.01,0,0.01c0,0.03,0.01,0.05,0.01,0.08c0.02,0.14,0.04,0.29,0.07,0.44
					c0.44,0.11,3.05,0.72,5.97,0.31c1.83-0.25,3.22-0.79,4.06-1.2c0.7-0.34,1.15-0.65,1.33-0.77c-0.17-0.64-0.65-1.65-1.09-2.28
					c-1.25-1.79-2.61-2.25-3.3-2.37c-0.26-0.04-0.48-0.07-0.78-0.07c-0.28,0-0.63,0.02-1.09,0.07c-0.46,0.05-0.98,0.17-1.58,0.37
					c-0.84,0.28-1.6,0.73-2.2,1.28l-0.02,0.02C246.56,476.17,246.37,476.35,246.16,476.62z M253.83,476.2c0.6,0,1.09,0.49,1.09,1.09
					c0,0.6-0.49,1.09-1.09,1.09s-1.09-0.49-1.09-1.09C252.74,476.69,253.23,476.2,253.83,476.2z M248.68,476.16
					c0.97,0,1.76,0.79,1.76,1.76c0,0.97-0.79,1.76-1.76,1.76c-0.97,0-1.76-0.79-1.76-1.76
					C246.92,476.95,247.71,476.16,248.68,476.16z"/>
			</g>
		</g>
	</g>
</g>
</svg>
