<?xml version="1.0" encoding="utf-8"?>
<!-- Generator: Adobe Illustrator 24.1.2, SVG Export Plug-In . SVG Version: 6.00 Build 0)  -->
<svg version="1.1" xmlns="http://www.w3.org/2000/svg" xmlns:xlink="http://www.w3.org/1999/xlink" x="0px" y="0px"
	 viewBox="0 0 500 500" style="enable-background:new 0 0 500 500;" xml:space="preserve">
<style type="text/css">
	.st0{fill:#FFFFFF;}
	.st1{fill:#E9D041;}
	.st2{fill:#792B8C;}
	.st3{font-family:'LeagueSpartan-Bold';}
	.st4{font-size:18px;}
	.st5{fill:#B53868;}
	.st6{fill:#699E80;}
	.st7{fill:#5C96AF;}
	.st8{fill:#446D9C;}
	.st9{fill:#9440AA;}
	.st10{fill:none;stroke:#9440AA;stroke-width:2;stroke-miterlimit:10;}
	.st11{fill:#D14D79;}
	.st12{fill:none;stroke:#D14D79;stroke-width:2;stroke-miterlimit:10;}
	.st13{fill:none;}
	.st14{fill:#494949;}
	.st15{font-family:'OpenSans';}
	.st16{font-size:6px;}
	.st17{font-family:'Raleway-Bold';}
	.st18{font-size:7px;}
	.st19{fill:none;stroke:#494949;stroke-miterlimit:10;}
	.st20{fill:#86BFA3;}
	.st21{fill:none;stroke:#86BFA3;stroke-width:2;stroke-miterlimit:10;}
	.st22{fill:#79B8D8;}
	.st23{fill:none;stroke:#79B8D8;stroke-width:2;stroke-miterlimit:10;}
	.st24{fill:#5480BC;}
	.st25{fill:none;stroke:#5480BC;stroke-width:2;stroke-miterlimit:10;}
	.st26{fill:none;stroke:#F4F4F4;stroke-width:1.0605;stroke-miterlimit:10;}
	.st27{fill:none;stroke:#FFFFFF;stroke-width:1.3831;stroke-miterlimit:10;}
	.st28{fill:none;stroke:#FFFFFF;stroke-width:1.383;stroke-linecap:round;stroke-linejoin:round;stroke-miterlimit:10;}
	.st29{fill:none;stroke:#FFFFFF;stroke-linecap:round;stroke-miterlimit:10;}
	.st30{fill:#CCAF2F;}
	.st31{font-size:17.1473px;}
	.st32{letter-spacing:1;}
	.st33{fill:none;stroke:#494949;stroke-width:3;stroke-miterlimit:10;}
	.st34{fill:#4A4A4A;}
	.st35{letter-spacing:3;}
	.st36{fill:#DBDBDB;}
</style>
<g id="Background">
	<rect class="st0" width="500" height="500"/>
</g>
<g id="Objects">
	<g>
		<rect x="13.01" y="48.59" class="st1" width="111.96" height="8.56"/>
		<rect x="372.03" y="48.59" class="st1" width="114.96" height="8.56"/>
		<g>
			<text transform="matrix(1 0 0 1 420.3247 252)" class="st2 st3 st4">05</text>
			<text transform="matrix(1 0 0 1 336.1477 144.0353)" class="st5 st3 st4">04</text>
			<text transform="matrix(1 0 0 1 38.3164 252)" class="st6 st3 st4">01</text>
			<text transform="matrix(1 0 0 1 123.4933 144.0353)" class="st7 st3 st4">02</text>
			<text transform="matrix(1 0 0 1 230.6169 105.9136)" class="st8 st3 st4">03</text>
			<path class="st9" d="M302.48,385.73c0-2.04-1.65-3.69-3.69-3.69c-2.04,0-3.69,1.65-3.69,3.69c0,2.04,1.65,3.69,3.69,3.69
				C300.83,389.41,302.48,387.76,302.48,385.73z"/>
			<path class="st10" d="M433.24,389.59c-1.94,18.73-18.35,32.95-37.17,32.39c-0.11,0-0.23-0.01-0.34-0.01
				c-4.21-0.16-8.32-1.33-12.1-3.18l-67.44-33.05l67.45-33.06c3.71-1.82,7.73-2.98,11.85-3.17c0.55-0.02,1.11-0.04,1.67-0.04
				C418.44,349.47,435.49,367.87,433.24,389.59z"/>
			<path class="st9" d="M397.18,353.47c17.82,0,32.27,14.45,32.27,32.26c0,17.82-14.44,32.26-32.27,32.26
				c-4.87,0-9.48-1.08-13.62-3.02v0.01l-0.12-0.06l-58.3-29.19l58.29-29.19l0.13-0.07v0.01
				C387.69,354.55,392.31,353.47,397.18,353.47z"/>
			<path class="st2" d="M397.18,415c-4.87,0-9.48-1.08-13.62-3.02v0.01l-0.12-0.06l-55.3-27.69l-3,1.5l58.3,29.19l0.12,0.06v-0.01
				c4.14,1.93,8.75,3.02,13.62,3.02c17.82,0,32.27-14.44,32.27-32.26c0-0.5-0.02-1-0.04-1.5C428.62,401.36,414.49,415,397.18,415z"
				/>
			<line class="st10" x1="317.56" y1="385.73" x2="298.79" y2="385.73"/>
			<path class="st11" d="M282.4,353.02c-1.43-1.45-3.77-1.47-5.22-0.04c-1.45,1.43-1.47,3.76-0.04,5.22
				c1.43,1.45,3.76,1.47,5.22,0.04C283.81,356.81,283.83,354.47,282.4,353.02z"/>
			<line class="st12" x1="293.15" y1="342.45" x2="279.77" y2="355.62"/>
			<path class="st12" d="M379.11,263.14c11.77,14.7,10.07,36.34-3.72,49.16c-0.08,0.08-0.17,0.15-0.25,0.23
				c-3.11,2.84-6.86,4.89-10.85,6.23l-71.23,23.82l24.81-70.9c1.36-3.9,3.41-7.55,6.22-10.58c0.38-0.41,0.76-0.81,1.16-1.2
				C340.4,244.96,365.47,246.09,379.11,263.14z"/>
			<path class="st11" d="M328.07,262.75c12.69-12.51,33.12-12.37,45.63,0.32c12.51,12.69,12.37,33.11-0.32,45.63
				c-3.47,3.42-7.51,5.89-11.82,7.42l0,0l-0.13,0.04l-62.01,20.15l21.01-61.71l0.05-0.14l0,0
				C322.08,270.18,324.6,266.16,328.07,262.75z"/>
			<path class="st5" d="M373.38,305.69c-3.47,3.42-7.51,5.89-11.82,7.42l0,0l-0.13,0.04l-60.86,19.78l-1.15,3.37l62.01-20.15
				l0.13-0.04l0,0c4.3-1.53,8.35-4,11.82-7.42c6.79-6.7,9.98-15.66,9.57-24.49C382.59,292.03,379.4,299.75,373.38,305.69z"/>
			<g>
				<g>
					<rect x="415.33" y="273.47" class="st13" width="52.16" height="73.53"/>
					<text transform="matrix(1 0 0 1 415.3279 277.7312)" class="st14 st15 st16">#TEXT5</text>
				</g>
				<text transform="matrix(1 0 0 1 415.9525 263.3836)" class="st9 st17 st18">#KEYWORD5</text>
				<line class="st19" x1="415.95" y1="268.47" x2="464.63" y2="268.47"/>
			</g>
			<polyline class="st10" points="425.23,362.77 440.41,362.77 440.41,349.47 			"/>
			<line class="st12" x1="356.53" y1="249.47" x2="356.53" y2="239.03"/>
			<text transform="matrix(1 0 0 1 419.3247 252)" class="st9 st3 st4">05</text>
			<g>
				<g>
					<rect x="331.45" y="165.51" class="st13" width="52.16" height="73.53"/>
					<text transform="matrix(1 0 0 1 331.451 169.7666)" class="st14 st15 st16">#TEXT4</text>
				</g>
				<text transform="matrix(1 0 0 1 332.0769 155.419)" class="st11 st17 st18">#KEYWORD4</text>
				<line class="st19" x1="332.08" y1="160.51" x2="380.75" y2="160.51"/>
			</g>
			<text transform="matrix(1 0 0 1 335.1477 144.0353)" class="st11 st3 st4">04</text>
			<path class="st20" d="M196.93,385.73c0-2.04,1.65-3.69,3.69-3.69c2.04,0,3.69,1.65,3.69,3.69c0,2.04-1.65,3.69-3.69,3.69
				C198.58,389.41,196.93,387.76,196.93,385.73z"/>
			<path class="st21" d="M66.17,389.59c1.94,18.73,18.35,32.95,37.17,32.39c0.11,0,0.23-0.01,0.34-0.01
				c4.21-0.16,8.32-1.33,12.1-3.18l67.44-33.05l-67.45-33.06c-3.71-1.82-7.73-2.98-11.85-3.17c-0.55-0.02-1.11-0.04-1.67-0.04
				C80.96,349.47,63.91,367.87,66.17,389.59z"/>
			<path class="st20" d="M102.23,353.47c-17.82,0-32.27,14.45-32.27,32.26c0,17.82,14.44,32.26,32.27,32.26
				c4.87,0,9.48-1.08,13.62-3.02v0.01l0.12-0.06l58.3-29.19l-58.29-29.19l-0.13-0.07v0.01C111.71,354.55,107.1,353.47,102.23,353.47
				z"/>
			<path class="st6" d="M115.98,411.93l-0.12,0.06v-0.01c-4.14,1.93-8.75,3.02-13.62,3.02c-17.32,0-31.44-13.64-32.23-30.76
				c-0.02,0.5-0.04,1-0.04,1.5c0,17.82,14.44,32.26,32.27,32.26c4.87,0,9.48-1.08,13.62-3.02v0.01l0.12-0.06l58.3-29.19l-3-1.5
				L115.98,411.93z"/>
			<line class="st21" x1="181.85" y1="385.73" x2="200.62" y2="385.73"/>
			<path class="st22" d="M217.01,353.02c1.43-1.45,3.77-1.47,5.22-0.04c1.45,1.43,1.47,3.76,0.04,5.22
				c-1.43,1.45-3.76,1.47-5.22,0.04C215.6,356.81,215.58,354.47,217.01,353.02z"/>
			<line class="st23" x1="206.26" y1="342.45" x2="219.63" y2="355.62"/>
			<path class="st24" d="M250,341.31c2.04,0,3.69,1.65,3.69,3.69c0,2.04-1.65,3.69-3.69,3.69c-2.04,0-3.69-1.65-3.69-3.69
				C246.31,342.96,247.96,341.31,250,341.31z"/>
			<g>
				<path class="st25" d="M246.15,210.55c-18.73,1.94-32.95,18.35-32.39,37.17c0,0.11,0.01,0.23,0.01,0.34
					c0.16,4.21,1.33,8.32,3.18,12.1L250,327.59l33.06-67.45c1.82-3.71,2.98-7.73,3.17-11.85c0.02-0.55,0.04-1.11,0.04-1.67
					C286.26,225.35,267.86,208.29,246.15,210.55z"/>
				<path class="st24" d="M282.26,246.61c0-17.82-14.45-32.27-32.26-32.27c-17.82,0-32.26,14.44-32.26,32.27
					c0,4.87,1.08,9.48,3.02,13.62h-0.01l0.06,0.12l29.19,58.3l29.19-58.29l0.07-0.13h-0.01
					C281.18,256.1,282.26,251.48,282.26,246.61z"/>
				<path class="st8" d="M223.81,260.36l-0.06-0.12h0.01c-1.93-4.14-3.02-8.75-3.02-13.62c0-17.32,13.64-31.44,30.76-32.23
					c-0.5-0.02-1-0.04-1.5-0.04c-17.82,0-32.26,14.44-32.26,32.27c0,4.87,1.08,9.48,3.02,13.62h-0.01l0.06,0.12l29.19,58.3l1.5-3
					L223.81,260.36z"/>
			</g>
			<path class="st23" d="M120.3,263.14c-11.77,14.7-10.07,36.34,3.72,49.16c0.08,0.08,0.17,0.15,0.25,0.23
				c3.11,2.84,6.85,4.89,10.85,6.23l71.23,23.82l-24.81-70.9c-1.36-3.9-3.41-7.55-6.22-10.58c-0.38-0.41-0.76-0.81-1.16-1.2
				C159,244.96,133.94,246.09,120.3,263.14z"/>
			<path class="st22" d="M171.34,262.75c-12.69-12.51-33.12-12.37-45.63,0.32c-12.51,12.69-12.37,33.11,0.32,45.63
				c3.47,3.42,7.51,5.89,11.82,7.42l0,0l0.13,0.04l62.01,20.15l-21.01-61.71l-0.05-0.14l0,0
				C177.33,270.18,174.8,266.16,171.34,262.75z"/>
			<path class="st7" d="M137.97,313.15l-0.13-0.04l0,0c-4.3-1.53-8.35-4-11.82-7.42c-6.02-5.94-9.21-13.66-9.57-21.49
				c-0.41,8.83,2.78,17.79,9.57,24.49c3.47,3.42,7.51,5.89,11.82,7.42l0,0l0.13,0.04l62.01,20.15l-1.15-3.37L137.97,313.15z"/>
			<g>
				<path class="st26" d="M116.79,376.61c0,6.05-4.91,10.96-10.96,10.96c-6.05,0-10.96-4.91-10.96-10.96
					c0-6.05,4.91-10.96,10.96-10.96C111.89,365.65,116.79,370.56,116.79,376.61z"/>
				<path class="st26" d="M112.33,376.61c0,6.05-2.91,10.96-6.49,10.96c-3.59,0-6.49-4.91-6.49-10.96c0-6.05,2.91-10.96,6.49-10.96
					C109.42,365.65,112.33,370.56,112.33,376.61z"/>
				<line class="st26" x1="105.83" y1="365.65" x2="105.83" y2="387.57"/>
				<line class="st26" x1="94.87" y1="376.61" x2="116.79" y2="376.61"/>
				<line class="st26" x1="96.81" y1="370.52" x2="115.13" y2="370.52"/>
				<line class="st26" x1="96.72" y1="382.7" x2="114.8" y2="382.7"/>
			</g>
			<path class="st0" d="M401.21,372.33c0-4.23-3.43-7.65-7.65-7.65c-4.23,0-7.65,3.43-7.65,7.65c0,1.16,0.26,2.25,0.72,3.23h-0.01
				l0.18,0.35c0.01,0.03,0.03,0.05,0.04,0.08l6.72,13.43l6.93-13.86h-0.01C400.95,374.58,401.21,373.49,401.21,372.33z
				 M393.57,377.02c-2.59,0-4.7-2.1-4.7-4.69c0-2.59,2.11-4.69,4.7-4.69c2.59,0,4.69,2.1,4.69,4.69
				C398.25,374.92,396.16,377.02,393.57,377.02z"/>
			<g>
				<path class="st27" d="M251.53,239.53c-1.6,3.45-5.69,4.95-9.14,3.36c-3.45-1.6-4.95-5.69-3.36-9.15
					c1.6-3.45,5.69-4.95,9.14-3.36C251.63,231.98,253.13,236.08,251.53,239.53z"/>
				<path class="st28" d="M240.97,235.71c0.6-1.29,1.55-2.31,2.69-3"/>
				<path class="st0" d="M261.53,244.16c-0.18,0.39-0.59,0.58-0.91,0.43l-8.85-4.1c-0.32-0.15-0.44-0.59-0.26-0.98l0,0
					c0.18-0.39,0.59-0.58,0.92-0.43l8.85,4.1C261.59,243.33,261.71,243.77,261.53,244.16L261.53,244.16z"/>
			</g>
			<g>
				<path class="st0" d="M366.35,282.89c0,2.78-3.24,5.04-7.24,5.04c-4,0-7.24-2.25-7.24-5.04c0-2.78,3.24-5.04,7.24-5.04
					C363.11,277.85,366.35,280.11,366.35,282.89z"/>
				<path class="st0" d="M354.95,286.3c0,0,0.5,2.32-0.83,3.2c0,0,2.55-0.92,3.18-2.01C357.92,286.41,354.95,286.3,354.95,286.3z"/>
			</g>
			<g>
				<path class="st0" d="M332.72,276.63c0,3.51,4.09,6.36,9.14,6.36c5.05,0,9.14-2.84,9.14-6.36c0-3.51-4.09-6.36-9.14-6.36
					C336.82,270.28,332.72,273.12,332.72,276.63z"/>
				<path class="st0" d="M347.11,280.94c0,0-0.63,2.93,1.04,4.03c0,0-3.22-1.16-4.01-2.53
					C343.36,281.08,347.11,280.94,347.11,280.94z"/>
			</g>
			<g>
				<rect x="140.83" y="283.72" class="st0" width="4.09" height="4.39"/>
				<rect x="146.97" y="281.46" class="st0" width="4.09" height="6.65"/>
				<rect x="153.11" y="278.13" class="st0" width="4.09" height="9.98"/>
				<rect x="159.25" y="275.32" class="st0" width="4.09" height="12.79"/>
				<g>
					<line class="st29" x1="140.83" y1="278.13" x2="159.25" y2="270.46"/>
					<path class="st0" d="M156.71,268.31l2.18,2.38l0.15,3.23c0.82-1.66,2.46-3.59,3.87-4.91
						C160.99,269.09,158.47,268.9,156.71,268.31z"/>
				</g>
			</g>
			<g>
				<path class="st0" d="M298.2,394.55c0,26.62-21.58,48.2-48.2,48.2c-26.62,0-48.2-21.58-48.2-48.2c0-26.62,21.58-48.2,48.2-48.2
					C276.62,346.35,298.2,367.93,298.2,394.55z"/>
				<g>
					<path class="st1" d="M250,348.35c25.47,0,46.2,20.72,46.2,46.2c0,25.47-20.72,46.2-46.2,46.2c-25.47,0-46.2-20.72-46.2-46.2
						C203.8,369.08,224.53,348.35,250,348.35 M250,346.35c-26.62,0-48.2,21.58-48.2,48.2c0,26.62,21.58,48.2,48.2,48.2
						c26.62,0,48.2-21.58,48.2-48.2C298.2,367.93,276.62,346.35,250,346.35L250,346.35z"/>
				</g>
				
					<ellipse transform="matrix(0.9946 -0.1034 0.1034 0.9946 -39.4586 27.9666)" class="st1" cx="250" cy="394.55" rx="43.11" ry="43.11"/>
				<path class="st30" d="M210.89,394.55c0-23.14,18.23-42.01,41.11-43.06c-0.66-0.03-1.33-0.05-2-0.05
					c-23.81,0-43.11,19.3-43.11,43.11c0,23.81,19.3,43.11,43.11,43.11c0.67,0,1.34-0.02,2-0.05
					C229.12,436.56,210.89,417.69,210.89,394.55z"/>
				<g>
					<text transform="matrix(1 0 0 1 227.3368 388.8731)" class="st14 st3 st31">MAPA</text>
					<text transform="matrix(1 0 0 1 215.0243 412.5127)" class="st14 st3 st4 st32">MENTAL</text>
				</g>
			</g>
			<line class="st25" x1="250" y1="326.23" x2="250" y2="345"/>
			<g>
				<g>
					<rect x="35.62" y="273.47" class="st13" width="52.16" height="73.53"/>
					<text transform="matrix(1 0 0 1 35.6205 277.7313)" class="st14 st15 st16">#TEXT1</text>
				</g>
				<text transform="matrix(1 0 0 1 36.2452 263.3837)" class="st20 st17 st18">#KEYWORD1</text>
				<line class="st19" x1="36.25" y1="268.47" x2="84.92" y2="268.47"/>
			</g>
			<polyline class="st21" points="74.18,362.77 59,362.77 59,349.47 			"/>
			<line class="st23" x1="142.88" y1="249.47" x2="142.88" y2="239.03"/>
			<line class="st25" x1="250" y1="211.35" x2="250" y2="200.91"/>
			<text transform="matrix(1 0 0 1 37.3164 252)" class="st20 st3 st4">01</text>
			<g>
				<g>
					<rect x="117.8" y="165.51" class="st13" width="52.16" height="73.53"/>
					<text transform="matrix(1 0 0 1 117.7979 169.7666)" class="st14 st15 st16">#TEXT2</text>
				</g>
				<text transform="matrix(1 0 0 1 118.4221 155.419)" class="st22 st17 st18">#KEYWORD2</text>
				<line class="st19" x1="118.42" y1="160.51" x2="167.1" y2="160.51"/>
			</g>
			<text transform="matrix(1 0 0 1 122.4933 144.0353)" class="st22 st3 st4">02</text>
			<g>
				<g>
					<rect x="224.92" y="127.39" class="st13" width="52.16" height="73.53"/>
					<text transform="matrix(1 0 0 1 224.921 131.6449)" class="st14 st15 st16">#TEXT3</text>
				</g>
				<text transform="matrix(1 0 0 1 225.5457 117.2973)" class="st24 st17 st18">#KEYWORD3</text>
				<line class="st19" x1="225.55" y1="122.39" x2="274.22" y2="122.39"/>
			</g>
			<text transform="matrix(1 0 0 1 229.6169 105.9136)" class="st24 st3 st4">03</text>
		</g>
		<rect x="13.01" y="13.01" class="st33" width="473.99" height="473.99"/>
		<g>
			<path class="st34" d="M329.76,42.72v-3.55h-1.78c-0.14-1.01-0.4-1.98-0.77-2.9l1.53-0.88l-1.78-3.07l-1.54,0.89
				c-0.62-0.79-1.33-1.5-2.12-2.12l0.89-1.54l-3.07-1.77l-0.89,1.53c-0.92-0.37-1.89-0.63-2.9-0.77v-1.78h-3.55v1.78
				c-1.01,0.14-1.99,0.4-2.9,0.77L310,27.76l-3.07,1.77l0.89,1.54c-0.79,0.62-1.5,1.33-2.12,2.12l-1.53-0.89l-1.78,3.07l1.53,0.88
				c-0.37,0.92-0.63,1.89-0.77,2.9h-1.78v3.55h1.78c0.14,1.01,0.4,1.98,0.77,2.9l-1.53,0.88l1.78,3.07l1.53-0.89
				c0.62,0.79,1.33,1.5,2.12,2.12l-0.89,1.54l3.07,1.78l0.89-1.53c0.92,0.37,1.89,0.63,2.9,0.77v1.78h3.55v-1.78
				c1.01-0.14,1.98-0.4,2.9-0.77l0.89,1.53l3.07-1.78l-0.89-1.54c0.79-0.62,1.5-1.33,2.12-2.12l1.53,0.89l1.78-3.07l-1.53-0.88
				c0.37-0.92,0.63-1.89,0.77-2.9H329.76z M315.57,46.59c-3.12,0-5.64-2.53-5.64-5.64c0-3.12,2.53-5.64,5.64-5.64
				c3.12,0,5.64,2.53,5.64,5.64C321.21,44.06,318.68,46.59,315.57,46.59z"/>
			<path class="st34" d="M323.17,70.63v-2.81h-1.41c-0.11-0.8-0.32-1.57-0.61-2.3l1.21-0.7l-1.4-2.43l-1.21,0.7
				c-0.49-0.62-1.05-1.19-1.68-1.68l0.7-1.22l-2.43-1.4l-0.7,1.21c-0.73-0.29-1.5-0.5-2.3-0.61V58h-2.81v1.41
				c-0.8,0.11-1.57,0.32-2.3,0.61l-0.7-1.21l-2.43,1.4l0.7,1.22c-0.62,0.49-1.19,1.05-1.68,1.68l-1.21-0.7l-1.4,2.43l1.21,0.7
				c-0.29,0.73-0.5,1.5-0.61,2.3h-1.41v2.81h1.41c0.11,0.8,0.32,1.57,0.61,2.3l-1.21,0.7l1.4,2.43l1.21-0.7
				c0.49,0.62,1.05,1.19,1.68,1.68l-0.7,1.22l2.43,1.4l0.7-1.21c0.73,0.29,1.5,0.5,2.3,0.61v1.41h2.81v-1.41
				c0.8-0.11,1.57-0.32,2.3-0.61l0.7,1.21l2.43-1.4l-0.7-1.22c0.62-0.49,1.19-1.05,1.68-1.68l1.21,0.7l1.4-2.43l-1.21-0.7
				c0.29-0.73,0.5-1.5,0.61-2.3H323.17z M311.94,73.69c-2.46,0-4.46-2-4.46-4.46c0-2.46,2-4.46,4.46-4.46c2.47,0,4.46,2,4.46,4.46
				C316.4,71.69,314.4,73.69,311.94,73.69z"/>
			<path class="st34" d="M341.38,62.65v-2.26h-1.13c-0.09-0.64-0.26-1.26-0.49-1.85l0.97-0.56l-1.13-1.96l-0.98,0.56
				c-0.39-0.5-0.85-0.95-1.35-1.35l0.56-0.98l-1.95-1.13l-0.56,0.97c-0.58-0.24-1.2-0.4-1.85-0.49v-1.13h-2.26v1.13
				c-0.64,0.09-1.26,0.25-1.85,0.49l-0.56-0.97l-1.95,1.13l0.56,0.98c-0.5,0.39-0.96,0.85-1.35,1.35l-0.98-0.56l-1.13,1.96
				l0.97,0.56c-0.23,0.58-0.4,1.2-0.49,1.85h-1.13v2.26h1.13c0.09,0.64,0.25,1.26,0.49,1.85l-0.97,0.56l1.13,1.95l0.98-0.56
				c0.4,0.5,0.85,0.96,1.35,1.35l-0.56,0.98l1.95,1.13l0.56-0.98c0.58,0.23,1.2,0.4,1.85,0.49v1.13h2.26v-1.13
				c0.64-0.09,1.26-0.25,1.85-0.49l0.56,0.98l1.95-1.13l-0.56-0.98c0.5-0.39,0.96-0.85,1.35-1.35l0.98,0.56l1.13-1.95l-0.97-0.56
				c0.23-0.58,0.4-1.2,0.49-1.85H341.38z M332.35,65.11c-1.98,0-3.59-1.61-3.59-3.59c0-1.98,1.61-3.59,3.59-3.59
				c1.98,0,3.59,1.61,3.59,3.59C335.94,63.5,334.34,65.11,332.35,65.11z"/>
			<g>
				<text transform="matrix(1 0 0 1 195.1645 61.1993)" class="st34 st3 st4 st35">#TITLE</text>
			</g>
		</g>
		<ellipse class="st36" cx="250" cy="453.5" rx="30.36" ry="5.5"/>
	</g>
</g>
<g id="Designed_by_Freepik">
</g>
</svg>
