<?xml version="1.0" encoding="utf-8"?>
<!-- Generator: Adobe Illustrator 24.1.2, SVG Export Plug-In . SVG Version: 6.00 Build 0)  -->
<svg version="1.1" xmlns="http://www.w3.org/2000/svg" xmlns:xlink="http://www.w3.org/1999/xlink" x="0px" y="0px"
	 viewBox="0 0 500 500" style="enable-background:new 0 0 500 500;" xml:space="preserve">
<style type="text/css">
	.st0{fill:#FFFFFF;}
	.st1{fill:#E1A227;}
	.st2{fill:#65A0BB;}
	.st3{fill:#96C45D;}
	.st4{fill:#C75656;}
	.st5{fill:none;stroke:#575756;stroke-width:3;stroke-miterlimit:10;}
	.st6{fill:#575756;}
	.st7{font-family:'LeagueSpartan-Bold';}
	.st8{font-size:22.5147px;}
	.st9{letter-spacing:1;}
	.st10{fill:none;stroke:#65A0BB;stroke-width:2;stroke-miterlimit:10;stroke-dasharray:5;}
	.st11{fill:none;stroke:#96C45D;stroke-width:2;stroke-miterlimit:10;stroke-dasharray:5;}
	.st12{fill:none;stroke:#65A0BB;stroke-width:2;stroke-miterlimit:10;}
	.st13{fill:none;stroke:#96C45D;stroke-width:2;stroke-miterlimit:10;}
	.st14{fill:none;stroke:#C75656;stroke-width:2;stroke-miterlimit:10;stroke-dasharray:5;}
	.st15{fill:none;stroke:#E1A227;stroke-width:2;stroke-miterlimit:10;}
	.st16{fill:none;stroke:#E1A227;stroke-width:2;stroke-miterlimit:10;stroke-dasharray:5;}
	.st17{fill:none;stroke:#C75656;stroke-width:2;stroke-miterlimit:10;}
	.st18{font-family:'Raleway-Bold';}
	.st19{font-size:12.9665px;}
	.st20{fill:#767676;}
	.st21{fill:none;stroke:#767676;stroke-width:2;stroke-miterlimit:10;}
	.st22{fill:none;}
	.st23{fill:#5D5D5D;}
	.st24{font-family:'OpenSans';}
	.st25{font-size:5.512px;}
	.st26{fill:none;stroke:#C75656;stroke-width:1.5;stroke-miterlimit:10;}
	.st27{fill:none;stroke:#FFFFFF;stroke-width:0.847;stroke-miterlimit:10;}
	.st28{fill:none;stroke:#FFFFFF;stroke-width:0.5;stroke-miterlimit:10;}
	.st29{fill:none;stroke:#FFFFFF;stroke-width:0.847;stroke-linecap:round;stroke-miterlimit:10;}
	.st30{fill:none;stroke:#FFFFFF;stroke-width:0.9332;stroke-linecap:round;stroke-miterlimit:10;}
	.st31{fill:none;stroke:#FFFFFF;stroke-width:0.847;stroke-linecap:round;stroke-linejoin:round;stroke-miterlimit:10;}
	.st32{fill:none;stroke:#FFFFFF;stroke-miterlimit:10;}
	.st33{font-size:22.9617px;}
</style>
<g id="Background">
	<rect class="st0" width="500" height="500"/>
</g>
<g id="Objects">
	<g>
		<g>
			<rect y="36.66" class="st1" width="137.17" height="5.75"/>
			<rect y="30.91" class="st2" width="137.17" height="5.75"/>
			<rect y="52.15" class="st3" width="137.17" height="5.75"/>
			<rect y="42.4" class="st4" width="137.17" height="5.75"/>
			
				<rect x="362.83" y="36.66" transform="matrix(-1 -1.224647e-16 1.224647e-16 -1 862.8333 79.0603)" class="st1" width="137.17" height="5.75"/>
			
				<rect x="362.83" y="30.91" transform="matrix(-1 -1.224647e-16 1.224647e-16 -1 862.8333 67.5608)" class="st2" width="137.17" height="5.75"/>
			
				<rect x="362.83" y="52.15" transform="matrix(-1 -1.224647e-16 1.224647e-16 -1 862.8333 110.0594)" class="st3" width="137.17" height="5.75"/>
			
				<rect x="362.83" y="42.4" transform="matrix(-1 -1.224647e-16 1.224647e-16 -1 862.8333 90.5598)" class="st4" width="137.17" height="5.75"/>
		</g>
		<polygon class="st0" points="376.72,65 123.28,65 133.19,44.25 123.28,23.5 376.72,23.5 366.81,44.25 		"/>
		<g>
			<polygon class="st5" points="376.72,65 123.28,65 133.19,44.25 123.28,23.5 376.72,23.5 366.81,44.25 			"/>
			<text transform="matrix(1 0 0 1 169.714 52.4047)" class="st6 st7 st8 st9">MAPA MENTAL</text>
		</g>
	</g>
	<g>
		<line class="st10" x1="322.44" y1="204.74" x2="411.63" y2="121.61"/>
		<rect x="383.93" y="136.67" class="st0" width="66.82" height="10.68"/>
		<path class="st11" d="M79.22,181.56c0,0,32.22-46.1,91.83-6.81c0,0-12.51-61.25-58.71-67.1L79.22,181.56"/>
		<rect x="60.4" y="132.5" class="st0" width="62.69" height="11.88"/>
		<line class="st12" x1="284.6" y1="239.79" x2="337.55" y2="190.44"/>
		
			<ellipse transform="matrix(0.2328 -0.9725 0.9725 0.2328 -24.5533 186.6797)" class="st3" cx="106.04" cy="108.9" rx="18.15" ry="18.15"/>
		<path class="st13" d="M126.35,109.12c0,11.21-9.09,20.31-20.31,20.31c-11.22,0-20.31-9.09-20.31-20.31
			c0-11.21,9.09-20.31,20.31-20.31C117.26,88.81,126.35,97.91,126.35,109.12z"/>
		<path class="st14" d="M315.48,420.08c0,0-9.67-49,26.15-74.55c0,0,46.97-0.64,61.03,50.09
			C402.67,395.62,369.23,439.49,315.48,420.08z"/>
		<line class="st15" x1="150.34" y1="364.94" x2="289.18" y2="235.52"/>
		<line class="st16" x1="92.53" y1="418.83" x2="181.71" y2="335.7"/>
		<line class="st17" x1="217.49" y1="227.42" x2="341.64" y2="351.03"/>
		<line class="st13" x1="187.45" y1="197.52" x2="227.18" y2="237.07"/>
		<path class="st4" d="M305.81,351.03c0,19.79,16.04,35.83,35.83,35.83c19.79,0,35.83-16.04,35.83-35.83
			c0-19.79-16.04-35.83-35.83-35.83C321.85,315.21,305.81,331.25,305.81,351.03z"/>
		<text transform="matrix(1 0 0 1 304.5288 346.3759)" class="st0 st18 st19">#KEYWORD4</text>
		<path class="st4" d="M381.05,349.92c-0.54,0-0.98,0.44-0.98,0.98v0.14c0,21.19-17.24,38.43-38.43,38.43
			c-5.77,0-11.31-1.24-16.48-3.7c-0.49-0.23-1.07-0.03-1.3,0.46c-0.23,0.49-0.03,1.07,0.46,1.3c5.43,2.58,11.26,3.89,17.32,3.89
			c22.27,0,40.39-18.12,40.39-40.39v-0.14C382.03,350.36,381.59,349.92,381.05,349.92z"/>
		<path class="st4" d="M308.59,380.84c0.32,0.11,0.69,0.05,0.96-0.19c0.41-0.36,0.44-0.97,0.09-1.38
			c-10.06-11.42-13.29-27.46-8.44-41.86c3.8-11.28,12.23-20.53,23.11-25.37c0.49-0.22,0.71-0.8,0.5-1.29
			c-0.22-0.49-0.8-0.71-1.29-0.5c-11.38,5.06-20.2,14.73-24.17,26.53c-5.08,15.06-1.7,31.84,8.82,43.78
			C308.29,380.7,308.44,380.79,308.59,380.84z"/>
		<path class="st4" d="M390.54,344.64c-2.82-21.65-19.88-39.06-41.48-42.35c0,0-0.06-0.01-0.06-0.01c-0.53-0.09-1,0.29-1.08,0.82
			c-0.08,0.53,0.32,1.04,0.85,1.12c20.75,3.16,37.13,19.89,39.83,40.67c0.06,0.49,0.48,0.85,0.97,0.85c0.04,0,0.08,0,0.13-0.01
			C390.24,345.66,390.61,345.17,390.54,344.64z"/>
		<path class="st4" d="M358.64,395.24l-0.09,0.03c-19.63,7.51-42.15,1.03-54.76-15.75c-0.33-0.43-0.94-0.52-1.37-0.2
			c-0.4,0.3-0.5,0.84-0.26,1.26c0.02,0.04,0.04,0.07,0.07,0.11c13.14,17.47,36.58,24.21,57.04,16.39l0.06-0.02
			c0.51-0.19,0.76-0.75,0.57-1.26C359.71,395.31,359.14,395.05,358.64,395.24z"/>
		<path class="st20" d="M302.08,264.82c0,28.72-23.29,52.01-52.01,52.01c-28.72,0-52.01-23.29-52.01-52.01
			c0-28.73,23.29-52.01,52.01-52.01C278.8,212.8,302.08,236.09,302.08,264.82z"/>
		<path class="st21" d="M304.81,264.82c0,30.23-24.51,54.74-54.74,54.74c-30.23,0-54.74-24.51-54.74-54.74
			c0-30.23,24.51-54.74,54.74-54.74C280.3,210.08,304.81,234.58,304.81,264.82z"/>
		<path class="st1" d="M166.05,386.85c19.79,0,35.83-16.04,35.83-35.83c0-19.79-16.04-35.83-35.83-35.83
			c-19.79,0-35.83,16.04-35.83,35.83C130.23,370.81,146.27,386.85,166.05,386.85z"/>
		<text transform="matrix(1 0 0 1 128.9443 346.3622)" class="st0 st18 st19">#KEYWORD2</text>
		<path class="st1" d="M203.67,336.32c-0.19-0.5-0.76-0.75-1.26-0.56c-0.5,0.2-0.75,0.76-0.56,1.26l0.05,0.13
			c7.65,19.77-2.21,42.06-21.98,49.71c-5.38,2.08-11,2.92-16.71,2.49c-0.54-0.04-1.01,0.36-1.05,0.9c-0.04,0.54,0.36,1.01,0.9,1.05
			c6,0.45,11.91-0.43,17.56-2.62c20.77-8.04,31.13-31.47,23.1-52.24L203.67,336.32z"/>
		<path class="st1" d="M195.52,381.88l-0.08,0.08c-17.06,16.2-44.12,15.51-60.32-1.55c-3.01-3.17-5.5-6.75-7.41-10.64
			c-0.24-0.48-0.82-0.69-1.31-0.45c-0.49,0.24-0.69,0.82-0.45,1.31c1.99,4.07,4.6,7.81,7.74,11.13
			c16.95,17.84,45.24,18.57,63.08,1.62l0.08-0.08c0.39-0.37,0.41-0.99,0.04-1.38C196.53,381.52,195.92,381.5,195.52,381.88z"/>
		<path class="st1" d="M173.98,304.32c0.49,0.08,0.96-0.21,1.1-0.67c0.01-0.04,0.02-0.08,0.03-0.12c0.09-0.53-0.27-1.04-0.8-1.13
			c-21.52-3.66-43.18,7.52-52.67,27.2c0,0-0.03,0.06-0.03,0.06c-0.24,0.48-0.02,1.04,0.47,1.27c0.49,0.23,1.08,0,1.32-0.48
			C132.51,311.54,153.31,300.8,173.98,304.32z"/>
		<path class="st1" d="M209.61,341.27c-2.17-9.74-7.66-18.59-15.46-24.92c-7.91-6.42-17.89-9.95-28.09-9.95c0,0,0,0,0,0
			c-7.87,0-15.61,2.08-22.38,6.01c-0.47,0.27-0.63,0.87-0.35,1.34c0.27,0.47,0.87,0.63,1.34,0.35c6.47-3.76,13.87-5.75,21.4-5.75h0
			c19.82,0,37.33,14.02,41.64,33.34c0.1,0.45,0.5,0.76,0.95,0.76c0.07,0,0.14-0.01,0.21-0.02
			C209.39,342.31,209.72,341.79,209.61,341.27z"/>
		<path class="st3" d="M135.03,178.92c0.99,19.76,17.82,34.98,37.58,33.99c19.76-0.99,34.98-17.82,33.99-37.58
			c-0.99-19.76-17.82-34.98-37.58-33.99C149.25,142.34,134.03,159.16,135.03,178.92z"/>
		<text transform="matrix(1 0 0 1 133.6997 172.4672)" class="st0 st18 st19">#KEYWORD1</text>
		<path class="st3" d="M130.47,179.15l0.01,0.14c0.03,0.54,0.49,0.95,1.02,0.93c0.54-0.03,0.95-0.49,0.93-1.03l-0.01-0.14
			c-1.06-21.17,15.29-39.25,36.46-40.31c5.76-0.29,11.36,0.68,16.65,2.87c0.5,0.21,1.07-0.03,1.28-0.53
			c0.21-0.5-0.03-1.07-0.53-1.28c-5.56-2.31-11.44-3.32-17.49-3.02C146.54,137.91,129.35,156.91,130.47,179.15z"/>
		<path class="st3" d="M211.21,190.85c-3.83,11.27-12.28,20.5-23.18,25.31c-0.49,0.22-0.72,0.8-0.5,1.29
			c0.22,0.49,0.8,0.72,1.29,0.5c11.4-5.03,20.23-14.68,24.24-26.47c5.11-15.05,1.78-31.83-8.71-43.8c-0.12-0.13-0.26-0.23-0.42-0.28
			c-0.32-0.11-0.69-0.05-0.96,0.19c-0.41,0.36-0.45,0.97-0.09,1.38C212.91,160.41,216.1,176.46,211.21,190.85z"/>
		<path class="st3" d="M123.35,190.51l0.02,0.06c0.14,0.52,0.68,0.83,1.2,0.68c0.52-0.14,0.83-0.68,0.68-1.2l-0.03-0.09
			c-5.7-20.23,2.79-42.07,20.64-53.11c0.46-0.28,0.6-0.89,0.32-1.34c-0.26-0.42-0.79-0.58-1.23-0.38c-0.04,0.02-0.08,0.04-0.11,0.06
			C126.25,146.7,117.41,169.44,123.35,190.51z"/>
		<path class="st3" d="M183.65,222.71c-20.2,5.69-42.03-2.77-53.08-20.58c-0.26-0.42-0.79-0.57-1.23-0.38
			c-0.04,0.02-0.08,0.04-0.11,0.06c-0.46,0.28-0.6,0.89-0.31,1.35c11.51,18.55,34.24,27.36,55.27,21.43c0,0,0.06-0.02,0.06-0.02
			c0.52-0.14,0.79-0.68,0.64-1.2C184.74,222.86,184.17,222.56,183.65,222.71z"/>
		<path class="st3" d="M126.51,182.5l0.01,0.12c0.06,0.54,0.55,0.92,1.09,0.85c0.54-0.07,0.92-0.55,0.85-1.09l-0.01-0.12
			c-2.83-23.36,13.86-44.66,37.22-47.5c4.34-0.53,8.7-0.39,12.96,0.4c0.53,0.1,1.04-0.25,1.14-0.78c0.1-0.53-0.25-1.04-0.78-1.14
			c-4.45-0.83-9.01-0.97-13.55-0.42C141.01,135.79,123.55,158.07,126.51,182.5z"/>
		<path class="st2" d="M383.93,187.6c0-19.79-16.04-35.83-35.83-35.83c-19.79,0-35.83,16.04-35.83,35.83
			c0,19.79,16.04,35.83,35.83,35.83C367.88,223.42,383.93,207.38,383.93,187.6z"/>
		<text transform="matrix(1 0 0 1 310.9888 182.9379)" class="st0 st18 st19">#KEYWORD3</text>
		<path class="st2" d="M328.8,154.35c5.83-3.39,12.51-5.19,19.29-5.19c19.86,0,36.69,15.49,38.3,35.25c0.04,0.51,0.47,0.9,0.97,0.9
			c0.03,0,0.05,0,0.08,0c0.54-0.04,0.94-0.52,0.9-1.05c-0.82-10.07-5.38-19.41-12.82-26.3c-7.48-6.93-17.23-10.74-27.43-10.74
			c-7.13,0-14.14,1.89-20.28,5.45c-0.47,0.27-0.63,0.87-0.35,1.34C327.74,154.46,328.34,154.62,328.8,154.35z"/>
		<path class="st2" d="M379.78,156.18c-0.38-0.38-1-0.39-1.38-0.01c-0.38,0.38-0.39,1-0.01,1.38l0.08,0.08
			c16.52,16.75,16.34,43.82-0.41,60.34c-3.11,3.07-6.64,5.63-10.5,7.61c-0.48,0.25-0.67,0.83-0.42,1.32
			c0.25,0.48,0.84,0.67,1.32,0.42c4.03-2.07,7.72-4.74,10.98-7.95c17.52-17.28,17.71-45.59,0.43-63.1L379.78,156.18z"/>
		<path class="st2" d="M336.81,233.59l-0.09-0.02c-20.4-5.05-35.19-23.22-35.96-44.2c-0.02-0.54-0.47-0.96-1.01-0.94
			c-0.5,0.02-0.89,0.4-0.94,0.89c0,0.04,0,0.08,0,0.13c0.8,21.84,16.2,40.77,37.46,46.03l0.06,0.02c0.52,0.13,1.05-0.18,1.19-0.71
			C337.65,234.26,337.33,233.73,336.81,233.59z"/>
		<path class="st2" d="M397.01,181.2c-2.82-21.64-19.88-39.06-41.48-42.35c0,0-0.06-0.01-0.07-0.01c-0.53-0.08-1,0.29-1.08,0.82
			c-0.08,0.53,0.32,1.04,0.85,1.12c20.75,3.16,37.13,19.89,39.83,40.67c0.07,0.49,0.49,0.85,0.97,0.85c0.04,0,0.08,0,0.13-0.01
			C396.7,182.23,397.07,181.74,397.01,181.2z"/>
		<path class="st2" d="M325.82,226.27c0.15,0.09,0.32,0.13,0.49,0.13c0.34,0,0.67-0.17,0.85-0.49c0.27-0.47,0.11-1.06-0.36-1.33
			c-13.18-7.61-21.36-21.78-21.36-36.98c0-11.91,5.03-23.36,13.8-31.42c0.4-0.37,0.42-0.98,0.06-1.38c-0.37-0.4-0.98-0.42-1.38-0.06
			c-9.17,8.43-14.43,20.41-14.43,32.86C303.48,203.49,312.04,218.31,325.82,226.27z"/>
		<g>
			<rect x="123.09" y="244.72" class="st22" width="44.95" height="49.62"/>
			<text transform="matrix(1 0 0 1 123.0908 248.6307)" class="st23 st24 st25">#TEXTO2</text>
			<rect x="330.19" y="244.72" class="st22" width="44.95" height="49.62"/>
			<text transform="matrix(1 0 0 1 330.1851 248.6307)" class="st23 st24 st25">#TEXTO3</text>
			<rect x="226.64" y="142.63" class="st22" width="44.95" height="49.62"/>
			<text transform="matrix(1 0 0 1 226.6377 146.5458)" class="st23 st24 st25">#TEXTO1</text>
			<rect x="226.64" y="338.57" class="st22" width="44.95" height="49.62"/>
			<text transform="matrix(1 0 0 1 226.6377 342.4794)" class="st23 st24 st25">#TEXTO4</text>
		</g>
		<path class="st4" d="M339.4,427.01c0,10.02-8.12,18.15-18.15,18.15c-10.02,0-18.14-8.12-18.14-18.15
			c0-10.02,8.12-18.15,18.14-18.15C331.27,408.87,339.4,416.99,339.4,427.01z"/>
		<path class="st26" d="M341.56,427.01c0,11.21-9.09,20.31-20.31,20.31s-20.31-9.09-20.31-20.31c0-11.21,9.09-20.31,20.31-20.31
			S341.56,415.8,341.56,427.01z"/>
		<g>
			<path class="st27" d="M332.48,433.63c0,0.83-0.67,1.5-1.5,1.5h-19.45c-0.83,0-1.5-0.67-1.5-1.5v-11.95c0-0.83,0.67-1.5,1.5-1.5
				h19.45c0.83,0,1.5,0.67,1.5,1.5V433.63z"/>
			<path class="st27" d="M326.84,427.65c0,3.08-2.5,5.58-5.58,5.58c-3.08,0-5.58-2.5-5.58-5.58c0-3.08,2.5-5.58,5.58-5.58
				C324.34,422.07,326.84,424.57,326.84,427.65z"/>
			<path class="st28" d="M325.06,427.65c0,2.1-1.71,3.81-3.81,3.81c-2.11,0-3.81-1.71-3.81-3.81c0-2.1,1.71-3.81,3.81-3.81
				C323.36,423.84,325.06,425.55,325.06,427.65z"/>
			<rect x="327.02" y="421.76" class="st0" width="3.22" height="1.49"/>
			<rect x="315.48" y="418.89" class="st0" width="11.54" height="1.18"/>
		</g>
		<g>
			<polygon class="st27" points="111.44,119.89 98.19,119.89 98.19,97.88 114.84,97.88 114.84,116.39 			"/>
			<polyline class="st27" points="111.44,119.68 111.44,116.39 114.65,116.39 			"/>
			<line class="st29" x1="102.78" y1="101.57" x2="112.29" y2="101.57"/>
			<line class="st30" x1="100.74" y1="103.49" x2="112.29" y2="103.49"/>
			<line class="st30" x1="100.74" y1="105.42" x2="112.29" y2="105.42"/>
			<line class="st30" x1="100.74" y1="107.34" x2="112.29" y2="107.34"/>
			<line class="st30" x1="100.74" y1="109.27" x2="112.29" y2="109.27"/>
		</g>
		<g>
			
				<ellipse transform="matrix(0.1593 -0.9872 0.9872 0.1593 -47.1563 743.9366)" class="st4" cx="413.21" cy="399.66" rx="18.15" ry="18.15"/>
			<path class="st26" d="M433.52,399.87c0,11.21-9.09,20.31-20.31,20.31c-11.22,0-20.31-9.09-20.31-20.31
				c0-11.21,9.09-20.31,20.31-20.31C424.43,379.57,433.52,388.66,433.52,399.87z"/>
			<g>
				<path class="st27" d="M419.55,410.69c0,0.87-0.7,1.57-1.57,1.57h-9.53c-0.87,0-1.57-0.7-1.57-1.57v-22.06
					c0-0.87,0.7-1.57,1.57-1.57h9.53c0.87,0,1.57,0.7,1.57,1.57V410.69z"/>
				<rect x="406.88" y="389.28" class="st27" width="12.66" height="19.21"/>
				<line class="st31" x1="412.81" y1="410.37" x2="413.62" y2="410.37"/>
			</g>
		</g>
		<path class="st1" d="M116.93,412.73c0,10.02-8.12,18.15-18.15,18.15c-10.02,0-18.14-8.12-18.14-18.15
			c0-10.02,8.12-18.15,18.14-18.15C108.8,394.59,116.93,402.71,116.93,412.73z"/>
		<path class="st15" d="M119.09,412.73c0,11.21-9.09,20.31-20.31,20.31c-11.21,0-20.31-9.09-20.31-20.31
			c0-11.21,9.09-20.31,20.31-20.31C110,392.43,119.09,401.52,119.09,412.73z"/>
		<circle class="st3" cx="79.54" cy="193.24" r="18.15"/>
		<path class="st13" d="M99.85,193.46c0,11.21-9.09,20.31-20.31,20.31c-11.22,0-20.31-9.09-20.31-20.31
			c0-11.21,9.09-20.31,20.31-20.31C90.75,173.15,99.85,182.24,99.85,193.46z"/>
		<g>
			
				<ellipse transform="matrix(1 -8.463875e-03 8.463875e-03 1 -0.9396 3.5417)" class="st2" cx="417.97" cy="112.79" rx="18.15" ry="18.15"/>
			<path class="st12" d="M438.28,113c0,11.21-9.09,20.31-20.31,20.31c-11.22,0-20.31-9.09-20.31-20.31
				c0-11.21,9.09-20.31,20.31-20.31C429.19,92.7,438.28,101.79,438.28,113z"/>
		</g>
		<g>
			<g>
				<path class="st32" d="M83.37,189c0,2.12-1.72,3.83-3.83,3.83c-2.12,0-3.83-1.72-3.83-3.83s1.72-3.83,3.83-3.83
					C81.65,185.17,83.37,186.88,83.37,189z"/>
				<path class="st32" d="M84.78,196.41c0-1.84-1.45-3.33-3.24-3.33l-4.05,0c-1.79,0-3.24,1.49-3.24,3.34l0,3.66h10.52L84.78,196.41
					z"/>
			</g>
			<g>
				<path class="st32" d="M91.43,192c0,1.54-1.25,2.8-2.8,2.8c-1.54,0-2.8-1.25-2.8-2.8c0-1.54,1.25-2.8,2.8-2.8
					C90.17,189.2,91.43,190.45,91.43,192z"/>
				<path class="st32" d="M92.46,197.4c0-1.34-1.06-2.43-2.36-2.43l-2.95,0c-1.3,0-2.36,1.09-2.36,2.43l0,2.67h7.67L92.46,197.4z"/>
			</g>
			<g>
				<path class="st32" d="M73.26,192c0,1.54-1.25,2.8-2.8,2.8c-1.54,0-2.8-1.25-2.8-2.8c0-1.54,1.25-2.8,2.8-2.8
					C72.01,189.2,73.26,190.45,73.26,192z"/>
				<path class="st32" d="M74.3,197.4c0-1.34-1.06-2.43-2.36-2.43l-2.95,0c-1.3,0-2.36,1.09-2.36,2.43l0,2.67h7.67L74.3,197.4z"/>
			</g>
		</g>
		<g>
			<path class="st32" d="M105.41,407.44c0,3.57-2.89,6.46-6.46,6.46c-3.57,0-6.46-2.89-6.46-6.46c0-3.57,2.89-6.46,6.46-6.46
				C102.52,400.98,105.41,403.87,105.41,407.44z"/>
			<path class="st0" d="M98.95,413.91c-1.4,0-2.69-0.45-3.74-1.2l-1.11,12.73l4.85-3.38l4.85,3.38l-1.11-12.73
				C101.63,413.46,100.35,413.91,98.95,413.91z"/>
			<polygon class="st0" points="98.95,404.79 99.81,406.54 101.74,406.82 100.34,408.18 100.67,410.09 98.95,409.19 97.23,410.09 
				97.55,408.18 96.16,406.82 98.09,406.54 			"/>
		</g>
		<g>
			<g>
				<g>
					<path class="st0" d="M422.58,116.36l2.84-13.97l-1.76-1.48l-4.67-0.95l-2.2,0.68l-2.84,13.98l2.8,8.35L422.58,116.36z
						 M422.78,101.49l-2.5,12.29l-3.21-0.65l2.5-12.29L422.78,101.49z M421.83,116.11l-3.57,4.04l-1.8-0.37l-1.71-5.1l2.05-0.85
						l3.6,0.73L421.83,116.11z M418.82,100.78l-2.53,12.47l-1.43,0.59l2.57-12.64L418.82,100.78z M424.62,102.67l-2.56,12.61
						l-1.07-1.16l2.51-12.39L424.62,102.67z"/>
				</g>
			</g>
			<line class="st29" x1="424.01" y1="122.96" x2="410.14" y2="122.96"/>
		</g>
		<text transform="matrix(1 0 0 1 106.3589 276.1718)" class="st1 st7 st33">1</text>
		<text transform="matrix(1 0 0 1 383.4204 276.1718)" class="st2 st7 st33">3</text>
		<text transform="matrix(1 0 0 1 241.6675 136.6732)" class="st3 st7 st33">2</text>
		<text transform="matrix(1 0 0 1 241.6675 410.3729)" class="st4 st7 st33">4</text>
		<g>
			<g>
				<path class="st0" d="M250.07,232.89c-6.35,0-11.52,5.17-11.52,11.52c0,2.54,0.82,5.24,2.31,7.63c1.21,1.95,2.79,3.54,4.54,4.59
					c0,0.04,0,0.08,0,0.13v0.02c0,0.01,0,0.01,0,0.02c0,0.01,0,0.01,0,0.02v0.03l0,0.01c0.01,0.25,0.07,0.49,0.17,0.71
					c-0.11,0.23-0.17,0.49-0.17,0.76v0.02c0,0.01,0,0.01,0,0.02c0,0.01,0,0.01,0,0.02v0.02l0,0.01c0.01,0.25,0.07,0.49,0.17,0.71
					c-0.11,0.23-0.17,0.49-0.17,0.76c0,0.68,0.39,1.28,0.95,1.58c0.05,0.93,0.81,1.67,1.75,1.67h3.96c0.94,0,1.7-0.74,1.75-1.67
					c0.56-0.3,0.95-0.9,0.95-1.58c0-0.27-0.06-0.53-0.17-0.76c0.11-0.23,0.17-0.49,0.17-0.76v-0.04v-0.04l0,0
					c-0.01-0.25-0.07-0.49-0.17-0.71c0.11-0.23,0.17-0.49,0.17-0.76v-0.04v-0.04l0,0c0-0.03,0-0.05,0-0.08
					c1.75-1.06,3.32-2.65,4.54-4.59c1.49-2.39,2.31-5.09,2.31-7.63C261.59,238.06,256.42,232.89,250.07,232.89z M252.05,261.91
					h-3.96c-0.3,0-0.54-0.24-0.54-0.54c0-0.3,0.24-0.53,0.54-0.53h3.96c0.29,0,0.53,0.24,0.53,0.53
					C252.58,261.67,252.34,261.91,252.05,261.91z M252.96,260.45h-5.77c-0.32,0-0.58-0.26-0.58-0.58c0-0.32,0.26-0.58,0.58-0.58
					h5.77c0.32,0,0.58,0.26,0.58,0.58C253.53,260.2,253.28,260.45,252.96,260.45z M253.53,258.36c0,0.32-0.26,0.58-0.58,0.58h-5.77
					c-0.32,0-0.58-0.26-0.58-0.58c0-0.01,0-0.01,0-0.02c0-0.01,0-0.01,0-0.02c0-0.32,0.26-0.58,0.58-0.58h5.77
					c0.32,0,0.58,0.26,0.58,0.58c0,0.01,0,0.01,0,0.02C253.53,258.35,253.53,258.35,253.53,258.36z M252.89,256.23h0.07
					c0.06,0,0.11,0.01,0.16,0.03c0.02-0.01,0.03-0.02,0.04-0.03c0.22,0.08,0.37,0.29,0.37,0.54c0,0.01,0,0.01,0,0.02
					c0,0.01,0,0.01,0,0.02c0,0.32-0.26,0.58-0.58,0.58h-5.77c-0.32,0-0.58-0.26-0.58-0.58c0-0.01,0-0.01,0-0.02
					c0-0.01,0-0.01,0-0.02c0-0.24,0.16-0.45,0.37-0.54c0.01,0.01,0.03,0.02,0.04,0.03c0.05-0.02,0.11-0.03,0.16-0.03h0.07
					c-4.32-1.83-7.48-7.1-7.48-11.81c0-5.69,4.61-10.3,10.3-10.3c5.69,0,10.3,4.61,10.3,10.3
					C260.37,249.13,257.21,254.4,252.89,256.23z"/>
				<path class="st0" d="M254.89,239.73c-0.16,0-0.32,0.06-0.44,0.17l-4.37,4.02l-4.37-4.02c-0.13-0.12-0.28-0.17-0.44-0.17
					c-0.18,0-0.35,0.07-0.48,0.21c-0.24,0.27-0.23,0.68,0.04,0.93l4.6,4.24v2.76l-2.89-2.66c-0.12-0.12-0.28-0.17-0.44-0.17
					c-0.18,0-0.35,0.07-0.48,0.21c-0.24,0.27-0.23,0.68,0.04,0.92l3.78,3.48v2.29l-2.07-1.9c-0.13-0.12-0.29-0.17-0.44-0.17
					c-0.18,0-0.35,0.07-0.48,0.21c-0.24,0.27-0.23,0.68,0.04,0.93l2.95,2.72v2.52h1.31v-2.52l2.95-2.72
					c0.27-0.25,0.28-0.66,0.04-0.93c-0.13-0.14-0.3-0.21-0.48-0.21c-0.16,0-0.32,0.06-0.44,0.17l-2.07,1.9v-2.29l3.78-3.48
					c0.27-0.24,0.28-0.66,0.04-0.92c-0.13-0.14-0.3-0.21-0.48-0.21c-0.16,0-0.32,0.06-0.44,0.17l-2.89,2.66v-2.76l4.6-4.24
					c0.27-0.24,0.28-0.66,0.04-0.93C255.24,239.8,255.06,239.73,254.89,239.73z"/>
			</g>
			<g>
				<text transform="matrix(1 0 0 1 230.8936 278.0145)" class="st0 st18 st19">#TITLE</text>
			</g>
			<rect x="219.76" y="281.5" class="st22" width="61.88" height="13.95"/>
		</g>
	</g>
</g>
<g id="Designed_by_Freepik">
</g>
</svg>
